<svg width="25" height="25" viewBox="0 0 25 25" fill="none" xmlns="http://www.w3.org/2000/svg">
<path d="M20.9233 12.0069C20.8106 12.0264 20.7044 12.0416 20.6003 12.0503C20.4876 12.0611 20.3749 12.0676 20.2601 12.0676C20.1452 12.0676 20.0303 12.0611 19.9176 12.0503C19.8158 12.0416 19.7096 12.0264 19.5969 12.0069C18.342 11.7902 17.2952 10.971 16.762 9.85696C16.7057 9.73776 16.6558 9.61421 16.6103 9.49068C16.606 9.47767 16.5995 9.4625 16.593 9.44733C16.554 9.33246 16.5215 9.2176 16.4933 9.10056C16.4868 9.07672 16.4803 9.05288 16.4738 9.02687C16.4499 8.91851 16.4326 8.80798 16.4174 8.69744C16.4131 8.6671 16.4066 8.63892 16.4044 8.60858C16.3892 8.46987 16.3806 8.329 16.3806 8.18812C16.3806 7.56177 16.5323 6.67533 16.7945 5.75423C16.7945 5.75206 16.7945 5.74989 16.7967 5.74772C17.4577 3.4417 18.8253 0.860424 20.2601 0.860424C22.2648 0.860424 24.1396 5.89944 24.1396 8.18812C24.1396 10.1019 22.746 11.6905 20.9233 12.0069ZM19.9545 15.518V12.9194C19.9848 12.9215 20.013 12.9172 20.0433 12.9194C20.117 12.9237 20.1864 12.9302 20.2601 12.9302C20.3338 12.9302 20.4031 12.9237 20.4768 12.9194C20.505 12.9172 20.5353 12.9215 20.5657 12.9194V15.518H19.9545ZM24.1396 16.3784L23.3897 18.9662H1.61465L0.869086 16.3806L12.5011 16.3784H13.238H19.5188C19.521 16.3784 19.521 16.3784 19.5232 16.3784H20.997C20.997 16.3784 20.9991 16.3784 21.0013 16.3784H24.1396ZM21.8899 24.1374H3.1101L1.86389 19.8266H23.1404L21.8899 24.1374ZM5.04767 12.9194V15.518H4.43648V12.9194C4.46682 12.9215 4.49501 12.9172 4.52535 12.9194C4.59904 12.9237 4.6684 12.9302 4.74209 12.9302C4.7941 12.9302 4.84612 12.9215 4.89814 12.9194C4.94798 12.9172 4.99782 12.9237 5.04767 12.9194ZM0.862588 8.18812C0.862588 5.89944 2.73732 0.860424 4.74209 0.860424C6.07715 0.860424 7.4664 3.24447 8.17294 5.63719C8.02773 6.16385 7.92154 6.66884 7.85219 7.13264C7.82835 7.27568 7.81317 7.41223 7.798 7.54443C7.79367 7.58778 7.78715 7.63329 7.78499 7.67447C7.76765 7.85869 7.759 8.02991 7.759 8.18812C7.759 8.34851 7.76766 8.50888 7.78283 8.6671C7.83268 9.15474 7.95621 9.61855 8.14043 10.0498C7.56176 11.1118 6.54745 11.8184 5.37926 12.0113C5.30341 12.0243 5.23407 12.0308 5.16471 12.0394C5.026 12.0546 4.88513 12.0676 4.74209 12.0676C4.62722 12.0676 4.51235 12.0611 4.40181 12.0503C4.29778 12.0416 4.19157 12.0264 4.07887 12.0069C2.25399 11.6905 0.862588 10.1019 0.862588 8.18812ZM11.3329 12.7785V15.518H5.91026V12.7785C7.00692 12.5011 7.96487 11.8444 8.6194 10.9038C9.2631 11.8205 10.2189 12.4946 11.3329 12.7785ZM12.8067 12.9194V15.518H12.1955V12.9194C12.2258 12.9215 12.254 12.9172 12.2843 12.9194C12.358 12.9237 12.4274 12.9302 12.5011 12.9302C12.5531 12.9302 12.6051 12.9215 12.6571 12.9194C12.707 12.9172 12.7546 12.9237 12.8067 12.9194ZM16.3784 10.9038C17.0199 11.8205 17.9779 12.4946 19.0919 12.7785V15.518H13.6693V12.7785C14.7659 12.5011 15.7239 11.8444 16.3784 10.9038ZM9.03553 5.75423C9.03553 5.75206 9.03555 5.74989 9.03771 5.74772C9.69874 3.4417 11.0663 0.860424 12.5011 0.860424C13.8361 0.860424 15.2254 3.24447 15.9319 5.63719C15.7867 6.16385 15.6805 6.66884 15.6112 7.13264C15.5873 7.27568 15.5722 7.41223 15.557 7.54443C15.5527 7.58778 15.5461 7.63329 15.544 7.67447C15.5266 7.85869 15.518 8.02991 15.518 8.18812C15.518 8.34851 15.5267 8.50888 15.5418 8.6671C15.5917 9.15474 15.7152 9.61855 15.8994 10.0498C15.3208 11.1118 14.3064 11.8184 13.1383 12.0113C13.0624 12.0243 12.9931 12.0308 12.9237 12.0394C12.785 12.0546 12.6441 12.0676 12.5011 12.0676C12.3862 12.0676 12.2713 12.0611 12.1586 12.0503C12.0568 12.0416 11.9506 12.0264 11.8379 12.0069C10.583 11.7902 9.53618 10.971 9.00302 9.85696C8.94667 9.73776 8.89682 9.61421 8.85131 9.49068C8.84698 9.47767 8.84047 9.4625 8.83613 9.44733C8.79496 9.33246 8.76246 9.2176 8.73429 9.10056C8.72779 9.07672 8.72128 9.05288 8.71477 9.02687C8.69093 8.91851 8.6736 8.80798 8.65843 8.69744C8.6541 8.6671 8.64758 8.63892 8.64542 8.60858C8.63024 8.46987 8.62158 8.329 8.62158 8.18812C8.62158 7.56177 8.77329 6.67533 9.03553 5.75423ZM25.0022 8.18812C25.0022 5.74556 22.9996 0 20.2601 0C18.6064 0 17.2237 2.09146 16.3849 4.28695C15.5592 2.10447 14.1873 0 12.5011 0C10.8474 0 9.46467 2.09146 8.62592 4.28695C7.80017 2.10447 6.42826 0 4.74209 0C2.0026 0 0 5.74556 0 8.18812C0 10.401 1.52361 12.2562 3.57389 12.7785V15.518H0.866927C0.591678 15.518 0.338101 15.6437 0.173385 15.8626C0.00866927 16.0815 -0.0411875 16.3546 0.0346686 16.6168L0.873425 19.5167L2.27784 24.3758C2.38404 24.7443 2.72648 25 3.1101 25H21.8899C22.2757 25 22.6181 24.7443 22.7243 24.3758L24.1287 19.5167L24.9675 16.6168C25.0433 16.3546 24.9913 16.0815 24.8288 15.8626C24.6641 15.6437 24.4105 15.518 24.1331 15.518H21.4282V12.7785C23.4785 12.2562 25.0022 10.401 25.0022 8.18812Z" fill="#3E8180"/>
</svg>
