<svg width="25" height="25" viewBox="0 0 25 25" fill="none" xmlns="http://www.w3.org/2000/svg">
<path d="M24.1333 13.7931H18.6378V12.0691H23.7041C23.9411 12.0691 24.1333 12.2621 24.1333 12.4999V13.7931ZM24.1333 16.3789H18.6378V14.6549H24.1333V16.3789ZM24.1333 18.9647H18.6378V17.2418H24.1333V18.9647ZM24.1333 21.5521H18.6378V19.8273H24.1333V21.5521ZM24.1333 24.1376H18.6378V22.4126H24.1333V24.1376ZM12.8026 3.14387C12.6341 2.97588 12.3603 2.97588 12.1944 3.14387L6.71467 8.62068H4.91882L12.4972 1.04127L20.0782 8.62068H18.2797L12.8026 3.14387ZM17.7794 11.6381V14.2239V16.8107V19.396V21.9813V24.1376H15.5148V18.1021C15.5148 17.6276 15.1278 17.2418 14.6538 17.2418H10.3432C9.86925 17.2418 9.47954 17.6276 9.47954 18.1021V24.1376H7.2176V21.9813V19.396V16.8107V14.2239V11.6381V9.33795L12.4972 4.05812L17.7794 9.33795V11.6381ZM14.6538 24.1376H10.3432V18.1021H14.6538V24.1376ZM6.35654 13.7931H0.861063V12.4999C0.861063 12.2621 1.05591 12.0691 1.29027 12.0691H6.35654V13.7931ZM6.35654 16.3789H0.861063V14.6549H6.35654V16.3789ZM6.35654 18.9647H0.861063V17.2418H6.35654V18.9647ZM6.35654 21.5521H0.861063V19.8273H6.35654V21.5521ZM6.35654 24.1376H0.861063V22.4126H6.35654V24.1376ZM23.7041 11.207H18.6378V9.48306H21.1183C21.2921 9.48306 21.4501 9.37798 21.5159 9.21683C21.5844 9.05568 21.5475 8.87057 21.4237 8.74707L12.8026 0.127003C12.6341 -0.0415211 12.3603 -0.0415211 12.1944 0.127003L3.57326 8.74707C3.4495 8.87057 3.41264 9.05568 3.4811 9.21683C3.54693 9.37798 3.70228 9.48306 3.87871 9.48306H6.35654V11.207H1.29027C0.579305 11.207 0 11.7871 0 12.4999V14.2239V16.8107V19.396V21.9813V24.5689C0 24.8072 0.192219 25 0.429207 25H6.78577H9.91137H15.0856H18.2086H24.5651C24.8048 25 24.997 24.8072 24.997 24.5689V21.9813V19.396V16.8107V14.2239V12.4999C24.997 11.7871 24.4151 11.207 23.7041 11.207Z" fill="#3E8180"/>
<path d="M10.7738 8.62034H14.2234V12.0686H10.7738V8.62034ZM9.91205 8.42922V12.26C9.91205 12.6299 10.213 12.9307 10.5809 12.9307H14.4137C14.7842 12.9307 15.0851 12.6299 15.0851 12.26V8.42922C15.0851 8.05931 14.7842 7.75859 14.4137 7.75859H10.5809C10.213 7.75859 9.91205 8.05931 9.91205 8.42922Z" fill="#3E8180"/>
<path d="M13.576 9.9143H12.9268V9.26772C12.9268 9.02988 12.7344 8.83693 12.4958 8.83693C12.2572 8.83693 12.0647 9.02988 12.0647 9.26772V9.9143H11.4182C11.1795 9.9143 10.9871 10.1072 10.9871 10.3453C10.9871 10.5834 11.1795 10.7761 11.4182 10.7761H12.0647V11.4227C12.0647 11.6608 12.2572 11.8538 12.4958 11.8538C12.7344 11.8538 12.9268 11.6608 12.9268 11.4227V10.7761H13.576C13.812 10.7761 14.0045 10.5834 14.0045 10.3453C14.0045 10.1072 13.812 9.9143 13.576 9.9143Z" fill="#3E8180"/>
</svg>
