<svg width="19" height="25" viewBox="0 0 19 25" fill="none" xmlns="http://www.w3.org/2000/svg">
<path d="M0.862159 1.29389C0.862159 1.05549 1.05549 0.862587 1.29324 0.862587H16.811C17.0488 0.862587 17.2421 1.05549 17.2421 1.29389V24.1396H12.5622V16.8119C12.5622 16.0988 11.9822 15.518 11.269 15.518H6.83529C6.12202 15.518 5.54205 16.0988 5.54205 16.8119V24.1396H0.862159V1.29389ZM11.7 24.1396H6.40421V16.8119C6.40421 16.5735 6.59753 16.3806 6.83529 16.3806H11.269C11.5067 16.3806 11.7 16.5735 11.7 16.8119V24.1396ZM0.431082 25H17.6732C17.9111 25 18.1043 24.8071 18.1043 24.5709V1.29389C18.1043 0.580845 17.5241 0 16.811 0H1.29324C0.580194 0 0 0.580845 0 1.29389V24.5709C0 24.8071 0.193111 25 0.431082 25Z" fill="#3E8180"/>
<path d="M7.75907 4.31084H10.3453L10.346 6.89645H7.75907V4.31084ZM7.75907 7.75903H10.3453C10.8208 7.75903 11.2075 7.37325 11.2075 6.89645V4.31084C11.2075 3.83403 10.8208 3.44823 10.3453 3.44823H7.75907C7.28356 3.44823 6.89691 3.83403 6.89691 4.31084V6.89645C6.89691 7.37325 7.28356 7.75903 7.75907 7.75903Z" fill="#3E8180"/>
<path d="M2.58634 4.31084H5.17282L5.17346 6.89645H2.58634V4.31084ZM2.58634 7.75903H5.17282C5.64811 7.75903 6.03475 7.37325 6.03475 6.89645V4.31084C6.03475 3.83403 5.64811 3.44823 5.17282 3.44823H2.58634C2.11105 3.44823 1.7244 3.83403 1.7244 4.31084V6.89645C1.7244 7.37325 2.11105 7.75903 2.58634 7.75903Z" fill="#3E8180"/>
<path d="M12.9313 4.31084H15.5178L15.5185 6.89645H12.9313V4.31084ZM12.9313 7.75903H15.5178C15.9931 7.75903 16.3798 7.37325 16.3798 6.89645V4.31084C16.3798 3.83403 15.9931 3.44823 15.5178 3.44823H12.9313C12.456 3.44823 12.0694 3.83403 12.0694 4.31084V6.89645C12.0694 7.37325 12.456 7.75903 12.9313 7.75903Z" fill="#3E8180"/>
<path d="M7.75907 9.50151H10.3453L10.346 12.0871H7.75907V9.50151ZM7.75907 12.9497H10.3453C10.8208 12.9497 11.2075 12.5618 11.2075 12.0871V9.50151C11.2075 9.0247 10.8208 8.6389 10.3453 8.6389H7.75907C7.28356 8.6389 6.89691 9.0247 6.89691 9.50151V12.0871C6.89691 12.5618 7.28356 12.9497 7.75907 12.9497Z" fill="#3E8180"/>
<path d="M2.58634 12.0871V9.50151H5.17282L5.17346 12.0871H2.58634ZM6.03475 12.0871V9.50151C6.03475 9.0247 5.64811 8.6389 5.17282 8.6389H2.58634C2.11105 8.6389 1.7244 9.0247 1.7244 9.50151V12.0871C1.7244 12.5618 2.11105 12.9497 2.58634 12.9497H5.17282C5.64811 12.9497 6.03475 12.5618 6.03475 12.0871Z" fill="#3E8180"/>
<path d="M12.9313 9.50151H15.5178L15.5185 12.0871H12.9313V9.50151ZM12.9313 12.9497H15.5178C15.9931 12.9497 16.3798 12.5618 16.3798 12.0871V9.50151C16.3798 9.0247 15.9931 8.6389 15.5178 8.6389H12.9313C12.456 8.6389 12.0694 9.0247 12.0694 9.50151V12.0871C12.0694 12.5618 12.456 12.9497 12.9313 12.9497Z" fill="#3E8180"/>
</svg>
