<svg width="25" height="25" viewBox="0 0 25 25" fill="none" xmlns="http://www.w3.org/2000/svg">
<path d="M22.8439 10.3437H0.862084V7.75832H24.1368L24.1375 10.3437H22.8439ZM22.4129 24.1375H15.5166V18.102C15.5166 17.6274 15.13 17.2417 14.6546 17.2417H10.3443C9.86888 17.2417 9.48226 17.6274 9.48226 18.102V24.1375H2.58603V11.2062H22.4129V24.1375ZM14.6546 24.1375H10.3443V18.102H14.6546V24.1375ZM4.02652 1.10092C4.09999 0.953554 4.24757 0.862534 4.41184 0.862534H20.5871C20.7513 0.862534 20.8989 0.953554 20.9724 1.10092L23.8705 6.89581H1.12842L4.02652 1.10092ZM24.969 7.17971C24.9653 7.16888 24.9634 7.16019 24.959 7.15152C24.9566 7.14502 24.956 7.14069 24.9534 7.13419L21.7434 0.715153C21.523 0.273058 21.0799 0 20.5871 0H4.41184C3.91903 0 3.47586 0.273058 3.25546 0.715153L0.0455065 7.13419C0.042906 7.14069 0.0422556 7.14502 0.0398718 7.15152C0.0355375 7.16019 0.0333712 7.16888 0.0299038 7.17971C0.0143005 7.22089 0.0051992 7.2664 0.0034655 7.30974C0.00324879 7.31624 0 7.32057 0 7.32707V10.3437C0 10.8205 0.386616 11.2062 0.862084 11.2062H1.72416V24.5687C1.72416 24.8071 1.91704 25 2.15499 25H9.91331H15.0856H22.8439C23.0819 25 23.2747 24.8071 23.2747 24.5687V11.2062H24.1368C24.6123 11.2062 24.9989 10.8205 24.9989 10.3437V7.32707C24.9989 7.32057 24.9956 7.31624 24.9954 7.30974C24.9937 7.2664 24.9846 7.22089 24.969 7.17971Z" fill="#3E8180"/>
<path d="M4.31008 15.5167H5.60299V17.2417H4.31008V15.5167ZM4.31008 12.9313H5.60299V14.6541H4.31008V12.9313ZM6.46507 15.5167H7.75864L7.75885 17.2417H6.46507V15.5167ZM6.46507 12.9313H7.7582L7.75842 14.6541H6.46507V12.9313ZM4.31008 18.1021H7.7582C8.23367 18.1021 8.62029 17.7163 8.62029 17.2417V12.9313C8.62029 12.4545 8.23367 12.0688 7.7582 12.0688H4.31008C3.83461 12.0688 3.448 12.4545 3.448 12.9313V17.2417C3.448 17.7163 3.83461 18.1021 4.31008 18.1021Z" fill="#3E8180"/>
<path d="M17.2405 15.5167H18.5336V17.2417H17.2405V15.5167ZM17.2405 12.9313H18.5336V14.6541H17.2405V12.9313ZM19.3957 15.5167H20.689L20.6893 17.2417H19.3957V15.5167ZM19.3957 12.9313H20.6886L20.6888 14.6541H19.3957V12.9313ZM17.2405 18.1021H20.6886C21.1641 18.1021 21.5507 17.7163 21.5507 17.2417V12.9313C21.5507 12.4545 21.1641 12.0688 20.6886 12.0688H17.2405C16.765 12.0688 16.3784 12.4545 16.3784 12.9313V17.2417C16.3784 17.7163 16.765 18.1021 17.2405 18.1021Z" fill="#3E8180"/>
</svg>
