<svg width="21" height="17" viewBox="0 0 21 17" fill="none" xmlns="http://www.w3.org/2000/svg">
<path d="M20.1248 7.49142L19.7128 7.07325L16.9617 4.32214L16.9615 1.75975H15.5395V2.90601L12.6335 0L8.13196 4.49852L5.65338 2.01994L0.231615 7.44171V7.44192C-0.0772049 7.75074 -0.0772049 8.25148 0.231615 8.5603C0.540434 8.86912 1.04117 8.86912 1.34999 8.5603L5.64409 4.25083L7.01358 5.62032L5.19806 7.43584L5.19785 7.43562C4.88903 7.74444 4.88903 8.24518 5.19785 8.554C5.50688 8.86282 6.00763 8.86282 6.31645 8.554L12.63 2.23709L19.0061 8.6226C19.315 8.93142 19.8157 8.93142 20.1245 8.6226C20.4333 8.31357 20.4333 7.81282 20.1245 7.504L20.1248 7.49142Z" fill="white"/>
<path d="M6.42148 16.0579V15.2492H3.28919V6.32983H1.91992V16.058C1.91992 16.366 2.16953 16.6156 2.47748 16.6156H6.99785C6.68665 16.6158 6.43166 16.369 6.42148 16.058V16.0579Z" fill="white"/>
<path d="M18.8484 9.35625L13.1201 3.64016C12.895 3.41519 12.5302 3.41519 12.3052 3.64016C6.08125 9.86413 6.41873 9.43039 6.41873 9.76233V16.0577C6.41873 16.376 6.67677 16.6338 6.99488 16.6338H18.458C18.7662 16.6338 19.0158 16.3842 19.0158 16.0763C19.0065 9.24151 19.0746 9.59171 18.8486 9.35659L18.8484 9.35625ZM14.8828 13.5077C14.8802 13.9399 14.7062 14.3536 14.3989 14.6574C14.0914 14.9613 13.676 15.1307 13.2438 15.1281H12.1842C11.752 15.1281 11.3375 14.9565 11.0319 14.6509C10.7264 14.3451 10.5545 13.9306 10.5545 13.4984V9.44919C10.5545 9.01697 10.7264 8.60245 11.0319 8.2969C11.3375 7.99132 11.752 7.81973 12.1842 7.81973H13.2438C13.676 7.81973 14.0905 7.99132 14.3961 8.2969C14.7017 8.60247 14.8735 9.017 14.8735 9.44919L14.8828 13.5077Z" fill="white"/>
</svg>
