<svg width="36" height="34" viewBox="0 0 36 34" fill="none" xmlns="http://www.w3.org/2000/svg">
<path fill-rule="evenodd" clip-rule="evenodd" d="M4.02515 27.387H2.65322V27.93H3.91326V28.3886H2.65322V29.056H4.08603V29.5149H2.12408V26.9296H4.02515V27.387ZM5.76002 28.8119L6.01937 29.0562C5.92916 29.1024 5.8291 29.126 5.72774 29.1251C5.43593 29.1251 5.02526 28.9454 5.02526 28.2219C5.02526 27.4983 5.43593 27.3186 5.72774 27.3186C6.01937 27.3186 6.42965 27.4983 6.42965 28.2219C6.42965 28.4642 6.38288 28.6432 6.31099 28.7771L6.03734 28.5216L5.76002 28.8119ZM6.98082 29.409L6.69925 29.1441C6.85772 28.9421 6.9698 28.647 6.9698 28.2221C6.9698 27.009 6.06962 26.8617 5.72755 26.8617C5.38568 26.8617 4.48588 27.009 4.48588 28.2221C4.48588 29.4359 5.38568 29.5828 5.72755 29.5828C5.87829 29.5828 6.14499 29.5546 6.38984 29.4092L6.69635 29.7018L6.98082 29.409ZM9.51171 28.6111C9.51171 29.2906 9.10065 29.5826 8.44899 29.5826C8.21167 29.5826 7.85879 29.5252 7.62842 29.2697C7.48812 29.1124 7.43401 28.9017 7.42705 28.6432V26.9296H7.97783V28.6066C7.97783 28.9678 8.18655 29.1253 8.43817 29.1253C8.80942 29.1253 8.96016 28.9456 8.96016 28.6323V26.9296H9.5119V28.6111H9.51171ZM10.9582 27.513H10.9662L11.286 28.5355H10.6262L10.9582 27.513ZM10.4821 28.9806H11.4365L11.6024 29.5151H12.1893L11.279 26.9296H10.6558L9.73415 29.5151H10.3029L10.4821 28.9806ZM13.1505 29.0471H14.4357V29.5149H12.6098V26.9296H13.1505V29.0471ZM16.4834 28.3546V29.5149H15.9443V26.9296H16.4834V27.9086H17.4919V26.9296H18.0312V29.5149H17.4919V28.3546H16.4834ZM19.0605 28.2219C19.0605 27.4983 19.4716 27.3186 19.7622 27.3186C20.0544 27.3186 20.4651 27.4983 20.4651 28.2219C20.4651 28.9454 20.0544 29.1251 19.7622 29.1251C19.4716 29.1251 19.0605 28.9454 19.0605 28.2219ZM18.5212 28.2219C18.5212 29.4357 19.4217 29.5826 19.7622 29.5826C20.1057 29.5826 21.0053 29.4357 21.0053 28.2219C21.0053 27.0088 20.1059 26.8615 19.7622 26.8615C19.4219 26.8615 18.5212 27.0088 18.5212 28.2219ZM23.5833 28.6111C23.5833 29.2906 23.1723 29.5826 22.5204 29.5826C22.2827 29.5826 21.9308 29.5252 21.6994 29.2697C21.5593 29.1124 21.505 28.9017 21.4987 28.6432V26.9296H22.0487V28.6066C22.0487 28.9678 22.2582 29.1253 22.5107 29.1253C22.8814 29.1253 23.0323 28.9456 23.0323 28.6323V26.9296H23.5835V28.6111H23.5833ZM24.5714 28.7185C24.5763 28.8623 24.6487 29.1364 25.1199 29.1364C25.375 29.1364 25.6601 29.0753 25.6601 28.8009C25.6601 28.6001 25.4656 28.5454 25.1924 28.4808L24.9149 28.4159C24.4959 28.3189 24.0931 28.2265 24.0931 27.6576C24.0931 27.3692 24.2491 26.8615 25.0874 26.8615C25.8802 26.8615 26.0922 27.3795 26.096 27.6964H25.577C25.563 27.582 25.5196 27.3076 25.0478 27.3076C24.8432 27.3076 24.5983 27.3831 24.5983 27.6172C24.5983 27.8199 24.7639 27.8614 24.8708 27.8868L25.5016 28.0416C25.8545 28.1283 26.178 28.2725 26.178 28.7365C26.178 29.5151 25.3864 29.5828 25.1593 29.5828C24.2168 29.5828 24.0549 29.039 24.0549 28.7187H24.5714V28.7185ZM27.1605 29.5149H26.6221V26.9296H27.1605V29.5149ZM29.318 26.9296H29.8215V29.5149H29.2821L28.2279 27.6707H28.2188V29.5149H27.7153V26.9296H28.2841L29.3089 28.7299H29.318V26.9296ZM31.6288 28.1214H32.7079V29.5149H32.3487L32.2948 29.191C32.1581 29.348 31.96 29.5824 31.4881 29.5824C30.8656 29.5824 30.3009 29.1362 30.3009 28.2292C30.3009 27.5242 30.6934 26.8575 31.5635 26.8613C32.3568 26.8613 32.6702 27.3754 32.6973 27.7333H32.1579C32.1579 27.6322 31.9738 27.3076 31.5928 27.3076C31.2067 27.3076 30.8507 27.5737 30.8507 28.2358C30.8507 28.9419 31.2361 29.1251 31.6031 29.1251C31.7219 29.1251 32.1191 29.0792 32.2296 28.5564H31.6288V28.1214ZM2.54925 32.1492C2.54925 31.4257 2.95953 31.2452 3.25077 31.2452C3.5424 31.2452 3.95249 31.4257 3.95249 32.1492C3.95249 32.8724 3.5424 33.0537 3.25077 33.0537C2.95953 33.0537 2.54925 32.8724 2.54925 32.1492ZM2.00929 32.1492C2.00929 33.3619 2.90909 33.5115 3.25097 33.5115C3.59303 33.5115 4.49283 33.3621 4.49283 32.1492C4.49283 30.9364 3.59284 30.7889 3.25097 30.7889C2.90909 30.7889 2.00929 30.9365 2.00929 32.1492ZM5.97241 32.0625V31.3022H6.40086C6.73538 31.3022 6.87608 31.4075 6.87608 31.6597C6.87608 31.7749 6.87608 32.0625 6.47256 32.0625H5.97241ZM5.97241 32.5097H6.59122C7.28636 32.5097 7.41545 31.9185 7.41545 31.6848C7.41545 31.1775 7.11378 30.8567 6.61286 30.8567H5.43264V33.4423H5.97241V32.5097ZM8.88092 32.0625V31.3022H9.3086C9.64351 31.3022 9.78401 31.4075 9.78401 31.6597C9.78401 31.7749 9.78401 32.0625 9.38146 32.0625H8.88092ZM8.88092 32.5097H9.50012C10.1947 32.5097 10.3247 31.9185 10.3247 31.6848C10.3247 31.1775 10.0227 30.8567 9.52215 30.8567H8.34077V33.4423H8.88092V32.5097ZM11.675 32.1492C11.675 31.4257 12.0843 31.2452 12.3771 31.2452C12.6674 31.2452 13.0787 31.4257 13.0787 32.1492C13.0787 32.8724 12.6676 33.0537 12.3771 33.0537C12.0843 33.0537 11.675 32.8724 11.675 32.1492ZM11.1349 32.1492C11.1349 33.3619 12.0345 33.5115 12.3771 33.5115C12.7182 33.5115 13.618 33.3621 13.618 32.1492C13.618 30.9364 12.7182 30.7889 12.3771 30.7889C12.0345 30.7889 11.1349 30.9365 11.1349 32.1492ZM15.0879 31.9944V31.3022H15.7603C16.0772 31.3022 16.1379 31.5049 16.1379 31.6415C16.1379 31.8974 16.0017 31.9944 15.7207 31.9944H15.0879ZM14.5573 33.4425H15.0879V32.4306H15.6449C16.045 32.4306 16.067 32.5669 16.067 32.9197C16.067 33.1855 16.0873 33.3186 16.1234 33.4425H16.7215V33.3727C16.6064 33.33 16.6064 33.2361 16.6064 32.8594C16.6064 32.3755 16.4912 32.2971 16.279 32.2031C16.5345 32.1175 16.6779 31.8721 16.6779 31.5882C16.6779 31.3644 16.5526 30.8571 15.8648 30.8571H14.5571V33.4425H14.5573ZM18.6899 33.4425H18.1501V31.3144H17.3693V30.8569H19.4716V31.3144H18.6899V33.4425ZM22.3695 32.5377C22.3695 33.2179 21.9592 33.5115 21.3069 33.5115C21.0706 33.5115 20.7177 33.4514 20.4868 33.1963C20.3463 33.0386 20.2923 32.8295 20.286 32.5705V30.8569H20.836V32.534C20.836 32.894 21.0451 33.0537 21.2969 33.0537C21.6676 33.0537 21.8185 32.8724 21.8185 32.5595V30.8567H22.3697V32.5377H22.3695ZM24.9825 30.8569H25.4875V33.4425H24.9464L23.8914 31.5983H23.8856V33.4425H23.3806V30.8569H23.9493L24.9761 32.6565H24.9825V30.8569ZM27.0109 33.4425H26.4692V30.8569H27.0109V33.4425ZM29.119 33.4425H28.5792V31.3144H27.7994V30.8569H29.9007V31.3144H29.119V33.4425ZM31.9421 33.4425H31.4011V32.4664L30.5093 30.8569H31.146L31.6823 31.9805L32.1948 30.8569H32.8059L31.9421 32.4727V33.4425ZM17.4049 0L0 8.57229V12.599H1.94803V24.6779H32.7307V12.599H35.0699V8.57229L17.4049 0ZM28.9646 21.0401H5.7148V10.001L17.4049 4.0267L28.9647 10.001V21.0401H28.9646Z" fill="white"/>
<path fill-rule="evenodd" clip-rule="evenodd" d="M22.729 13.8966H11.9498V10.001H22.729V13.8966ZM22.729 19.4841H11.9498V15.5859H22.729V19.4841Z" fill="white"/>
</svg>
