<svg width="25" height="25" viewBox="0 0 25 25" fill="none" xmlns="http://www.w3.org/2000/svg">
<path d="M24.1333 24.1387H21.5501V12.9317H23.7041C23.9411 12.9317 24.1333 13.124 24.1333 13.3636V24.1387ZM20.6865 12.4999V24.1387H16.0072V16.8105C16.0072 16.0969 15.428 15.5176 14.7144 15.5176H10.2827C9.56907 15.5176 8.98975 16.0969 8.98975 16.8105V24.1387H4.30792V12.4999V1.29298C4.30792 1.05599 4.50278 0.86377 4.73977 0.86377H20.2546C20.4943 0.86377 20.6865 1.05599 20.6865 1.29298V12.4999ZM15.1462 24.1387H9.85082V16.8105C9.85082 16.5735 10.0431 16.3786 10.2827 16.3786H14.7144C14.9513 16.3786 15.1462 16.5735 15.1462 16.8105V24.1387ZM3.44685 24.1387H0.861064V13.3636C0.861064 13.124 1.05592 12.9317 1.29027 12.9317H3.44685V24.1387ZM23.7041 12.0681H21.5501V1.29298C21.5501 0.58201 20.9682 8.2016e-05 20.2546 8.2016e-05H4.73977C4.02617 8.2016e-05 3.44685 0.58201 3.44685 1.29298V12.0681H1.29027C0.579305 12.0681 0 12.65 0 13.3636V24.5679C0 24.8075 0.192219 24.9998 0.429208 24.9998H3.87871H9.41899H15.5754H21.1183H24.5652C24.8048 24.9998 24.997 24.8075 24.997 24.5679V13.3636C24.997 12.65 24.4151 12.0681 23.7041 12.0681Z" fill="#3E8180"/>
<path d="M8.61954 12.0693V4.30984H16.3764L16.379 12.0693H8.61954ZM16.3764 3.44884H8.61954C8.14379 3.44884 7.75854 3.83409 7.75854 4.30984V12.0693C7.75854 12.545 8.14379 12.9303 8.61954 12.9303H16.3764C16.8547 12.9303 17.24 12.545 17.24 12.0693V4.30984C17.24 3.83409 16.8547 3.44884 16.3764 3.44884Z" fill="#3E8180"/>
<path d="M13.3607 9.26789C13.3607 9.5015 13.1861 9.70687 12.9294 9.81982V8.71341C13.1861 8.82636 13.3607 9.03428 13.3607 9.26789ZM12.0669 7.66603C11.8127 7.55308 11.6382 7.34513 11.6382 7.11152C11.6382 6.87791 11.8127 6.67255 12.0669 6.55703V7.66603ZM13.792 6.4646C14.0307 6.4646 14.2233 6.27209 14.2233 6.03591C14.2233 5.79717 14.0307 5.60462 13.792 5.60462H12.9294V5.17335C12.9294 4.93461 12.7369 4.74208 12.4982 4.74208C12.2594 4.74208 12.0669 4.93461 12.0669 5.17335V5.65596C11.325 5.82539 10.7756 6.4107 10.7756 7.11152C10.7756 7.81234 11.325 8.39765 12.0669 8.56708V9.91481H11.2069C10.9682 9.91481 10.7756 10.1073 10.7756 10.3435C10.7756 10.5823 10.9682 10.7748 11.2069 10.7748H12.0669V11.2061C12.0669 11.4448 12.2594 11.6373 12.4982 11.6373C12.7369 11.6373 12.9294 11.4448 12.9294 11.2061V10.7234C13.6713 10.554 14.2233 9.96871 14.2233 9.26789C14.2233 8.56707 13.6713 7.98176 12.9294 7.81233V6.4646H13.792Z" fill="#3E8180"/>
</svg>
