<svg width="25" height="25" viewBox="0 0 25 25" fill="none" xmlns="http://www.w3.org/2000/svg">
<path d="M24.1368 12.0688H20.2577V9.48336H24.1368V12.0688ZM22.8437 24.1375H20.2577V12.9313H22.8437V24.1375ZM5.17207 3.44791H4.30998V0.862526H20.6887L20.6894 3.44791H19.8266H5.17207ZM19.3956 9.0521V24.1375H16.3785V16.3792C16.3785 15.9046 15.9919 15.5167 15.5164 15.5167H9.48228C9.00681 15.5167 8.62019 15.9046 8.62019 16.3792V24.1375H5.60311V12.5V9.0521V4.31043H19.3956V9.0521ZM15.5164 24.1375H12.9304V16.3792H15.5164V24.1375ZM12.0683 24.1375H9.48228V16.3792H12.0683V24.1375ZM4.74103 12.0688H0.861867L0.863169 9.48336H4.74103V12.0688ZM4.74103 24.1375H2.15499V12.9313H4.74103V24.1375ZM24.1368 8.62085H20.2577V4.31043H20.6887C21.164 4.31043 21.5506 3.92467 21.5506 3.44791V0.862526C21.5506 0.387924 21.164 1.33514e-05 20.6887 1.33514e-05H4.30998C3.83473 1.33514e-05 3.44812 0.387924 3.44812 0.862526V3.44791C3.44812 3.92467 3.83473 4.31043 4.30998 4.31043H4.74103V8.62085H0.861867C0.386616 8.62085 0 9.00659 0 9.48336V12.0688C0 12.5455 0.386616 12.9313 0.861867 12.9313H1.29291V24.5687C1.29291 24.8071 1.486 25 1.72395 25H5.17207H9.05122H15.9475H19.8266H23.2747C23.5127 25 23.7058 24.8071 23.7058 24.5687V12.9313H24.1368C24.6121 12.9313 24.9987 12.5455 24.9987 12.0688V9.48336C24.9987 9.00659 24.6121 8.62085 24.1368 8.62085Z" fill="#3E8180"/>
<path d="M12.4994 6.8957C13.9254 6.8957 15.0855 8.05728 15.0855 9.48325C15.0855 10.9092 13.9254 12.0686 12.4994 12.0686C11.0735 12.0686 9.91341 10.9092 9.91341 9.48325C9.91341 8.05728 11.0735 6.8957 12.4994 6.8957ZM12.4994 12.9312C14.4007 12.9312 15.9476 11.3838 15.9476 9.48325C15.9476 7.58051 14.4007 6.03536 12.4994 6.03536C10.5982 6.03536 9.05132 7.58051 9.05132 9.48325C9.05132 11.3838 10.5982 12.9312 12.4994 12.9312Z" fill="#3E8180"/>
<path d="M12.2796 10.1335H13.2851C13.5233 10.1335 13.7162 9.94067 13.7162 9.70229C13.7162 9.4639 13.5233 9.27103 13.2851 9.27103H12.7106V8.19396C12.7106 7.95558 12.5177 7.76271 12.2796 7.76271C12.0416 7.76271 11.8485 7.95558 11.8485 8.19396V9.70229C11.8485 9.94067 12.0416 10.1335 12.2796 10.1335Z" fill="#3E8180"/>
</svg>
