<svg width="25" height="25" viewBox="0 0 25 25" fill="none" xmlns="http://www.w3.org/2000/svg">
<path d="M4.91989 8.62049L12.4998 1.03969L20.0797 8.62049H18.2818L12.8045 3.14403C12.6361 2.97499 12.3635 2.97499 12.1951 3.14403L6.71779 8.62049H4.91989ZM22.8154 12.9332L24.1341 15.5121L18.642 15.5164V12.931L22.8154 12.9332ZM22.8444 24.1375H18.642V16.379H22.8444V24.1375ZM17.7799 12.4997V24.1375H15.5169V18.1019C15.5169 17.6273 15.1303 17.2415 14.6548 17.2415H10.3448C9.86928 17.2415 9.48268 17.6273 9.48268 18.1019V24.1375H7.21971V15.9477V12.4997V9.33781L12.4998 4.0564L17.7799 9.33781V12.4997ZM14.6548 24.1375H10.3448V18.1019H14.6548V24.1375ZM6.35782 15.5164H1.72417C1.71919 15.5164 1.71508 15.5186 1.70988 15.5186L0.862076 15.5208L2.19467 12.931H6.35782V15.5164ZM6.35782 24.1375H2.15523V16.379H6.35782V24.1375ZM2.19467 12.0685C1.86396 12.0685 1.56598 12.2505 1.41644 12.5409L0.0944641 15.1285C-0.042068 15.3951 -0.0299323 15.7071 0.126538 15.9629C0.285825 16.2229 0.564739 16.379 0.872478 16.379H1.29313V24.5687C1.29313 24.8071 1.48622 25 1.72417 25H6.78865H9.91372H15.0859H18.211H23.2754C23.5134 25 23.7065 24.8071 23.7065 24.5687V16.379H24.1271C24.4349 16.379 24.7138 16.2229 24.8731 15.9629C25.0295 15.7071 25.0417 15.3951 24.9052 15.1285L23.583 12.5409C23.4337 12.2505 23.1357 12.0685 22.8052 12.0685H18.642V9.48302H21.1204C21.2947 9.48302 21.4518 9.37683 21.5185 9.21646C21.5853 9.05392 21.5484 8.86971 21.4251 8.74618L12.8045 0.125156C12.6361 -0.0417156 12.3635 -0.0417156 12.1951 0.125156L3.57452 8.74618C3.45121 8.86971 3.41436 9.05392 3.48111 9.21646C3.54786 9.37683 3.70498 9.48302 3.87944 9.48302H6.35782V12.0685H2.19467Z" fill="#3E8180"/>
<path d="M12.9307 10.7746H14.1625C14.0058 11.377 13.5336 11.8495 12.9307 12.0077V10.7746ZM12.9307 8.68108C13.5336 8.83712 14.0058 9.30955 14.1625 9.91419H12.9307V8.68108ZM12.0686 9.91419H10.8368C10.9935 9.30955 11.4657 8.83712 12.0686 8.68108V9.91419ZM12.0686 12.0077C11.4657 11.8495 10.9935 11.377 10.8368 10.7746H12.0686V12.0077ZM9.91357 10.3433C9.91357 11.7693 11.0737 12.9309 12.4997 12.9309C13.9257 12.9309 15.0858 11.7693 15.0858 10.3433C15.0858 8.91731 13.9257 7.75785 12.4997 7.75785C11.0737 7.75785 9.91357 8.91731 9.91357 10.3433Z" fill="#3E8180"/>
</svg>
