<svg width="54" height="50" viewBox="0 0 54 50" fill="none" xmlns="http://www.w3.org/2000/svg">
<path d="M33.5514 40.7429H33.5581C33.5581 40.7429 32.4471 41.4964 31.188 43.1335C31.0938 43.2561 30.9961 43.383 30.9052 43.5129C30.2891 44.366 29.6596 45.4194 29.1142 46.696C29.0604 46.825 29.0065 46.9573 28.956 47.0886H24.0947C23.6267 45.7396 23.0476 44.601 22.4551 43.6564C22.1824 43.3409 21.94 42.9968 21.7448 42.6275C20.4284 40.8607 19.2367 40.0494 19.2367 40.0494H19.2434C15.2439 37.4874 12.5877 33.0099 12.5877 27.9061C12.5877 21.2639 17.0787 15.6686 23.1958 13.9988C24.4077 13.6689 25.6837 13.4905 27.0034 13.4905C34.962 13.4905 41.4157 19.9442 41.4157 27.9061C41.4157 33.5048 38.2175 38.3527 33.5514 40.7429Z" fill="#FFB88D"/>
<path d="M33.5514 40.7429H33.5581C33.5581 40.7429 32.4471 41.4964 31.188 43.1335C31.0938 43.2561 30.9961 43.383 30.9052 43.5129C30.2891 44.366 29.6596 45.4194 29.1142 46.696H25.3066C24.8387 45.3508 24.2562 44.2105 23.6671 43.2658C23.391 42.9504 23.1554 42.6073 22.9567 42.2366C21.6438 40.4736 20.4486 39.6589 20.4486 39.6589H20.4554C16.4559 37.1003 13.7997 32.6193 13.7997 27.519C13.7997 21.3177 17.7116 16.0356 23.1958 13.9988C24.4077 13.6689 25.6837 13.4905 27.0034 13.4905C27.266 13.4905 27.5218 13.4972 27.7811 13.514C35.3828 13.9214 41.4157 20.2068 41.4157 27.9061C41.4157 33.5048 38.2175 38.3527 33.5514 40.7429Z" fill="#FCDABC"/>
<path d="M33.5514 40.7429H33.5581C33.5581 40.7429 32.4471 41.4964 31.188 43.1335C31.0938 43.2561 30.9961 43.383 30.9052 43.5129C30.2891 44.366 29.6596 45.4194 29.1142 46.696H26.8351C26.458 45.608 26.0069 44.6552 25.5355 43.8274C25.4211 43.6348 25.3066 43.4493 25.1955 43.2658C24.9228 42.9504 24.6804 42.6073 24.4885 42.2366C23.1722 40.4736 21.9771 39.6589 21.9771 39.6589H21.9838C17.9809 37.1003 15.3281 32.6193 15.3281 27.519C15.3281 21.3177 19.24 16.0356 24.7276 13.9988C25.7039 13.7328 26.7273 13.5645 27.7811 13.514C32.6121 13.7699 36.8069 16.3992 39.2241 20.2606C40.6111 22.4759 41.4157 25.095 41.4157 27.9061C41.4157 33.5048 38.2175 38.3527 33.5514 40.7429Z" fill="#E87F3F"/>
<path d="M28.0101 11.5715H25.0239V0.199145H28.0101V11.5715Z" fill="#E87F3F"/>
<path d="M54.0001 26.7817H42.6279V23.7888H54.0001V26.7817Z" fill="#E87F3F"/>
<path d="M11.3757 26.7817H0V23.7888H11.3757V26.7817Z" fill="#E87F3F"/>
<path d="M38.0426 16.0052L35.9284 13.891L44.5805 5.23559L46.6947 7.34979L38.0426 16.0052Z" fill="#E87F3F"/>
<path d="M14.6445 16.4227L5.98907 7.76727L8.10331 5.65303L16.7588 14.3085L14.6445 16.4227Z" fill="#E87F3F"/>
<path d="M33.5513 40.7429H33.558C33.558 40.7429 32.447 41.4964 31.1879 43.1335C31.0937 43.2561 30.996 43.383 30.9051 43.5129C30.289 44.366 29.6595 45.4194 29.1141 46.696H26.835C26.4579 45.608 26.0068 44.6552 25.5354 43.8274C41.5065 36.3192 39.2206 20.2606 39.2206 20.2606H39.224C40.611 22.4759 41.4156 25.095 41.4156 27.9061C41.4156 33.5048 38.2174 38.3527 33.5513 40.7429Z" fill="#FFB88D"/>
<path d="M31.3965 44.6802C31.3965 45.2367 30.9454 45.6888 30.3899 45.6888H22.8454C22.2899 45.6888 21.8388 45.2367 21.8388 44.6802C21.8388 44.1267 22.2899 43.6742 22.8454 43.6742H30.3899C30.9454 43.6742 31.3965 44.1267 31.3965 44.6802Z" fill="#474545"/>
<path d="M31.3965 46.696C31.3965 47.2565 30.9454 47.7053 30.3899 47.7053H22.8454C22.2899 47.7053 21.8388 47.2565 21.8388 46.696C21.8388 46.1418 22.2899 45.6887 22.8454 45.6887H30.3899C30.9454 45.6887 31.3965 46.1418 31.3965 46.696Z" fill="#5D5B5A"/>
<path d="M29.8782 48.3938C29.8782 48.7719 29.5719 49.0809 29.1915 49.0809H24.0406C23.6636 49.0809 23.3539 48.7719 23.3539 48.3938C23.3539 48.011 23.6636 47.7053 24.0406 47.7053H29.1915C29.5719 47.7053 29.8782 48.011 29.8782 48.3938Z" fill="#5D5B5A"/>
</svg>
