<svg width="442" height="417" viewBox="0 0 442 417" fill="none" xmlns="http://www.w3.org/2000/svg">
<ellipse cx="221" cy="208.5" rx="221" ry="208.5" fill="url(#paint0_radial_1_964)"/>
<g filter="url(#filter0_d_1_964)">
<g filter="url(#filter1_d_1_964)">
<path d="M188.222 218.655L265.939 176.548V174.749H110.5V176.548L188.222 218.655Z" fill="#244A4A"/>
</g>
<path d="M188.222 216.855L265.939 174.749L188.218 132.642L110.5 174.749L188.222 216.855Z" fill="#3E8180"/>
<path d="M140.288 162.041L189.276 136.234L237.792 162.123L188.805 188.398L140.288 162.041Z" fill="#EFF3F3"/>
<path d="M188.806 192.633L237.792 166.356V162.123L188.806 188.398V192.633Z" fill="#C1382A"/>
<path d="M188.805 192.633L140.288 166.275V162.041L188.805 188.398V192.633Z" fill="#D35400"/>
<path d="M188.975 187.628V133.997L165.446 108.463L141.917 108.562V162.192L188.975 187.628Z" fill="#AAB7B7"/>
<path d="M188.975 187.628V133.997L236.032 108.562V162.192L188.975 187.628Z" fill="#DBDBDB"/>
<path d="M164.428 108.446L188.975 135.084L238.067 108.548L213.521 81.9107L164.428 108.446Z" fill="#E87F3F"/>
<path d="M164.428 108.446L139.882 108.549L188.975 82.013L213.52 81.9108L164.428 108.446Z" fill="#C1382A"/>
<path d="M164.428 108.446L139.882 108.549L141.872 110.418L163.525 110.328L186.985 135.786L188.975 135.084L164.428 108.446Z" fill="#DBDBDB"/>
<path d="M220.32 148.613L228.979 143.907L229.457 144.308L220.799 161.396L220.32 160.995V148.613Z" fill="#EFF3F3"/>
<path d="M220.799 149.014L229.457 144.308V156.691L220.799 161.396V149.014Z" fill="#BDC3C7"/>
<path d="M228.439 156.136V145.971L221.817 149.57V159.734L228.439 156.136Z" fill="#566472"/>
<path d="M229.091 148.574V149.553L221.277 153.801V152.821L229.091 148.574Z" fill="#BDC3C7"/>
<path d="M229.091 152.13V153.11L221.277 157.357V156.379L229.091 152.13Z" fill="#BDC3C7"/>
<path d="M224.682 147.5L225.663 146.968V158.002L224.682 158.535V147.5Z" fill="#BDC3C7"/>
<path d="M203.176 157.928L211.834 153.222L212.311 153.623L203.653 170.711L203.176 170.31V157.928Z" fill="#EFF3F3"/>
<path d="M203.653 158.329L212.311 153.623V166.005L203.653 170.711V158.329Z" fill="#BDC3C7"/>
<path d="M211.293 165.45V155.285L204.671 158.885L204.672 169.049L211.293 165.45Z" fill="#566472"/>
<path d="M211.946 157.888V158.868L204.13 163.115V162.136L211.946 157.888Z" fill="#BDC3C7"/>
<path d="M211.946 161.446V162.425L204.13 166.672V165.693L211.946 161.446Z" fill="#BDC3C7"/>
<path d="M207.538 156.815L208.517 156.283V167.317L207.538 167.849V156.815Z" fill="#BDC3C7"/>
<path d="M220.32 124.079L228.979 119.374L229.457 119.774L220.799 136.862L220.32 136.462V124.079Z" fill="#EFF3F3"/>
<path d="M220.799 124.48L229.457 119.774V132.157L220.799 136.862V124.48Z" fill="#BDC3C7"/>
<path d="M228.439 131.601V121.437L221.817 125.036V135.2L228.439 131.601Z" fill="#566472"/>
<path d="M229.091 124.04V125.018L221.277 129.266V128.287L229.091 124.04Z" fill="#BDC3C7"/>
<path d="M229.091 127.597V128.575L221.277 132.823V131.844L229.091 127.597Z" fill="#BDC3C7"/>
<path d="M224.682 122.966L225.663 122.433V133.468L224.682 134V122.966Z" fill="#BDC3C7"/>
<path d="M203.176 133.394L211.834 128.688L212.311 129.089L203.653 146.177L203.176 145.776V133.394Z" fill="#EFF3F3"/>
<path d="M203.653 133.794L212.311 129.089V141.471L203.653 146.177V133.794Z" fill="#BDC3C7"/>
<path d="M211.293 140.915V130.751L204.671 134.351L204.672 144.514L211.293 140.915Z" fill="#566472"/>
<path d="M211.946 133.354V134.333L204.13 138.58V137.602L211.946 133.354Z" fill="#BDC3C7"/>
<path d="M211.946 136.911V137.89L204.13 142.137V141.159L211.946 136.911Z" fill="#BDC3C7"/>
<path d="M207.538 132.281L208.517 131.748V142.782L207.538 143.315V132.281Z" fill="#BDC3C7"/>
<path d="M168.62 153.614L159.962 148.908L159.483 149.309L168.143 177.051L168.62 176.651V153.614Z" fill="#EFF3F3"/>
<path d="M168.143 154.014L159.483 149.309V176.726L168.143 181.432V154.014Z" fill="#D35400"/>
<path d="M160.503 177.262V150.971L167.123 154.57V180.86L160.503 177.262Z" fill="#C1382A"/>
<path d="M181.92 160.872L173.262 156.166L172.785 156.567L181.443 173.655L181.92 173.254V160.872Z" fill="#EFF3F3"/>
<path d="M181.443 161.273L172.785 156.567V168.949L181.443 173.655V161.273Z" fill="#BDC3C7"/>
<path d="M173.803 168.394V158.23L180.424 161.828V171.993L173.803 168.394Z" fill="#566472"/>
<path d="M173.149 160.833V161.811L180.965 166.059V165.08L173.149 160.833Z" fill="#BDC3C7"/>
<path d="M173.149 164.389V165.368L180.965 169.615V168.637L173.149 164.389Z" fill="#BDC3C7"/>
<path d="M177.559 159.759L176.579 159.226V170.26L177.559 170.793V159.759Z" fill="#BDC3C7"/>
<path d="M155.668 146.796L147.009 142.09L146.532 142.491L155.19 159.579L155.668 159.178V146.796Z" fill="#EFF3F3"/>
<path d="M155.19 147.197L146.532 142.491V154.873L155.19 159.579V147.197Z" fill="#BDC3C7"/>
<path d="M147.55 154.318V144.154L154.171 147.753V157.917L147.55 154.318Z" fill="#566472"/>
<path d="M146.897 146.757V147.736L154.712 151.984V151.004L146.897 146.757Z" fill="#BDC3C7"/>
<path d="M146.897 150.314V151.292L154.712 155.54V154.561L146.897 150.314Z" fill="#BDC3C7"/>
<path d="M151.306 145.683L150.326 145.15V156.185L151.306 156.717V145.683Z" fill="#BDC3C7"/>
<path d="M165.168 126.325L156.509 121.619L156.032 122.02L164.69 139.108L165.168 138.707V126.325Z" fill="#EFF3F3"/>
<path d="M164.69 126.725L156.032 122.02V134.402L164.69 139.108V126.725Z" fill="#BDC3C7"/>
<path d="M157.05 133.847V123.683L163.672 127.282L163.671 137.446L157.05 133.847Z" fill="#566472"/>
<path d="M156.397 126.286V127.264L164.213 131.512V130.533L156.397 126.286Z" fill="#BDC3C7"/>
<path d="M156.397 129.842V130.821L164.213 135.068V134.09L156.397 129.842Z" fill="#BDC3C7"/>
<path d="M160.805 125.212L159.826 124.679V135.713L160.805 136.246V125.212Z" fill="#BDC3C7"/>
<path d="M172.765 130.426L164.107 125.72L163.629 126.121L172.288 143.209L172.765 142.808V130.426Z" fill="#EFF3F3"/>
<path d="M172.288 130.826L163.629 126.121V138.503L172.288 143.209V130.826Z" fill="#BDC3C7"/>
<path d="M164.648 137.947V127.783L171.27 131.382L171.269 141.547L164.648 137.947Z" fill="#566472"/>
<path d="M163.995 130.386V131.365L171.81 135.612V134.634L163.995 130.386Z" fill="#BDC3C7"/>
<path d="M163.995 133.943V134.921L171.81 139.169V138.19L163.995 133.943Z" fill="#BDC3C7"/>
<path d="M168.403 129.313L167.424 128.78V139.814L168.403 140.347V129.313Z" fill="#BDC3C7"/>
<path d="M149.249 149.942V148.367L171.936 148.74V152.77L164.544 158.16L149.249 149.942Z" fill="#DBDBDB"/>
<path d="M149.249 148.367L156.64 140.522L171.936 148.74L164.544 156.585L149.249 148.367Z" fill="#D35400"/>
<path d="M220.413 167.009C221.274 167.009 221.971 167.339 221.971 167.747C221.971 168.059 221.971 189.861 221.971 190.174C221.971 190.282 221.922 190.385 221.833 190.477V190.423C221.705 190.557 221.496 190.67 221.235 190.746V190.801C220.996 190.87 220.714 190.911 220.413 190.911C219.552 190.911 218.854 190.582 218.854 190.174C218.854 189.861 218.854 168.059 218.854 167.747C218.854 167.339 219.552 167.009 220.413 167.009Z" fill="#D35400"/>
<path d="M220.585 144.619C224.356 144.619 230.66 172.203 230.66 176.008C230.66 178.641 228.186 183.942 220.585 183.942C213.38 183.942 210.51 178.641 210.51 176.008C210.51 172.203 217.8 144.619 220.585 144.619Z" fill="#43761C"/>
<path d="M220.224 176.326C219.363 168.902 220.593 144.71 220.593 144.71C224.364 144.73 230.759 172.206 230.66 176.008C230.555 180.075 220.78 181.125 220.224 176.326Z" fill="#7BA525"/>
<path d="M225.83 175.39C227.718 175.334 229.498 174.433 229.491 173.533C229.469 170.491 225.062 150.231 222.112 145.905C220.426 144.062 222.136 169.02 222.865 173.894C223.083 175.357 225.189 175.409 225.83 175.39Z" fill="#9BBE23"/>
<path d="M219.826 180.75C226.338 181.504 229.42 179.763 229.42 179.763C228.011 181.925 225.273 183.942 220.585 183.942C213.767 183.942 210.835 179.2 210.54 176.459C211.266 177.975 215.296 180.225 219.826 180.75Z" fill="#396910"/>
<path d="M222.471 154.666C223.335 158.596 224.626 161.666 225.353 161.524C226.081 161.381 225.969 158.08 225.104 154.15C224.24 150.22 222.949 147.151 222.222 147.293C221.494 147.435 221.606 150.736 222.471 154.666Z" fill="#C3DE59"/>
<path d="M201.593 177.961C202.453 177.961 203.152 178.292 203.152 178.699C203.152 179.012 203.152 200.813 203.152 201.127C203.152 201.235 203.102 201.337 203.014 201.43V201.376C202.886 201.51 202.676 201.622 202.414 201.699V201.753C202.177 201.824 201.895 201.864 201.593 201.864C200.732 201.864 200.035 201.534 200.035 201.127C200.035 200.813 200.035 179.012 200.035 178.699C200.035 178.292 200.732 177.961 201.593 177.961Z" fill="#D35400"/>
<path d="M201.766 165.564C205.537 165.564 211.841 183.155 211.841 186.96C211.841 189.594 209.367 194.894 201.766 194.894C194.561 194.894 191.691 189.594 191.691 186.96C191.691 183.155 198.98 165.564 201.766 165.564Z" fill="#43761C"/>
<path d="M201.404 187.279C200.544 179.854 201.772 165.566 201.772 165.566C205.544 165.586 211.94 183.159 211.841 186.961C211.736 191.028 201.96 192.077 201.404 187.279Z" fill="#7BA525"/>
<path d="M207.01 186.343C208.898 186.288 210.678 185.385 210.672 184.486C210.648 181.444 206.518 171.478 203.568 167.151C201.881 165.309 203.316 179.972 204.046 184.848C204.263 186.31 206.369 186.362 207.01 186.343Z" fill="#9BBE23"/>
<path d="M201.007 191.703C207.518 192.457 210.601 190.715 210.601 190.715C209.191 192.878 206.454 194.894 201.766 194.894C194.948 194.894 192.016 190.152 191.721 187.411C192.447 188.928 196.476 191.178 201.007 191.703Z" fill="#396910"/>
<path d="M204.389 173.324C205.301 175.832 206.461 177.73 206.978 177.563C207.496 177.395 207.175 175.225 206.263 172.718C205.351 170.209 204.192 168.311 203.674 168.479C203.157 168.647 203.477 170.815 204.389 173.324Z" fill="#C3DE59"/>
<path d="M246.78 147.68C247.751 147.68 248.538 148.052 248.538 148.511C248.538 148.864 248.538 173.453 248.538 173.806C248.538 173.928 248.482 174.043 248.382 174.149V174.087C248.238 174.239 248.003 174.366 247.707 174.452V174.513C247.438 174.592 247.121 174.638 246.78 174.638C245.811 174.638 245.024 174.266 245.024 173.806C245.024 173.453 245.024 148.864 245.024 148.511C245.024 148.052 245.811 147.68 246.78 147.68Z" fill="#D35400"/>
<path d="M246.793 137.417C252.891 137.417 255.32 141.902 255.32 144.131V152.593V155.525C255.32 157.753 253.225 162.239 246.793 162.239C240.694 162.239 238.265 157.753 238.265 155.525V154.172V152.593V144.131C238.265 141.902 240.36 137.417 246.793 137.417Z" fill="#43761C"/>
<path d="M239.673 141.743C239.862 143.886 243.013 145.425 246.712 145.181C250.409 144.938 253.254 143.002 253.063 140.86C252.874 138.717 249.721 137.178 246.024 137.422C242.327 137.666 239.482 139.6 239.673 141.743Z" fill="#7BA525"/>
<path d="M241.297 139.99C241.482 140.896 243.345 141.313 245.456 140.924C247.568 140.535 249.129 139.485 248.943 138.581C248.758 137.675 246.895 137.257 244.783 137.646C242.672 138.036 241.111 139.085 241.297 139.99Z" fill="#9BBE23"/>
<path d="M243.126 138.808C243.197 139.15 243.903 139.309 244.703 139.161C245.503 139.013 246.095 138.616 246.024 138.273C245.954 137.93 245.248 137.772 244.448 137.918C243.647 138.066 243.056 138.464 243.126 138.808Z" fill="#C3DE59"/>
<path d="M246.793 159.004C252.359 159.004 254.719 157.222 255.297 155.94C255.058 158.265 252.849 162.239 246.793 162.239C241.023 162.239 238.541 158.226 238.291 155.906C238.906 157.19 241.469 159.004 246.793 159.004Z" fill="#396910"/>
<path d="M242.577 158.162C242.778 158.162 242.974 158.14 243.165 158.109V163.265C243.165 163.536 243.399 163.756 243.687 163.756H245.902C246.177 163.756 246.396 163.554 246.417 163.301C247.045 163.603 247.744 163.766 248.452 163.776C248.203 164.889 247.156 165.724 245.902 165.724H243.687C242.247 165.724 241.079 164.623 241.079 163.265V157.988C241.559 158.102 242.063 158.162 242.577 158.162Z" fill="#D35400"/>
<path d="M241.962 150.004C245.531 150.004 246.953 152.629 246.953 153.933V158.886V160.601C246.953 161.905 245.728 164.53 241.962 164.53C238.393 164.53 236.972 161.905 236.972 160.601V159.81V158.886V153.933C236.972 152.629 238.197 150.004 241.962 150.004Z" fill="#61913D"/>
<path d="M237.795 152.535C237.906 153.79 239.751 154.69 241.915 154.547C244.079 154.404 245.743 153.272 245.632 152.018C245.522 150.764 243.677 149.863 241.513 150.006C239.348 150.149 237.684 151.281 237.795 152.535Z" fill="#9BC04E"/>
<path d="M238.745 151.509C238.855 152.039 239.944 152.283 241.18 152.056C242.416 151.828 243.329 151.214 243.221 150.684C243.113 150.154 242.022 149.91 240.786 150.138C239.55 150.366 238.637 150.979 238.745 151.509Z" fill="#BAD950"/>
<path d="M239.816 150.817C239.857 151.018 240.271 151.11 240.739 151.024C241.208 150.938 241.554 150.704 241.513 150.504C241.471 150.304 241.058 150.211 240.589 150.297C240.121 150.383 239.775 150.616 239.816 150.817Z" fill="#E4F991"/>
<path d="M241.962 162.637C245.22 162.637 246.601 161.595 246.939 160.845C246.799 162.205 245.507 164.53 241.962 164.53C238.585 164.53 237.133 162.182 236.986 160.824C237.346 161.576 238.846 162.637 241.962 162.637Z" fill="#55842C"/>
<path d="M168.132 188.422C165.254 188.422 163.025 187.05 163.025 186.089C163.025 184.778 163.025 182.985 163.025 182.985C163.025 181.65 164.279 178.964 168.132 178.964C171.785 178.964 173.24 181.65 173.24 182.985C173.24 182.985 173.24 185.158 173.24 186.128C173.24 187.065 171.115 188.422 168.132 188.422Z" fill="#61913D"/>
<path d="M163.867 181.555C163.981 182.839 165.869 183.761 168.083 183.614C170.299 183.468 172.002 182.309 171.888 181.026C171.775 179.743 169.886 178.821 167.672 178.967C165.457 179.112 163.754 180.272 163.867 181.555Z" fill="#9BC04E"/>
<path d="M164.84 180.505C164.951 181.048 166.067 181.298 167.331 181.065C168.597 180.831 169.532 180.203 169.421 179.661C169.309 179.119 168.193 178.868 166.929 179.102C165.664 179.335 164.729 179.963 164.84 180.505Z" fill="#BAD950"/>
<path d="M165.936 179.796C165.978 180.002 166.401 180.097 166.88 180.009C167.36 179.92 167.714 179.682 167.671 179.477C167.629 179.271 167.206 179.176 166.728 179.264C166.248 179.353 165.894 179.591 165.936 179.796Z" fill="#E4F991"/>
<path d="M177.006 193.949C173.186 193.949 170.227 192.128 170.227 190.853C170.227 189.113 170.227 186.733 170.227 186.733C170.227 184.962 171.891 181.396 177.006 181.396C181.854 181.396 183.784 184.962 183.784 186.733C183.784 186.733 183.784 189.617 183.784 190.904C183.784 192.147 180.965 193.949 177.006 193.949Z" fill="#43761C"/>
<path d="M171.346 184.835C171.496 186.539 174.002 187.762 176.942 187.568C179.881 187.374 182.141 185.836 181.991 184.133C181.839 182.429 179.335 181.205 176.395 181.4C173.456 181.593 171.195 183.132 171.346 184.835Z" fill="#7BA525"/>
<path d="M172.636 183.441C172.784 184.161 174.264 184.493 175.943 184.184C177.622 183.874 178.863 183.04 178.715 182.321C178.568 181.601 177.087 181.269 175.408 181.579C173.73 181.888 172.489 182.722 172.636 183.441Z" fill="#9BBE23"/>
<path d="M174.091 182.501C174.147 182.774 174.707 182.9 175.344 182.782C175.98 182.665 176.45 182.349 176.394 182.076C176.339 181.804 175.777 181.678 175.141 181.795C174.505 181.912 174.035 182.229 174.091 182.501Z" fill="#C3DE59"/>
<path d="M184.8 196.406C182.218 196.406 180.218 195.174 180.218 194.312C180.218 193.136 180.218 191.527 180.218 191.527C180.218 190.331 181.344 187.92 184.8 187.92C188.077 187.92 189.381 190.331 189.381 191.527C189.381 191.527 189.381 193.477 189.381 194.347C189.381 195.187 187.476 196.406 184.8 196.406Z" fill="#61913D"/>
<path d="M180.974 190.245C181.076 191.396 182.769 192.223 184.756 192.092C186.743 191.961 188.271 190.921 188.169 189.77C188.067 188.619 186.374 187.792 184.387 187.923C182.4 188.054 180.872 189.094 180.974 190.245Z" fill="#9BC04E"/>
<path d="M181.847 189.304C181.946 189.79 182.947 190.014 184.082 189.805C185.217 189.595 186.055 189.032 185.955 188.545C185.855 188.06 184.855 187.835 183.72 188.044C182.586 188.254 181.747 188.817 181.847 189.304Z" fill="#BAD950"/>
<path d="M182.83 188.667C182.868 188.852 183.246 188.937 183.677 188.858C184.107 188.779 184.424 188.564 184.387 188.381C184.349 188.196 183.969 188.111 183.54 188.19C183.11 188.269 182.792 188.483 182.83 188.667Z" fill="#E4F991"/>
<path d="M137.612 172.001C134.734 172.001 132.505 170.629 132.505 169.668C132.505 168.357 132.505 166.564 132.505 166.564C132.505 165.229 133.759 162.543 137.612 162.543C141.266 162.543 142.72 165.229 142.72 166.564C142.72 166.564 142.72 168.737 142.72 169.707C142.72 170.643 140.597 172.001 137.612 172.001Z" fill="#61913D"/>
<path d="M133.348 165.134C133.462 166.418 135.35 167.34 137.564 167.193C139.779 167.047 141.482 165.888 141.369 164.605C141.255 163.322 139.367 162.4 137.153 162.546C134.937 162.691 133.234 163.851 133.348 165.134Z" fill="#9BC04E"/>
<path d="M134.321 164.084C134.433 164.627 135.548 164.877 136.812 164.643C138.077 164.41 139.012 163.782 138.901 163.24C138.789 162.697 137.674 162.447 136.409 162.681C135.145 162.914 134.21 163.542 134.321 164.084Z" fill="#BAD950"/>
<path d="M135.416 163.375C135.458 163.58 135.881 163.676 136.361 163.587C136.84 163.499 137.195 163.261 137.153 163.056C137.111 162.85 136.688 162.755 136.208 162.843C135.729 162.931 135.374 163.17 135.416 163.375Z" fill="#E4F991"/>
<path d="M146.486 177.528C142.667 177.528 139.708 175.707 139.708 174.431C139.708 172.692 139.708 170.312 139.708 170.312C139.708 168.541 141.373 164.975 146.486 164.975C151.334 164.975 153.265 168.541 153.265 170.312C153.265 170.312 153.265 173.196 153.265 174.483C153.265 175.726 150.446 177.528 146.486 177.528Z" fill="#43761C"/>
<path d="M140.826 168.414C140.977 170.118 143.482 171.341 146.422 171.147C149.361 170.953 151.621 169.415 151.471 167.712C151.32 166.008 148.815 164.784 145.875 164.979C142.936 165.172 140.675 166.711 140.826 168.414Z" fill="#7BA525"/>
<path d="M142.117 167.02C142.265 167.74 143.745 168.072 145.424 167.763C147.103 167.453 148.344 166.619 148.195 165.9C148.048 165.18 146.567 164.848 144.888 165.158C143.211 165.467 141.969 166.301 142.117 167.02Z" fill="#9BBE23"/>
<path d="M143.572 166.079C143.627 166.352 144.189 166.478 144.824 166.361C145.461 166.244 145.931 165.928 145.875 165.655C145.819 165.383 145.258 165.257 144.622 165.374C143.986 165.491 143.516 165.808 143.572 166.079Z" fill="#C3DE59"/>
<path d="M154.281 179.985C151.699 179.985 149.699 178.753 149.699 177.891C149.699 176.715 149.699 175.106 149.699 175.106C149.699 173.91 150.824 171.499 154.281 171.499C157.557 171.499 158.862 173.91 158.862 175.106C158.862 175.106 158.862 177.056 158.862 177.926C158.862 178.766 156.957 179.985 154.281 179.985Z" fill="#61913D"/>
<path d="M150.455 173.824C150.557 174.975 152.251 175.802 154.236 175.671C156.224 175.54 157.752 174.501 157.65 173.349C157.548 172.198 155.854 171.371 153.867 171.502C151.88 171.633 150.353 172.673 150.455 173.824Z" fill="#9BC04E"/>
<path d="M151.327 172.882C151.427 173.369 152.428 173.593 153.562 173.383C154.697 173.175 155.536 172.61 155.436 172.124C155.336 171.639 154.335 171.414 153.2 171.623C152.067 171.832 151.227 172.396 151.327 172.882Z" fill="#BAD950"/>
<path d="M152.31 172.246C152.348 172.431 152.727 172.516 153.157 172.437C153.587 172.357 153.905 172.143 153.867 171.959C153.829 171.775 153.451 171.69 153.02 171.769C152.59 171.848 152.273 172.062 152.31 172.246Z" fill="#E4F991"/>
<path d="M129.072 148.72C129.932 148.72 130.63 149.049 130.63 149.457C130.63 149.77 130.63 171.571 130.63 171.884C130.63 171.992 130.58 172.094 130.492 172.188V172.133C130.365 172.267 130.155 172.38 129.893 172.457V172.51C129.655 172.581 129.374 172.621 129.072 172.621C128.212 172.621 127.514 172.292 127.514 171.884C127.514 171.571 127.514 149.77 127.514 149.457C127.514 149.049 128.212 148.72 129.072 148.72Z" fill="#D35400"/>
<path d="M129.246 136.323C133.017 136.323 139.32 153.913 139.32 157.719C139.32 160.351 136.846 165.651 129.246 165.651C122.039 165.651 119.169 160.351 119.169 157.719C119.169 153.913 126.459 136.323 129.246 136.323Z" fill="#43761C"/>
<path d="M128.884 158.036C128.023 150.612 129.252 136.324 129.252 136.324C133.024 136.344 139.419 153.916 139.321 157.719C139.216 161.785 129.44 162.835 128.884 158.036Z" fill="#7BA525"/>
<path d="M134.489 157.1C136.377 157.045 138.156 156.143 138.15 155.244C138.128 152.201 133.996 142.235 131.047 137.909C129.36 136.067 130.795 150.73 131.525 155.605C131.743 157.068 133.849 157.119 134.489 157.1Z" fill="#9BBE23"/>
<path d="M128.486 162.46C134.997 163.214 138.08 161.473 138.08 161.473C136.671 163.635 133.934 165.651 129.246 165.651C122.427 165.651 119.496 160.91 119.199 158.168C119.926 159.686 123.956 161.935 128.486 162.46Z" fill="#396910"/>
<path d="M131.869 144.081C132.781 146.59 133.94 148.487 134.458 148.32C134.975 148.152 134.654 145.983 133.742 143.475C132.829 140.966 131.671 139.069 131.154 139.236C130.636 139.404 130.956 141.573 131.869 144.081Z" fill="#C3DE59"/>
</g>
<path d="M332.723 186.879L305.944 215.941L252.386 186.99L279.165 157.93L332.723 186.879Z" fill="#DBDBDB"/>
<g filter="url(#filter2_d_1_964)">
<path d="M283.229 268.197L368.017 222.26V220.296L211.134 227.268V229.231L283.229 268.197Z" fill="#244A4A"/>
</g>
<path d="M283.229 266.234L368.017 220.296L295.923 181.33L211.134 227.268L283.229 266.234Z" fill="#3E8180"/>
<path d="M349.863 213.404L296.42 185.248L243.489 213.493L296.932 242.159L349.863 213.404Z" fill="#EFF3F3"/>
<path d="M296.932 246.777L243.489 218.112V213.493L296.932 242.159V246.777Z" fill="#AAB7B7"/>
<path d="M296.932 246.777L349.863 218.023V213.404L296.932 242.159V246.777Z" fill="#BDC3C7"/>
<path d="M332.634 188.679V204.244L307.326 217.922V184.219L332.634 188.679Z" fill="#C1382A"/>
<path d="M316.512 183.976L332.98 186.879V189.139L316.512 186.237V183.976Z" fill="#566472"/>
<path d="M319.884 193.654L327.407 189.565L327.823 189.912L320.299 210.957L319.884 210.609V193.654Z" fill="#EFF3F3"/>
<path d="M320.299 194.003L327.823 189.912V206.868L320.299 210.957V194.003Z" fill="#BDC3C7"/>
<path d="M326.938 207.342V191.358L321.184 194.484V210.47L326.938 207.342Z" fill="#566472"/>
<path d="M322.055 180.151V227.64L296.748 241.319V207.614L322.055 180.151Z" fill="#D35400"/>
<path d="M296.748 241.319V207.614L245.41 179.864V213.569L296.748 241.319Z" fill="#C1382A"/>
<path d="M323.527 179.74L296.747 208.801L243.19 179.851L269.969 150.79L323.527 179.74Z" fill="#DBDBDB"/>
<path d="M323.527 179.74V182.861L298.919 209.566L296.748 208.801L323.527 179.74Z" fill="#566472"/>
<path d="M262.551 198.755L253.104 193.621L252.583 194.058L262.029 212.701L262.551 212.263V198.755Z" fill="#EFF3F3"/>
<path d="M262.029 199.192L252.583 194.058V207.567L262.029 212.701V199.192Z" fill="#BDC3C7"/>
<path d="M253.695 206.961V195.872L260.918 199.798V210.887L253.695 206.961Z" fill="#566472"/>
<path d="M252.982 198.712V199.78L261.508 204.414V203.345L252.982 198.712Z" fill="#BDC3C7"/>
<path d="M252.982 202.593V203.66L261.508 208.294V207.226L252.982 202.593Z" fill="#BDC3C7"/>
<path d="M257.792 197.541L256.722 196.96V208.998L257.792 209.579V197.541Z" fill="#BDC3C7"/>
<path d="M281.255 208.917L271.81 203.783L271.289 204.22L280.734 222.862L281.255 222.425V208.917Z" fill="#EFF3F3"/>
<path d="M280.734 209.354L271.289 204.22V217.728L280.734 222.862V209.354Z" fill="#BDC3C7"/>
<path d="M272.4 217.122V206.033L279.624 209.96V221.049L272.4 217.122Z" fill="#566472"/>
<path d="M271.688 208.873V209.942L280.213 214.576V213.507L271.688 208.873Z" fill="#BDC3C7"/>
<path d="M271.688 212.755V213.822L280.213 218.456V217.387L271.688 212.755Z" fill="#BDC3C7"/>
<path d="M276.496 207.702L275.428 207.121V219.16L276.496 219.74V207.702Z" fill="#BDC3C7"/>
<path d="M304.984 212.444L314.431 207.31L314.952 207.747L305.506 226.39L304.985 225.952L304.984 212.444Z" fill="#EFF3F3"/>
<path d="M305.506 212.881L314.952 207.747V221.256L305.506 226.39V212.881Z" fill="#BDC3C7"/>
<path d="M313.841 220.649V209.561L306.617 213.486V224.576L313.841 220.649Z" fill="#566472"/>
<path d="M314.552 212.4V213.468L306.027 218.102V217.034L314.552 212.4Z" fill="#BDC3C7"/>
<path d="M314.552 216.281V217.348L306.027 221.982V220.915L314.552 216.281Z" fill="#BDC3C7"/>
<path d="M309.743 211.229L310.812 210.648V222.686L309.743 223.267V211.229Z" fill="#BDC3C7"/>
<path d="M312.212 196.827L318.503 193.378L319.024 193.815L312.734 203.577L312.213 203.139L312.212 196.827Z" fill="#EFF3F3"/>
<path d="M312.734 197.265L319.024 193.815V200.127L312.734 203.577V197.265Z" fill="#BDC3C7"/>
<path d="M317.913 199.522V195.629L313.845 197.871V201.763L317.913 199.522Z" fill="#566472"/>
<path d="M354.125 218.608L349.233 216.23L324.633 229.357L329.525 231.973L354.125 218.608Z" fill="#EFF3F3"/>
<path d="M329.525 234.12L324.633 231.504V229.357L329.525 231.973V234.12Z" fill="#AAB7B7"/>
<path d="M329.524 234.12L354.125 220.756V218.609L329.524 231.973V234.12Z" fill="#BDC3C7"/>
<path d="M359.882 195.188C360.821 195.188 361.582 195.548 361.582 195.993C361.582 196.334 361.582 220.119 361.582 220.46C361.582 220.578 361.528 220.689 361.432 220.79V220.732C361.293 220.878 361.063 221.001 360.779 221.085V221.143C360.518 221.22 360.211 221.264 359.882 221.264C358.944 221.264 358.183 220.904 358.183 220.46C358.183 220.119 358.183 196.334 358.183 195.993C358.183 195.548 358.944 195.188 359.882 195.188Z" fill="#D35400"/>
<path d="M360.07 181.664C364.185 181.664 371.063 200.853 371.063 205.006C371.063 207.878 368.363 213.66 360.07 213.66C352.21 213.66 349.079 207.878 349.079 205.006C349.079 200.853 357.032 181.664 360.07 181.664Z" fill="#43761C"/>
<path d="M359.676 205.352C358.737 197.253 360.079 181.665 360.079 181.665C364.193 181.686 371.17 200.857 371.064 205.006C370.949 209.443 360.283 210.588 359.676 205.352Z" fill="#7BA525"/>
<path d="M365.791 204.331C367.851 204.271 369.793 203.287 369.786 202.306C369.762 198.986 365.254 188.114 362.036 183.395C360.197 181.384 361.762 197.381 362.557 202.7C362.796 204.296 365.093 204.352 365.791 204.331Z" fill="#9BBE23"/>
<path d="M359.244 210.179C366.347 211.002 369.711 209.102 369.711 209.102C368.173 211.461 365.187 213.66 360.071 213.66C352.632 213.66 349.435 208.488 349.112 205.496C349.905 207.152 354.301 209.606 359.244 210.179Z" fill="#396910"/>
<path d="M362.933 190.128C363.929 192.865 365.194 194.935 365.758 194.752C366.322 194.569 365.973 192.203 364.978 189.466C363.982 186.73 362.717 184.659 362.153 184.842C361.589 185.025 361.938 187.392 362.933 190.128Z" fill="#C3DE59"/>
<path d="M222.885 202.714C223.824 202.714 224.585 203.074 224.585 203.518C224.585 203.859 224.585 227.644 224.585 227.985C224.585 228.103 224.531 228.216 224.434 228.317V228.258C224.295 228.403 224.066 228.527 223.781 228.61V228.67C223.521 228.745 223.214 228.79 222.885 228.79C221.946 228.79 221.186 228.43 221.186 227.985C221.186 227.644 221.186 203.859 221.186 203.518C221.186 203.074 221.946 202.714 222.885 202.714Z" fill="#D35400"/>
<path d="M223.073 189.189C227.187 189.189 234.066 208.38 234.066 212.532C234.066 215.404 231.366 221.186 223.073 221.186C215.212 221.186 212.082 215.404 212.082 212.532C212.082 208.38 220.035 189.189 223.073 189.189Z" fill="#43761C"/>
<path d="M222.678 212.878C221.74 204.778 223.081 189.19 223.081 189.19C227.195 189.212 234.172 208.383 234.066 212.531C233.951 216.968 223.285 218.114 222.678 212.878Z" fill="#7BA525"/>
<path d="M228.794 211.857C230.854 211.796 232.795 210.813 232.789 209.832C232.764 206.512 228.257 195.641 225.039 190.92C223.199 188.91 224.765 204.907 225.56 210.225C225.799 211.821 228.096 211.878 228.794 211.857Z" fill="#9BBE23"/>
<path d="M222.246 217.705C229.349 218.527 232.713 216.627 232.713 216.627C231.175 218.986 228.189 221.186 223.073 221.186C215.635 221.186 212.438 216.013 212.114 213.023C212.907 214.677 217.303 217.132 222.246 217.705Z" fill="#396910"/>
<path d="M225.935 197.654C226.931 200.39 228.196 202.46 228.761 202.278C229.325 202.096 228.975 199.729 227.98 196.992C226.984 194.256 225.72 192.185 225.155 192.368C224.591 192.551 224.94 194.918 225.935 197.654Z" fill="#C3DE59"/>
<path d="M299.189 229.96C300.128 229.96 300.889 230.321 300.889 230.765C300.889 231.107 300.889 254.891 300.889 255.233C300.889 255.351 300.835 255.463 300.739 255.563V255.505C300.599 255.651 300.371 255.773 300.086 255.858V255.916C299.826 255.993 299.518 256.037 299.189 256.037C298.25 256.037 297.489 255.677 297.489 255.233C297.489 254.891 297.489 231.107 297.489 230.765C297.489 230.321 298.25 229.96 299.189 229.96Z" fill="#D35400"/>
<path d="M299.378 205.533C303.492 205.533 310.369 235.626 310.369 239.778C310.369 242.651 307.67 248.433 299.378 248.433C291.517 248.433 288.386 242.651 288.386 239.778C288.386 235.626 296.338 205.533 299.378 205.533Z" fill="#43761C"/>
<path d="M298.983 240.125C298.044 232.025 299.386 205.633 299.386 205.633C303.5 205.656 310.477 235.629 310.369 239.778C310.254 244.216 299.59 245.36 298.983 240.125Z" fill="#7BA525"/>
<path d="M305.098 239.103C307.158 239.043 309.1 238.06 309.093 237.079C309.068 233.759 304.26 211.657 301.043 206.936C299.203 204.927 301.068 232.154 301.864 237.473C302.102 239.069 304.399 239.124 305.098 239.103Z" fill="#9BBE23"/>
<path d="M298.549 244.952C305.654 245.775 309.016 243.874 309.016 243.874C307.48 246.234 304.493 248.433 299.378 248.433C291.939 248.433 288.741 243.26 288.419 240.27C289.212 241.925 293.607 244.379 298.549 244.952Z" fill="#396910"/>
<path d="M301.434 216.495C302.377 220.782 303.786 224.131 304.579 223.976C305.373 223.82 305.251 220.219 304.308 215.932C303.365 211.645 301.957 208.295 301.164 208.45C300.369 208.606 300.491 212.208 301.434 216.495Z" fill="#C3DE59"/>
<path d="M273.269 228.333C274.278 228.333 275.096 228.721 275.096 229.197C275.096 229.564 275.096 255.118 275.096 255.485C275.096 255.612 275.038 255.732 274.934 255.84V255.778C274.785 255.935 274.538 256.067 274.232 256.156V256.22C273.953 256.302 273.623 256.35 273.269 256.35C272.26 256.35 271.443 255.963 271.443 255.485C271.443 255.118 271.443 229.564 271.443 229.197C271.443 228.721 272.26 228.333 273.269 228.333Z" fill="#D35400"/>
<path d="M273.282 217.668C279.62 217.668 282.144 222.329 282.144 224.644V233.44V236.487C282.144 238.802 279.968 243.463 273.282 243.463C266.944 243.463 264.421 238.802 264.421 236.487V235.08V233.44V224.644C264.421 222.329 266.596 217.668 273.282 217.668Z" fill="#43761C"/>
<path d="M265.882 222.164C266.08 224.39 269.355 225.99 273.198 225.737C277.041 225.482 279.996 223.472 279.799 221.245C279.601 219.019 276.326 217.419 272.483 217.672C268.64 217.926 265.685 219.937 265.882 222.164Z" fill="#7BA525"/>
<path d="M267.57 220.342C267.763 221.283 269.699 221.717 271.893 221.312C274.087 220.908 275.71 219.818 275.517 218.877C275.323 217.936 273.389 217.502 271.193 217.907C268.999 218.311 267.376 219.401 267.57 220.342Z" fill="#9BBE23"/>
<path d="M269.471 219.112C269.544 219.468 270.279 219.633 271.11 219.48C271.942 219.326 272.557 218.914 272.483 218.556C272.41 218.2 271.676 218.036 270.844 218.189C270.012 218.342 269.398 218.756 269.471 219.112Z" fill="#C3DE59"/>
<path d="M273.282 240.102C279.067 240.102 281.519 238.25 282.119 236.918C281.871 239.334 279.575 243.463 273.282 243.463C267.285 243.463 264.706 239.293 264.445 236.882C265.086 238.217 267.749 240.102 273.282 240.102Z" fill="#396910"/>
<path d="M268.9 239.227C269.11 239.227 269.312 239.204 269.512 239.172V244.53C269.512 244.812 269.754 245.041 270.054 245.041H272.357C272.642 245.041 272.87 244.831 272.891 244.567C273.544 244.882 274.271 245.051 275.006 245.061C274.747 246.218 273.661 247.086 272.357 247.086H270.054C268.557 247.086 267.344 245.942 267.344 244.53V239.046C267.842 239.164 268.366 239.227 268.9 239.227Z" fill="#D35400"/>
<path d="M278.665 237.885C278.456 237.885 278.253 237.863 278.055 237.829V243.188C278.055 243.47 277.811 243.699 277.512 243.699H275.21C274.924 243.699 274.697 243.489 274.675 243.225C274.022 243.539 273.294 243.709 272.56 243.719C272.819 244.875 273.906 245.745 275.21 245.745H277.512C279.008 245.745 280.221 244.6 280.221 243.188V237.704C279.723 237.822 279.2 237.885 278.665 237.885Z" fill="#D35400"/>
<path d="M268.261 230.747C271.971 230.747 273.448 233.476 273.448 234.831V239.978V241.761C273.448 243.118 272.174 245.845 268.261 245.845C264.552 245.845 263.075 243.118 263.075 241.761V240.939V239.978V234.831C263.075 233.476 264.349 230.747 268.261 230.747Z" fill="#61913D"/>
<path d="M263.93 233.379C264.046 234.683 265.964 235.618 268.212 235.47C270.461 235.322 272.192 234.145 272.076 232.841C271.96 231.539 270.044 230.602 267.794 230.751C265.545 230.899 263.816 232.076 263.93 233.379Z" fill="#9BC04E"/>
<path d="M264.919 232.313C265.032 232.863 266.165 233.117 267.449 232.881C268.733 232.644 269.683 232.007 269.57 231.455C269.457 230.905 268.325 230.651 267.039 230.888C265.755 231.124 264.806 231.763 264.919 232.313Z" fill="#BAD950"/>
<path d="M266.032 231.593C266.074 231.802 266.503 231.898 266.991 231.808C267.478 231.719 267.837 231.477 267.794 231.268C267.752 231.059 267.323 230.963 266.835 231.053C266.348 231.143 265.989 231.385 266.032 231.593Z" fill="#E4F991"/>
<path d="M268.261 243.878C271.648 243.878 273.082 242.794 273.433 242.015C273.289 243.429 271.945 245.845 268.261 245.845C264.752 245.845 263.243 243.405 263.09 241.993C263.464 242.775 265.024 243.878 268.261 243.878Z" fill="#55842C"/>
<path d="M279.375 231.632C282.428 231.632 283.644 233.877 283.644 234.994V239.23V240.698C283.644 241.813 282.595 244.059 279.375 244.059C276.321 244.059 275.106 241.813 275.106 240.698V240.021V239.23V234.994C275.106 233.877 276.153 231.632 279.375 231.632Z" fill="#61913D"/>
<path d="M275.81 233.798C275.904 234.87 277.482 235.641 279.334 235.519C281.185 235.397 282.609 234.428 282.514 233.355C282.419 232.283 280.841 231.512 278.99 231.634C277.138 231.756 275.715 232.725 275.81 233.798Z" fill="#9BC04E"/>
<path d="M276.623 232.92C276.716 233.374 277.649 233.583 278.706 233.388C279.763 233.193 280.544 232.668 280.451 232.215C280.358 231.762 279.426 231.552 278.368 231.747C277.311 231.942 276.53 232.468 276.623 232.92Z" fill="#BAD950"/>
<path d="M277.538 232.328C277.574 232.499 277.927 232.579 278.328 232.505C278.728 232.431 279.025 232.232 278.99 232.061C278.955 231.888 278.601 231.809 278.201 231.883C277.8 231.957 277.504 232.156 277.538 232.328Z" fill="#E4F991"/>
<path d="M279.375 242.439C282.161 242.439 283.343 241.547 283.632 240.906C283.513 242.07 282.406 244.059 279.375 244.059C276.485 244.059 275.243 242.051 275.118 240.889C275.426 241.532 276.709 242.439 279.375 242.439Z" fill="#55842C"/>
<path d="M245.515 201.105C246.573 201.105 247.432 201.511 247.432 202.012C247.432 202.398 247.432 229.223 247.432 229.608C247.432 229.741 247.371 229.867 247.263 229.981V229.915C247.106 230.079 246.848 230.218 246.526 230.312V230.378C246.233 230.465 245.886 230.516 245.515 230.516C244.456 230.516 243.598 230.109 243.598 229.608C243.598 229.223 243.598 202.398 243.598 202.012C243.598 201.511 244.456 201.105 245.515 201.105Z" fill="#D35400"/>
<path d="M245.528 189.908C252.182 189.908 254.831 194.802 254.831 197.232V206.465V209.664C254.831 212.095 252.547 216.988 245.528 216.988C238.875 216.988 236.226 212.095 236.226 209.664V208.187V206.465V197.232C236.226 194.802 238.511 189.908 245.528 189.908Z" fill="#43761C"/>
<path d="M237.76 194.627C237.968 196.966 241.406 198.645 245.44 198.379C249.474 198.113 252.576 196.001 252.37 193.664C252.162 191.326 248.724 189.647 244.69 189.913C240.655 190.18 237.553 192.29 237.76 194.627Z" fill="#7BA525"/>
<path d="M239.532 192.715C239.735 193.703 241.766 194.16 244.071 193.734C246.374 193.31 248.078 192.165 247.875 191.178C247.672 190.191 245.64 189.735 243.336 190.159C241.033 190.584 239.329 191.728 239.532 192.715Z" fill="#9BBE23"/>
<path d="M241.528 191.425C241.604 191.799 242.375 191.972 243.248 191.81C244.121 191.65 244.767 191.216 244.69 190.841C244.613 190.468 243.843 190.295 242.97 190.456C242.097 190.617 241.451 191.05 241.528 191.425Z" fill="#C3DE59"/>
<path d="M245.528 213.458C251.601 213.458 254.175 211.515 254.805 210.116C254.544 212.654 252.135 216.988 245.528 216.988C239.232 216.988 236.526 212.611 236.253 210.079C236.923 211.48 239.72 213.458 245.528 213.458Z" fill="#396910"/>
<path d="M240.929 212.541C241.149 212.541 241.361 212.516 241.57 212.483V218.107C241.57 218.404 241.826 218.644 242.139 218.644H244.557C244.856 218.644 245.095 218.423 245.117 218.146C245.803 218.476 246.566 218.654 247.337 218.665C247.065 219.878 245.925 220.791 244.557 220.791H242.139C240.568 220.791 239.295 219.589 239.295 218.107V212.351C239.817 212.474 240.367 212.541 240.929 212.541Z" fill="#D35400"/>
<path d="M240.258 203.64C244.152 203.64 245.702 206.503 245.702 207.926V213.329V215.201C245.702 216.624 244.365 219.489 240.258 219.489C236.364 219.489 234.813 216.624 234.813 215.201V214.337V213.329V207.926C234.813 206.503 236.151 203.64 240.258 203.64Z" fill="#61913D"/>
<path d="M235.711 206.401C235.833 207.77 237.845 208.753 240.206 208.597C242.567 208.441 244.384 207.206 244.262 205.837C244.14 204.47 242.129 203.487 239.767 203.643C237.406 203.799 235.59 205.034 235.711 206.401Z" fill="#9BC04E"/>
<path d="M236.749 205.282C236.867 205.86 238.056 206.127 239.404 205.878C240.753 205.631 241.75 204.96 241.631 204.382C241.513 203.804 240.324 203.538 238.975 203.787C237.627 204.035 236.63 204.705 236.749 205.282Z" fill="#BAD950"/>
<path d="M237.917 204.527C237.962 204.746 238.413 204.847 238.923 204.752C239.434 204.658 239.812 204.405 239.767 204.186C239.722 203.966 239.271 203.866 238.76 203.96C238.25 204.054 237.871 204.307 237.917 204.527Z" fill="#E4F991"/>
<path d="M240.258 217.423C243.812 217.423 245.319 216.285 245.687 215.467C245.535 216.951 244.124 219.489 240.258 219.489C236.573 219.489 234.99 216.926 234.829 215.445C235.223 216.265 236.859 217.423 240.258 217.423Z" fill="#55842C"/>
<path d="M233.936 234.249C230.797 234.249 228.365 232.751 228.365 231.703C228.365 230.273 228.365 228.317 228.365 228.317C228.365 226.861 229.733 223.93 233.936 223.93C237.922 223.93 239.509 226.861 239.509 228.317C239.509 228.317 239.509 230.688 239.509 231.746C239.509 232.768 237.192 234.249 233.936 234.249Z" fill="#61913D"/>
<path d="M229.284 226.757C229.408 228.157 231.467 229.162 233.883 229.003C236.3 228.844 238.158 227.579 238.034 226.18C237.91 224.78 235.85 223.774 233.435 223.933C231.018 224.092 229.16 225.357 229.284 226.757Z" fill="#9BC04E"/>
<path d="M230.344 225.611C230.466 226.202 231.684 226.476 233.063 226.222C234.443 225.967 235.464 225.282 235.342 224.69C235.22 224.099 234.003 223.826 232.623 224.08C231.244 224.335 230.224 225.02 230.344 225.611Z" fill="#BAD950"/>
<path d="M231.54 224.838C231.586 225.062 232.047 225.166 232.571 225.07C233.094 224.973 233.481 224.714 233.434 224.489C233.388 224.265 232.926 224.161 232.404 224.258C231.881 224.354 231.494 224.614 231.54 224.838Z" fill="#E4F991"/>
<path d="M243.617 240.278C239.45 240.278 236.222 238.292 236.222 236.9C236.222 235.002 236.222 232.406 236.222 232.406C236.222 230.474 238.038 226.584 243.617 226.584C248.906 226.584 251.012 230.474 251.012 232.406C251.012 232.406 251.012 235.552 251.012 236.957C251.012 238.312 247.937 240.278 243.617 240.278Z" fill="#43761C"/>
<path d="M237.442 230.335C237.607 232.194 240.34 233.529 243.547 233.317C246.753 233.105 249.22 231.427 249.055 229.569C248.89 227.71 246.158 226.376 242.95 226.588C239.744 226.799 237.277 228.477 237.442 230.335Z" fill="#7BA525"/>
<path d="M238.85 228.815C239.012 229.6 240.627 229.963 242.458 229.625C244.29 229.287 245.644 228.378 245.482 227.593C245.321 226.808 243.706 226.445 241.874 226.783C240.044 227.121 238.69 228.03 238.85 228.815Z" fill="#9BBE23"/>
<path d="M240.437 227.789C240.498 228.086 241.11 228.224 241.804 228.096C242.498 227.968 243.011 227.623 242.95 227.325C242.89 227.029 242.277 226.891 241.584 227.019C240.889 227.147 240.376 227.492 240.437 227.789Z" fill="#C3DE59"/>
<path d="M252.121 242.958C249.304 242.958 247.122 241.615 247.122 240.674C247.122 239.391 247.122 237.636 247.122 237.636C247.122 236.331 248.35 233.701 252.121 233.701C255.696 233.701 257.119 236.331 257.119 237.636C257.119 237.636 257.119 239.764 257.119 240.712C257.119 241.629 255.04 242.958 252.121 242.958Z" fill="#61913D"/>
<path d="M247.947 236.238C248.058 237.494 249.905 238.395 252.073 238.253C254.24 238.11 255.908 236.975 255.796 235.719C255.685 234.463 253.838 233.561 251.67 233.704C249.502 233.847 247.836 234.982 247.947 236.238Z" fill="#9BC04E"/>
<path d="M248.899 235.21C249.008 235.741 250.099 235.985 251.337 235.757C252.575 235.528 253.49 234.914 253.381 234.383C253.272 233.852 252.181 233.608 250.942 233.836C249.705 234.065 248.789 234.68 248.899 235.21Z" fill="#BAD950"/>
<path d="M249.971 234.516C250.012 234.718 250.426 234.81 250.895 234.724C251.364 234.637 251.711 234.404 251.67 234.203C251.628 234.002 251.214 233.909 250.746 233.995C250.276 234.082 249.93 234.315 249.971 234.516Z" fill="#E4F991"/>
<path d="M319.603 241.447C316.464 241.447 314.031 239.95 314.031 238.902C314.031 237.472 314.031 235.516 314.031 235.516C314.031 234.059 315.399 231.129 319.603 231.129C323.588 231.129 325.175 234.059 325.175 235.516C325.175 235.516 325.175 237.887 325.175 238.944C325.175 239.966 322.858 241.447 319.603 241.447Z" fill="#61913D"/>
<path d="M314.951 233.955C315.075 235.355 317.134 236.361 319.55 236.202C321.967 236.043 323.825 234.778 323.701 233.378C323.577 231.978 321.517 230.973 319.101 231.132C316.685 231.291 314.827 232.556 314.951 233.955Z" fill="#9BC04E"/>
<path d="M316.012 232.81C316.133 233.401 317.35 233.675 318.73 233.421C320.11 233.166 321.13 232.481 321.008 231.89C320.887 231.297 319.67 231.025 318.29 231.279C316.91 231.533 315.89 232.219 316.012 232.81Z" fill="#BAD950"/>
<path d="M317.207 232.037C317.254 232.261 317.715 232.365 318.237 232.269C318.761 232.172 319.147 231.912 319.101 231.688C319.055 231.464 318.594 231.36 318.071 231.457C317.548 231.553 317.161 231.813 317.207 232.037Z" fill="#E4F991"/>
<path d="M332.967 208.502C330.808 208.502 329.133 207.471 329.133 206.75C329.133 205.766 329.133 204.42 329.133 204.42C329.133 203.418 330.075 201.401 332.967 201.401C335.71 201.401 336.803 203.418 336.803 204.42C336.803 204.42 336.803 206.052 336.803 206.779C336.803 207.482 335.207 208.502 332.967 208.502Z" fill="#43761C"/>
<path d="M329.765 203.346C329.851 204.31 331.269 205.002 332.931 204.892C334.594 204.782 335.873 203.912 335.788 202.949C335.702 201.985 334.284 201.293 332.622 201.403C330.959 201.512 329.68 202.383 329.765 203.346Z" fill="#7BA525"/>
<path d="M330.497 202.558C330.579 202.965 331.417 203.152 332.367 202.977C333.316 202.803 334.018 202.331 333.935 201.924C333.851 201.517 333.014 201.329 332.064 201.505C331.114 201.679 330.413 202.151 330.497 202.558Z" fill="#9BBE23"/>
<path d="M331.318 202.025C331.351 202.18 331.668 202.252 332.028 202.184C332.388 202.118 332.654 201.94 332.622 201.785C332.591 201.631 332.273 201.56 331.913 201.626C331.554 201.693 331.287 201.872 331.318 202.025Z" fill="#C3DE59"/>
<path d="M338.691 211.963C336.53 211.963 334.856 210.933 334.856 210.211C334.856 209.227 334.856 207.881 334.856 207.881C334.856 206.879 335.798 204.862 338.691 204.862C341.434 204.862 342.526 206.879 342.526 207.881C342.526 207.881 342.526 209.513 342.526 210.241C342.526 210.943 340.931 211.963 338.691 211.963Z" fill="#43761C"/>
<path d="M335.49 206.808C335.575 207.771 336.992 208.463 338.655 208.354C340.318 208.244 341.597 207.374 341.511 206.41C341.426 205.447 340.009 204.755 338.346 204.864C336.683 204.974 335.404 205.844 335.49 206.808Z" fill="#7BA525"/>
<path d="M336.22 206.019C336.304 206.426 337.141 206.614 338.09 206.439C339.041 206.264 339.743 205.792 339.659 205.385C339.575 204.979 338.738 204.79 337.789 204.966C336.838 205.14 336.136 205.612 336.22 206.019Z" fill="#9BBE23"/>
<path d="M337.042 205.487C337.074 205.641 337.391 205.713 337.751 205.646C338.112 205.58 338.377 205.401 338.346 205.246C338.314 205.093 337.997 205.021 337.637 205.088C337.276 205.154 337.01 205.333 337.042 205.487Z" fill="#C3DE59"/>
<path d="M344.416 215.426C342.255 215.426 340.581 214.395 340.581 213.673C340.581 212.689 340.581 211.343 340.581 211.343C340.581 210.34 341.523 208.323 344.416 208.323C347.157 208.323 348.25 210.34 348.25 211.343C348.25 211.343 348.25 212.974 348.25 213.702C348.25 214.406 346.656 215.426 344.416 215.426Z" fill="#43761C"/>
<path d="M341.213 210.269C341.299 211.232 342.716 211.924 344.379 211.815C346.042 211.705 347.32 210.835 347.235 209.871C347.15 208.908 345.732 208.216 344.069 208.325C342.406 208.435 341.128 209.305 341.213 210.269Z" fill="#7BA525"/>
<path d="M341.944 209.481C342.026 209.888 342.864 210.076 343.814 209.901C344.763 209.725 345.466 209.253 345.382 208.847C345.298 208.44 344.462 208.252 343.511 208.427C342.562 208.601 341.86 209.074 341.944 209.481Z" fill="#9BBE23"/>
<path d="M342.766 208.949C342.797 209.103 343.115 209.174 343.476 209.108C343.835 209.041 344.101 208.862 344.069 208.709C344.038 208.554 343.72 208.482 343.361 208.549C343 208.615 342.734 208.794 342.766 208.949Z" fill="#C3DE59"/>
<g filter="url(#filter3_d_1_964)">
<path d="M197.589 316.582L268.089 278.34V276.843L121.289 273.888V275.385L197.589 316.582Z" fill="#244A4A"/>
</g>
<path d="M197.589 315.084L268.089 276.843L191.791 235.645L121.289 273.888L197.589 315.084Z" fill="#3E8180"/>
<path d="M251.484 250.566C252.2 250.566 252.78 250.84 252.78 251.179C252.78 251.439 252.78 269.577 252.78 269.838C252.78 269.928 252.739 270.013 252.666 270.09V270.045C252.559 270.156 252.385 270.25 252.168 270.314V270.359C251.969 270.417 251.734 270.451 251.484 270.451C250.767 270.451 250.187 270.176 250.187 269.838C250.187 269.577 250.187 251.439 250.187 251.179C250.187 250.84 250.767 250.566 251.484 250.566Z" fill="#D35400"/>
<path d="M251.627 240.251C254.765 240.251 260.009 254.885 260.009 258.052C260.009 260.243 257.951 264.652 251.627 264.652C245.632 264.652 243.245 260.243 243.245 258.052C243.245 254.885 249.31 240.251 251.627 240.251Z" fill="#43761C"/>
<path d="M251.326 258.317C250.61 252.139 251.633 240.252 251.633 240.252C254.771 240.269 260.092 254.888 260.009 258.052C259.922 261.436 251.789 262.309 251.326 258.317Z" fill="#7BA525"/>
<path d="M255.99 257.538C257.561 257.492 259.041 256.741 259.036 255.993C259.018 253.462 255.58 245.171 253.126 241.572C251.723 240.039 252.917 252.237 253.524 256.294C253.705 257.511 255.457 257.554 255.99 257.538Z" fill="#9BBE23"/>
<path d="M250.995 261.997C256.413 262.625 258.977 261.176 258.977 261.176C257.805 262.975 255.527 264.652 251.627 264.652C245.954 264.652 243.515 260.707 243.269 258.426C243.874 259.689 247.227 261.561 250.995 261.997Z" fill="#396910"/>
<path d="M253.81 246.706C254.569 248.793 255.534 250.372 255.963 250.233C256.394 250.093 256.128 248.288 255.368 246.202C254.61 244.115 253.645 242.536 253.215 242.676C252.784 242.815 253.051 244.62 253.81 246.706Z" fill="#C3DE59"/>
<path d="M174.975 255.618L175.735 255.053L185.977 260.589V274.775L185.217 275.174L174.975 255.618Z" fill="white"/>
<path d="M174.975 269.638V255.451L185.217 260.987V275.174L174.975 269.638Z" fill="#DBDBDB"/>
<path d="M184.033 261.357L176.159 257.102V269.267L184.033 273.522V261.357Z" fill="#566472"/>
<path d="M180.154 258.862V271.766L179.563 271.446V258.543L180.154 258.862Z" fill="#DBDBDB"/>
<path d="M209.948 248.196L166.97 271.427L209.948 294.657L252.927 271.427L209.948 248.196Z" fill="#EFF3F3"/>
<path d="M252.927 275.364L209.949 298.594V294.657L252.927 271.427V275.364Z" fill="#DBDBDB"/>
<path d="M209.948 298.594L166.97 275.364V271.427L209.948 294.657V298.594Z" fill="#AAB7B7"/>
<path d="M149.001 259.597L127.908 270.827L170.887 294.057L191.979 282.827L149.001 259.597Z" fill="#EFF3F3"/>
<path d="M189.813 283.999L170.888 294.057V297.994L189.813 287.936V283.999Z" fill="#DBDBDB"/>
<path d="M170.887 297.994L127.908 274.764V270.827L170.887 294.057V297.994Z" fill="#AAB7B7"/>
<path d="M209.948 292.59V266.887L170.798 245.725V271.428L209.948 292.59Z" fill="#AAB7B7"/>
<path d="M171.129 291.86V266.158L150.346 228.208L130.798 244.599V270.301L171.129 291.86Z" fill="#AAB7B7"/>
<path d="M189.847 256.039L171.129 266.158V291.86L189.847 281.742V256.039Z" fill="#DBDBDB"/>
<path d="M229.524 229.583L249.099 245.725V252.294L249.081 271.702L239.464 276.635L209.949 292.59V266.887L229.524 229.583Z" fill="#DBDBDB"/>
<path d="M228.951 226.87L208.16 266.492L169.009 245.331L189.801 205.708L228.951 226.87Z" fill="#336971"/>
<path d="M250.887 244.959V245.989L249.098 246.956V245.725L229.523 229.583L209.948 266.887V268.118L208.16 269.085V266.492L228.951 226.87L250.887 244.959Z" fill="#34495E"/>
<path d="M208.16 269.085V266.492L169.009 245.331V247.923L208.16 269.085Z" fill="#34495E"/>
<path d="M192.229 265.134L192.99 264.569L203.232 270.105V284.292L202.471 284.691L192.229 265.134Z" fill="white"/>
<path d="M192.229 279.155V264.968L202.471 270.504V284.691L192.229 279.155Z" fill="#DBDBDB"/>
<path d="M201.287 270.875L193.414 266.618V278.783L201.287 283.04V270.875Z" fill="#566472"/>
<path d="M197.408 268.379V281.282L196.817 280.963V268.059L197.408 268.379Z" fill="#DBDBDB"/>
<path d="M228.521 264.968L227.76 264.569L217.518 270.105V284.292L218.279 284.691L228.521 264.968Z" fill="white"/>
<path d="M228.521 279.155V264.968L218.279 270.504V284.691L228.521 279.155Z" fill="#EFEFEF"/>
<path d="M219.463 270.875L227.337 266.618V278.783L219.463 283.04V270.875Z" fill="#566472"/>
<path d="M223.342 268.379V281.282L223.933 280.963V268.059L223.342 268.379Z" fill="#EFEFEF"/>
<path d="M235.956 238.959L235.195 238.561L229.218 241.729V255.68L229.979 256.078L235.956 238.959Z" fill="white"/>
<path d="M235.956 252.91V238.959L229.979 242.128V256.078L235.956 252.91Z" fill="#EFEFEF"/>
<path d="M231.163 242.498L234.772 240.611V252.539L231.163 254.427V242.498Z" fill="#566472"/>
<path d="M241.806 258.501L240.015 257.562L230.084 262.725V281.712L231.962 282.748L241.806 258.501Z" fill="white"/>
<path d="M241.844 277.417V258.492L231.875 263.664L231.962 282.748L241.844 277.417Z" fill="#EFEFEF"/>
<path d="M240.713 260.653L233.024 264.412V282.183L240.738 278.06L240.713 260.653Z" fill="#566472"/>
<path d="M184.322 267.395L183.561 266.83L177.584 269.999V283.949L178.345 284.347L184.322 267.395Z" fill="white"/>
<path d="M184.322 281.179V267.229L178.344 270.397V284.347L184.322 281.179Z" fill="#EFEFEF"/>
<path d="M179.529 270.768L183.138 268.88V280.808L179.529 282.696V270.768Z" fill="#566472"/>
<path d="M250.685 284.946L241.876 280.279L237.443 288.635L240.633 290.341L250.685 284.946Z" fill="#EFF3F3"/>
<path d="M240.633 291.741L231.825 286.919V285.518L240.633 290.341V291.741Z" fill="#AAB7B7"/>
<path d="M240.633 291.741L250.685 286.345V284.946L240.633 290.341V291.741Z" fill="#BDC3C7"/>
<path d="M247.819 281.95L241.877 278.855L234.577 285.639L237.767 287.344L247.819 281.95Z" fill="#EFF3F3"/>
<path d="M237.767 288.745L231.825 285.495V284.095L237.767 287.345V288.745Z" fill="#AAB7B7"/>
<path d="M237.767 288.745L247.818 283.35V281.95L237.767 287.345V288.745Z" fill="#BDC3C7"/>
<path d="M245.067 279.009L241.876 277.457L231.825 282.698L235.015 284.404L245.067 279.009Z" fill="#EFF3F3"/>
<path d="M235.015 285.803L231.825 284.097V282.698L235.015 284.404V285.803Z" fill="#AAB7B7"/>
<path d="M235.015 285.803L245.067 280.408V279.009L235.015 284.404V285.803Z" fill="#BDC3C7"/>
<path d="M189.944 292.926C187.549 292.926 185.695 291.784 185.695 290.985C185.695 289.894 185.695 288.402 185.695 288.402C185.695 287.292 186.738 285.057 189.944 285.057C192.983 285.057 194.193 287.292 194.193 288.402C194.193 288.402 194.193 290.21 194.193 291.017C194.193 291.796 192.426 292.926 189.944 292.926Z" fill="#61913D"/>
<path d="M186.396 287.212C186.491 288.28 188.061 289.047 189.904 288.926C191.747 288.804 193.163 287.84 193.069 286.772C192.974 285.704 191.404 284.937 189.561 285.058C187.718 285.18 186.301 286.144 186.396 287.212Z" fill="#9BC04E"/>
<path d="M187.204 286.339C187.297 286.79 188.226 286.998 189.277 286.804C190.33 286.61 191.108 286.087 191.016 285.636C190.923 285.186 189.994 284.977 188.942 285.17C187.89 285.365 187.112 285.888 187.204 286.339Z" fill="#BAD950"/>
<path d="M188.116 285.749C188.151 285.92 188.503 285.999 188.902 285.925C189.301 285.852 189.596 285.654 189.56 285.483C189.525 285.312 189.173 285.233 188.775 285.307C188.376 285.38 188.081 285.578 188.116 285.749Z" fill="#E4F991"/>
<path d="M197.326 297.524C194.149 297.524 191.687 296.008 191.687 294.947C191.687 293.5 191.687 291.52 191.687 291.52C191.687 290.046 193.071 287.08 197.326 287.08C201.36 287.08 202.966 290.046 202.966 291.52C202.966 291.52 202.966 293.919 202.966 294.99C202.966 296.024 200.62 297.524 197.326 297.524Z" fill="#43761C"/>
<path d="M192.617 289.941C192.742 291.358 194.827 292.376 197.273 292.215C199.718 292.053 201.599 290.773 201.473 289.357C201.347 287.94 199.264 286.922 196.818 287.083C194.373 287.245 192.491 288.524 192.617 289.941Z" fill="#7BA525"/>
<path d="M193.691 288.782C193.814 289.381 195.046 289.656 196.442 289.4C197.839 289.142 198.872 288.448 198.748 287.85C198.626 287.251 197.394 286.975 195.997 287.232C194.6 287.489 193.569 288.183 193.691 288.782Z" fill="#9BBE23"/>
<path d="M194.902 287.999C194.948 288.226 195.414 288.33 195.944 288.233C196.473 288.135 196.865 287.873 196.818 287.646C196.772 287.419 196.304 287.314 195.775 287.411C195.246 287.51 194.854 287.772 194.902 287.999Z" fill="#C3DE59"/>
<path d="M179.945 297.145C177.797 297.145 176.133 296.12 176.133 295.403C176.133 294.425 176.133 293.087 176.133 293.087C176.133 292.09 177.069 290.086 179.945 290.086C182.671 290.086 183.756 292.09 183.756 293.087C183.756 293.087 183.756 294.708 183.756 295.433C183.756 296.131 182.172 297.145 179.945 297.145Z" fill="#61913D"/>
<path d="M176.762 292.019C176.847 292.977 178.255 293.666 179.908 293.557C181.561 293.448 182.833 292.583 182.748 291.625C182.663 290.667 181.254 289.978 179.601 290.088C177.948 290.197 176.677 291.062 176.762 292.019Z" fill="#9BC04E"/>
<path d="M177.488 291.236C177.571 291.64 178.403 291.828 179.347 291.654C180.292 291.48 180.989 291.01 180.906 290.606C180.823 290.201 179.991 290.015 179.046 290.189C178.103 290.362 177.405 290.831 177.488 291.236Z" fill="#BAD950"/>
<path d="M178.306 290.707C178.337 290.86 178.653 290.931 179.01 290.865C179.368 290.799 179.633 290.622 179.601 290.468C179.57 290.315 179.255 290.244 178.897 290.31C178.539 290.376 178.274 290.554 178.306 290.707Z" fill="#E4F991"/>
<path d="M207.049 288.042C207.765 288.042 208.345 288.317 208.345 288.656C208.345 288.916 208.345 307.054 208.345 307.314C208.345 307.404 208.304 307.49 208.231 307.567V307.522C208.125 307.634 207.951 307.727 207.733 307.791V307.836C207.534 307.895 207.3 307.928 207.049 307.928C206.333 307.928 205.753 307.654 205.753 307.314C205.753 307.054 205.753 288.916 205.753 288.656C205.753 288.317 206.333 288.042 207.049 288.042Z" fill="#D35400"/>
<path d="M207.194 269.414C210.33 269.414 215.576 292.363 215.576 295.529C215.576 297.721 213.516 302.129 207.194 302.129C201.198 302.129 198.811 297.721 198.811 295.529C198.811 292.363 204.875 269.414 207.194 269.414Z" fill="#43761C"/>
<path d="M206.892 295.794C206.176 289.617 207.199 269.49 207.199 269.49C210.336 269.507 215.657 292.365 215.575 295.529C215.488 298.912 207.354 299.786 206.892 295.794Z" fill="#7BA525"/>
<path d="M211.556 295.015C213.126 294.968 214.607 294.219 214.601 293.471C214.583 290.939 210.917 274.084 208.462 270.484C207.059 268.951 208.482 289.715 209.09 293.771C209.271 294.987 211.023 295.03 211.556 295.015Z" fill="#9BBE23"/>
<path d="M206.562 299.474C211.979 300.102 214.544 298.653 214.544 298.653C213.371 300.452 211.094 302.129 207.192 302.129C201.521 302.129 199.082 298.184 198.835 295.904C199.44 297.165 202.792 299.037 206.562 299.474Z" fill="#396910"/>
<path d="M208.761 277.773C209.48 281.042 210.554 283.597 211.159 283.479C211.764 283.36 211.672 280.613 210.953 277.344C210.233 274.075 209.16 271.52 208.554 271.638C207.948 271.757 208.041 274.503 208.761 277.773Z" fill="#C3DE59"/>
<path d="M189.801 205.708L150.868 226.752L171.66 266.375L189.801 256.569V205.708Z" fill="#284F54"/>
<path d="M128.932 244.841V245.872L130.721 246.838V245.607L150.296 229.465L169.872 266.769V268L171.659 268.967V266.375L150.869 226.752L128.932 244.841Z" fill="#566472"/>
<path d="M189.801 256.569L171.66 266.375V268.967L189.801 259.16V256.569Z" fill="#34495E"/>
<path d="M152.771 264.046L153.532 263.481L163.774 269.017V283.204L163.013 283.603L152.771 264.046Z" fill="white"/>
<path d="M152.771 278.067V263.88L163.013 269.416V283.603L152.771 278.067Z" fill="#DBDBDB"/>
<path d="M161.829 269.786L153.956 265.531V277.696L161.829 281.951V269.786Z" fill="#566472"/>
<path d="M157.95 267.291V280.194L157.359 279.875V266.972L157.95 267.291Z" fill="#DBDBDB"/>
<path d="M143.626 237.086L144.386 236.521L154.628 242.057V256.243L153.868 256.642L143.626 237.086Z" fill="white"/>
<path d="M143.626 251.106V236.919L153.868 242.455V256.642L143.626 251.106Z" fill="#DBDBDB"/>
<path d="M152.684 242.826L144.81 238.571V250.736L152.684 254.991V242.826Z" fill="#566472"/>
<path d="M148.805 240.331V253.235L148.213 252.914V240.011L148.805 240.331Z" fill="#DBDBDB"/>
<path d="M135.47 254.876L136.231 254.312L146.473 259.848V274.034L145.712 274.433L135.47 254.876Z" fill="white"/>
<path d="M135.47 268.896V254.71L145.712 260.246V274.433L135.47 268.896Z" fill="#DBDBDB"/>
<path d="M144.528 260.617L136.654 256.361V268.526L144.528 272.782V260.617Z" fill="#566472"/>
<path d="M140.65 258.121V271.025L140.058 270.705V257.801L140.65 258.121Z" fill="#DBDBDB"/>
<path d="M101.031 258.714C100.998 258.878 100.661 258.953 100.28 258.883C99.8986 258.813 99.6168 258.623 99.6501 258.459C99.6834 258.296 100.02 258.221 100.402 258.291C100.783 258.361 101.065 258.551 101.031 258.714Z" fill="#E4F991"/>
<defs>
<filter id="filter0_d_1_964" x="107.458" y="81.9107" width="161.522" height="142.828" filterUnits="userSpaceOnUse" color-interpolation-filters="sRGB">
<feFlood flood-opacity="0" result="BackgroundImageFix"/>
<feColorMatrix in="SourceAlpha" type="matrix" values="0 0 0 0 0 0 0 0 0 0 0 0 0 0 0 0 0 0 127 0" result="hardAlpha"/>
<feOffset dy="3.04167"/>
<feGaussianBlur stdDeviation="1.52083"/>
<feComposite in2="hardAlpha" operator="out"/>
<feColorMatrix type="matrix" values="0 0 0 0 0.0588235 0 0 0 0 0.0862745 0 0 0 0 0.196078 0 0 0 0.2 0"/>
<feBlend mode="normal" in2="BackgroundImageFix" result="effect1_dropShadow_1_964"/>
<feBlend mode="normal" in="SourceGraphic" in2="effect1_dropShadow_1_964" result="shape"/>
</filter>
<filter id="filter1_d_1_964" x="107.133" y="174.749" width="162.173" height="50.6406" filterUnits="userSpaceOnUse" color-interpolation-filters="sRGB">
<feFlood flood-opacity="0" result="BackgroundImageFix"/>
<feColorMatrix in="SourceAlpha" type="matrix" values="0 0 0 0 0 0 0 0 0 0 0 0 0 0 0 0 0 0 127 0" result="hardAlpha"/>
<feOffset dy="3.36712"/>
<feGaussianBlur stdDeviation="1.68356"/>
<feComposite in2="hardAlpha" operator="out"/>
<feColorMatrix type="matrix" values="0 0 0 0 0 0 0 0 0 0 0 0 0 0 0 0 0 0 0.15 0"/>
<feBlend mode="normal" in2="BackgroundImageFix" result="effect1_dropShadow_1_964"/>
<feBlend mode="normal" in="SourceGraphic" in2="effect1_dropShadow_1_964" result="shape"/>
</filter>
<filter id="filter2_d_1_964" x="207.767" y="220.296" width="163.617" height="54.6347" filterUnits="userSpaceOnUse" color-interpolation-filters="sRGB">
<feFlood flood-opacity="0" result="BackgroundImageFix"/>
<feColorMatrix in="SourceAlpha" type="matrix" values="0 0 0 0 0 0 0 0 0 0 0 0 0 0 0 0 0 0 127 0" result="hardAlpha"/>
<feOffset dy="3.36712"/>
<feGaussianBlur stdDeviation="1.68356"/>
<feComposite in2="hardAlpha" operator="out"/>
<feColorMatrix type="matrix" values="0 0 0 0 0 0 0 0 0 0 0 0 0 0 0 0 0 0 0.15 0"/>
<feBlend mode="normal" in2="BackgroundImageFix" result="effect1_dropShadow_1_964"/>
<feBlend mode="normal" in="SourceGraphic" in2="effect1_dropShadow_1_964" result="shape"/>
</filter>
<filter id="filter3_d_1_964" x="117.922" y="273.888" width="153.535" height="49.4283" filterUnits="userSpaceOnUse" color-interpolation-filters="sRGB">
<feFlood flood-opacity="0" result="BackgroundImageFix"/>
<feColorMatrix in="SourceAlpha" type="matrix" values="0 0 0 0 0 0 0 0 0 0 0 0 0 0 0 0 0 0 127 0" result="hardAlpha"/>
<feOffset dy="3.36712"/>
<feGaussianBlur stdDeviation="1.68356"/>
<feComposite in2="hardAlpha" operator="out"/>
<feColorMatrix type="matrix" values="0 0 0 0 0 0 0 0 0 0 0 0 0 0 0 0 0 0 0.15 0"/>
<feBlend mode="normal" in2="BackgroundImageFix" result="effect1_dropShadow_1_964"/>
<feBlend mode="normal" in="SourceGraphic" in2="effect1_dropShadow_1_964" result="shape"/>
</filter>
<radialGradient id="paint0_radial_1_964" cx="0" cy="0" r="1" gradientUnits="userSpaceOnUse" gradientTransform="translate(202.506 208.5) rotate(84.2492) scale(184.566 195.415)">
<stop stop-color="#5CCAAB" stop-opacity="0.25"/>
<stop offset="1" stop-color="#5CCAAB" stop-opacity="0"/>
</radialGradient>
</defs>
</svg>
