<svg width="366" height="366" viewBox="0 0 366 366" fill="none" xmlns="http://www.w3.org/2000/svg">
<circle cx="183" cy="183" r="183" fill="url(#paint0_radial_1_960)"/>
<g filter="url(#filter0_d_1_960)">
<path d="M208.034 224.991L289.063 178.458V176.47H127V178.458L208.034 224.991Z" fill="#244A4A"/>
</g>
<path d="M208.034 223.002L289.063 176.469L208.03 129.936L127 176.469L208.034 223.002Z" fill="#3E8180"/>
<path d="M259.579 162.426L208.505 133.905L157.921 162.516L208.995 191.554L259.579 162.426Z" fill="#EFF3F3"/>
<path d="M208.995 196.232L157.921 167.195V162.516L208.995 191.554V196.232Z" fill="#AAB7B7"/>
<path d="M208.995 196.232L259.579 167.105V162.426L208.995 191.554V196.232Z" fill="#BDC3C7"/>
<path d="M208.819 190.703V156.561L233.351 128.342L257.882 128.451V162.593L208.819 190.703Z" fill="#E87F3F"/>
<path d="M208.819 190.703V156.561L159.756 128.451V162.593L208.819 190.703Z" fill="#AB511A"/>
<path d="M234.411 128.325L208.819 157.763L157.635 128.438L183.227 99.0001L234.411 128.325Z" fill="#284F54"/>
<path d="M234.411 128.325L260.003 128.438L208.819 99.113L183.226 99.0001L234.411 128.325Z" fill="#566472"/>
<path d="M234.411 128.325L260.004 128.438L257.929 130.503L235.353 130.403L210.894 158.538L208.819 157.763L234.411 128.325Z" fill="#AAB7B7"/>
<path d="M176.138 147.587L167.11 142.386L166.612 142.829L175.639 161.713L176.138 161.27V147.587Z" fill="#EFF3F3"/>
<path d="M175.639 148.03L166.612 142.829V156.513L175.639 161.713V148.03Z" fill="#BDC3C7"/>
<path d="M167.674 155.898V144.667L174.577 148.644L174.577 159.876L167.674 155.898Z" fill="#566472"/>
<path d="M166.993 147.543V148.625L175.141 153.319V152.237L166.993 147.543Z" fill="#BDC3C7"/>
<path d="M166.993 151.474V152.556L175.141 157.25V156.167L166.993 151.474Z" fill="#BDC3C7"/>
<path d="M171.589 146.356L170.568 145.767V157.963L171.589 158.55V146.356Z" fill="#BDC3C7"/>
<path d="M194.014 157.88L184.986 152.68L184.487 153.123L193.515 172.007L194.014 171.564V157.88Z" fill="#EFF3F3"/>
<path d="M193.515 158.323L184.487 153.123V166.806L193.515 172.007V158.323Z" fill="#BDC3C7"/>
<path d="M185.55 166.192V154.96L192.453 158.938L192.453 170.17L185.55 166.192Z" fill="#566472"/>
<path d="M184.869 157.836V158.919L193.017 163.612V162.53L184.869 157.836Z" fill="#BDC3C7"/>
<path d="M184.869 161.767V162.85L193.017 167.543V166.461L184.869 161.767Z" fill="#BDC3C7"/>
<path d="M189.466 156.65L188.444 156.062V168.256L189.466 168.844V156.65Z" fill="#BDC3C7"/>
<path d="M245.145 144.451L254.173 139.251L254.671 139.694L245.644 170.353L245.145 169.91V144.451Z" fill="#EFF3F3"/>
<path d="M245.644 144.894L254.671 139.694V169.993L245.644 175.193V144.894Z" fill="#BDC3C7"/>
<path d="M253.609 170.585V141.531L246.705 145.508V174.562L253.609 170.585Z" fill="#566472"/>
<path d="M219.4 159.273L228.427 154.072L228.925 154.514L219.898 173.4L219.4 172.957V159.273Z" fill="#EFF3F3"/>
<path d="M219.898 159.715L228.925 154.514V168.199L219.898 173.4V159.715Z" fill="#BDC3C7"/>
<path d="M227.864 167.585V156.353L220.96 160.329V171.562L227.864 167.585Z" fill="#566472"/>
<path d="M228.544 159.229V160.311L220.396 165.005V163.923L228.544 159.229Z" fill="#BDC3C7"/>
<path d="M228.544 163.16V164.241L220.396 168.935V167.854L228.544 163.16Z" fill="#BDC3C7"/>
<path d="M223.948 158.043L224.969 157.454V169.648L223.948 170.237V158.043Z" fill="#BDC3C7"/>
<path d="M231.84 152.143L240.869 146.943L241.366 147.386L232.339 166.27L231.84 165.827V152.143Z" fill="#EFF3F3"/>
<path d="M232.339 152.586L241.366 147.386V161.07L232.339 166.27V152.586Z" fill="#BDC3C7"/>
<path d="M240.304 160.455V149.223L233.4 153.201V164.433L240.304 160.455Z" fill="#566472"/>
<path d="M240.985 152.099V153.181L232.837 157.875V156.793L240.985 152.099Z" fill="#BDC3C7"/>
<path d="M240.985 156.03V157.113L232.837 161.807V160.724L240.985 156.03Z" fill="#BDC3C7"/>
<path d="M236.388 150.913L237.41 150.325V162.519L236.388 163.107V150.913Z" fill="#BDC3C7"/>
<path d="M229.028 140.308L238.056 135.106L238.554 135.549L229.527 147.145L229.028 146.701V140.308Z" fill="#EFF3F3"/>
<path d="M229.526 140.75L238.554 135.549V141.944L229.527 147.145L229.526 140.75Z" fill="#BDC3C7"/>
<path d="M237.491 141.33V137.387L230.588 141.364V145.307L237.491 141.33Z" fill="#566472"/>
<path d="M233.576 139.077L234.598 138.488V143.393L233.576 143.982V139.077Z" fill="#BDC3C7"/>
<path d="M143.823 137.138C145.222 137.138 146.356 137.707 146.356 138.409C146.356 138.949 146.356 176.523 146.356 177.063C146.356 177.249 146.276 177.426 146.132 177.585V177.493C145.924 177.723 145.584 177.917 145.159 178.05V178.143C144.771 178.264 144.313 178.334 143.823 178.334C142.423 178.334 141.289 177.765 141.289 177.063C141.289 176.523 141.289 138.949 141.289 138.409C141.289 137.707 142.423 137.138 143.823 137.138Z" fill="#D35400"/>
<path d="M143.84 121.455C152.632 121.455 156.133 128.309 156.133 131.715V144.646V149.126C156.133 152.532 153.114 159.386 143.84 159.386C135.048 159.386 131.547 152.532 131.547 149.126V147.058V144.646V131.715C131.547 128.309 134.566 121.455 143.84 121.455Z" fill="#43761C"/>
<path d="M133.575 128.066C133.849 131.34 138.392 133.692 143.723 133.319C149.054 132.947 153.154 129.991 152.88 126.716C152.607 123.441 148.063 121.09 142.732 121.463C137.401 121.836 133.301 124.791 133.575 128.066Z" fill="#7BA525"/>
<path d="M135.916 125.388C136.184 126.771 138.869 127.409 141.914 126.815C144.958 126.219 147.209 124.617 146.941 123.234C146.673 121.851 143.988 121.212 140.943 121.806C137.899 122.402 135.648 124.005 135.916 125.388Z" fill="#9BBE23"/>
<path d="M138.554 123.579C138.655 124.104 139.673 124.346 140.827 124.12C141.981 123.894 142.834 123.287 142.732 122.762C142.63 122.239 141.613 121.997 140.459 122.222C139.305 122.448 138.452 123.055 138.554 123.579Z" fill="#C3DE59"/>
<path d="M143.84 154.442C151.865 154.442 155.267 151.72 156.099 149.761C155.755 153.315 152.57 159.386 143.84 159.386C135.521 159.386 131.944 153.253 131.583 149.709C132.47 151.671 136.164 154.442 143.84 154.442Z" fill="#396910"/>
<path d="M137.762 153.157C138.052 153.157 138.333 153.123 138.61 153.074V160.953C138.61 161.369 138.947 161.706 139.361 161.706H142.556C142.952 161.706 143.268 161.396 143.297 161.008C144.203 161.471 145.212 161.72 146.231 161.734C145.872 163.435 144.364 164.713 142.556 164.713H139.361C137.285 164.713 135.603 163.029 135.603 160.953V152.89C136.294 153.063 137.02 153.157 137.762 153.157Z" fill="#D35400"/>
<path d="M151.308 151.184C151.018 151.184 150.737 151.15 150.46 151.102V158.98C150.46 159.395 150.123 159.733 149.708 159.733H146.513C146.118 159.733 145.802 159.423 145.773 159.035C144.867 159.498 143.858 159.746 142.839 159.761C143.199 161.462 144.706 162.739 146.513 162.739H149.708C151.785 162.739 153.467 161.056 153.467 158.98V150.916C152.776 151.091 152.05 151.184 151.308 151.184Z" fill="#D35400"/>
<path d="M136.876 140.688C142.021 140.688 144.07 144.7 144.07 146.693V154.261V156.883C144.07 158.877 142.303 162.888 136.876 162.888C131.73 162.888 129.681 158.877 129.681 156.883V155.674V154.261V146.693C129.681 144.7 131.448 140.688 136.876 140.688Z" fill="#61913D"/>
<path d="M130.867 144.557C131.028 146.475 133.687 147.851 136.807 147.633C139.927 147.414 142.327 145.684 142.167 143.768C142.006 141.851 139.347 140.474 136.227 140.693C133.107 140.911 130.707 142.642 130.867 144.557Z" fill="#9BC04E"/>
<path d="M132.237 142.99C132.395 143.8 133.966 144.174 135.748 143.825C137.53 143.477 138.847 142.538 138.69 141.729C138.533 140.92 136.962 140.546 135.18 140.894C133.398 141.242 132.081 142.181 132.237 142.99Z" fill="#BAD950"/>
<path d="M133.782 141.932C133.841 142.238 134.437 142.381 135.112 142.248C135.787 142.116 136.286 141.761 136.227 141.454C136.167 141.147 135.572 141.005 134.897 141.138C134.221 141.27 133.722 141.625 133.782 141.932Z" fill="#E4F991"/>
<path d="M136.876 159.995C141.573 159.995 143.564 158.401 144.051 157.255C143.849 159.334 141.986 162.888 136.876 162.888C132.007 162.888 129.914 159.299 129.702 157.224C130.221 158.373 132.384 159.995 136.876 159.995Z" fill="#55842C"/>
<path d="M152.291 141.989C156.527 141.989 158.213 145.29 158.213 146.931V153.161V155.319C158.213 156.96 156.759 160.261 152.291 160.261C148.056 160.261 146.369 156.96 146.369 155.319V154.323V153.161V146.931C146.369 145.29 147.823 141.989 152.291 141.989Z" fill="#61913D"/>
<path d="M147.346 145.174C147.478 146.751 149.667 147.884 152.235 147.704C154.803 147.524 156.778 146.1 156.647 144.523C156.515 142.945 154.326 141.812 151.757 141.992C149.19 142.172 147.214 143.596 147.346 145.174Z" fill="#9BC04E"/>
<path d="M148.474 143.883C148.603 144.55 149.896 144.857 151.363 144.571C152.83 144.284 153.914 143.511 153.785 142.845C153.656 142.18 152.362 141.871 150.896 142.158C149.429 142.444 148.345 143.217 148.474 143.883Z" fill="#BAD950"/>
<path d="M149.745 143.012C149.793 143.264 150.283 143.381 150.84 143.272C151.395 143.163 151.806 142.871 151.757 142.618C151.708 142.366 151.218 142.25 150.662 142.359C150.106 142.467 149.696 142.759 149.745 143.012Z" fill="#E4F991"/>
<path d="M152.291 157.88C156.157 157.88 157.796 156.569 158.197 155.624C158.032 157.336 156.497 160.261 152.291 160.261C148.284 160.261 146.561 157.308 146.387 155.599C146.814 156.544 148.594 157.88 152.291 157.88Z" fill="#55842C"/>
<path d="M199.499 174.488C200.695 174.488 201.664 174.974 201.664 175.574C201.664 176.035 201.664 208.143 201.664 208.603C201.664 208.762 201.595 208.914 201.472 209.05V208.971C201.295 209.168 201.004 209.334 200.64 209.447V209.527C200.309 209.63 199.918 209.69 199.499 209.69C198.303 209.69 197.334 209.203 197.334 208.603C197.334 208.143 197.334 176.035 197.334 175.574C197.334 174.974 198.303 174.488 199.499 174.488Z" fill="#D35400"/>
<path d="M199.514 161.087C207.026 161.087 210.018 166.944 210.018 169.853V180.904V184.732C210.018 187.642 207.439 193.498 199.514 193.498C192.001 193.498 189.009 187.642 189.009 184.732V182.964V180.904V169.853C189.009 166.944 191.589 161.087 199.514 161.087Z" fill="#43761C"/>
<path d="M190.742 166.735C190.976 169.534 194.859 171.543 199.414 171.225C203.969 170.906 207.472 168.38 207.239 165.582C207.005 162.784 203.122 160.774 198.567 161.092C194.012 161.412 190.508 163.937 190.742 166.735Z" fill="#7BA525"/>
<path d="M192.743 164.446C192.972 165.628 195.266 166.175 197.867 165.666C200.469 165.158 202.392 163.788 202.163 162.606C201.934 161.425 199.64 160.879 197.039 161.386C194.437 161.895 192.514 163.265 192.743 164.446Z" fill="#9BBE23"/>
<path d="M194.997 162.902C195.083 163.35 195.953 163.557 196.939 163.364C197.925 163.171 198.653 162.652 198.567 162.205C198.48 161.756 197.61 161.55 196.624 161.742C195.639 161.935 194.91 162.454 194.997 162.902Z" fill="#C3DE59"/>
<path d="M199.514 189.274C206.371 189.274 209.278 186.948 209.989 185.274C209.695 188.311 206.974 193.498 199.514 193.498C192.405 193.498 189.349 188.258 189.04 185.229C189.797 186.906 192.955 189.274 199.514 189.274Z" fill="#396910"/>
<path d="M194.321 188.176C194.569 188.176 194.809 188.147 195.045 188.106V194.838C195.045 195.193 195.333 195.481 195.687 195.481H198.417C198.755 195.481 199.025 195.217 199.05 194.884C199.825 195.28 200.687 195.493 201.558 195.505C201.25 196.958 199.962 198.049 198.417 198.049H195.687C193.914 198.049 192.475 196.612 192.475 194.838V187.948C193.066 188.096 193.686 188.176 194.321 188.176Z" fill="#D35400"/>
<path d="M193.563 177.521C197.96 177.521 199.711 180.95 199.711 182.653V189.12V191.361C199.711 193.064 198.201 196.491 193.563 196.491C189.166 196.491 187.415 193.064 187.415 191.361V190.326V189.12V182.653C187.415 180.95 188.924 177.521 193.563 177.521Z" fill="#61913D"/>
<path d="M188.429 180.828C188.566 182.465 190.838 183.642 193.504 183.456C196.17 183.269 198.221 181.79 198.084 180.152C197.947 178.515 195.675 177.339 193.008 177.526C190.342 177.712 188.292 179.19 188.429 180.828Z" fill="#9BC04E"/>
<path d="M189.599 179.488C189.734 180.18 191.077 180.499 192.599 180.202C194.122 179.904 195.247 179.103 195.113 178.411C194.979 177.72 193.636 177.399 192.114 177.698C190.591 177.995 189.466 178.797 189.599 179.488Z" fill="#BAD950"/>
<path d="M190.918 178.584C190.969 178.846 191.478 178.967 192.055 178.854C192.632 178.742 193.059 178.438 193.008 178.176C192.958 177.914 192.448 177.792 191.871 177.905C191.295 178.018 190.868 178.322 190.918 178.584Z" fill="#E4F991"/>
<path d="M193.563 194.019C197.576 194.019 199.277 192.657 199.694 191.678C199.522 193.454 197.929 196.491 193.563 196.491C189.402 196.491 187.613 193.425 187.432 191.651C187.876 192.633 189.724 194.019 193.563 194.019Z" fill="#55842C"/>
<path d="M278.717 141.673C279.913 141.673 280.882 142.16 280.882 142.759C280.882 143.22 280.882 175.328 280.882 175.79C280.882 175.949 280.813 176.1 280.691 176.236V176.156C280.514 176.353 280.222 176.519 279.859 176.633V176.712C279.528 176.815 279.136 176.875 278.717 176.875C277.522 176.875 276.552 176.389 276.552 175.79C276.552 175.328 276.552 143.22 276.552 142.759C276.552 142.16 277.522 141.673 278.717 141.673Z" fill="#D35400"/>
<path d="M278.732 128.272C286.245 128.272 289.237 134.129 289.237 137.038V148.089V151.917C289.237 154.828 286.657 160.685 278.732 160.685C271.219 160.685 268.227 154.828 268.227 151.917V150.151V148.089V137.038C268.227 134.129 270.807 128.272 278.732 128.272Z" fill="#43761C"/>
<path d="M269.961 133.922C270.194 136.719 274.077 138.728 278.632 138.41C283.187 138.092 286.691 135.566 286.457 132.768C286.223 129.97 282.34 127.96 277.785 128.279C273.23 128.597 269.726 131.124 269.961 133.922Z" fill="#7BA525"/>
<path d="M271.961 131.633C272.19 132.815 274.485 133.36 277.086 132.852C279.687 132.343 281.61 130.974 281.381 129.792C281.153 128.61 278.858 128.064 276.257 128.573C273.656 129.081 271.732 130.45 271.961 131.633Z" fill="#9BBE23"/>
<path d="M274.215 130.087C274.301 130.535 275.171 130.742 276.157 130.549C277.143 130.357 277.871 129.837 277.784 129.39C277.698 128.942 276.828 128.735 275.842 128.927C274.856 129.12 274.128 129.64 274.215 130.087Z" fill="#C3DE59"/>
<path d="M278.732 156.46C285.589 156.46 288.496 154.134 289.208 152.46C288.914 155.496 286.192 160.685 278.732 160.685C271.624 160.685 268.567 155.444 268.258 152.415C269.016 154.091 272.173 156.46 278.732 156.46Z" fill="#396910"/>
<path d="M159.101 179.718C155.437 179.718 152.599 177.867 152.599 176.569C152.599 174.8 152.599 172.381 152.599 172.381C152.599 170.579 154.196 166.954 159.101 166.954C163.751 166.954 165.603 170.579 165.603 172.381C165.603 172.381 165.603 175.314 165.603 176.622C165.603 177.885 162.899 179.718 159.101 179.718Z" fill="#61913D"/>
<path d="M153.672 170.451C153.816 172.182 156.22 173.427 159.039 173.23C161.859 173.032 164.028 171.468 163.883 169.737C163.738 168.005 161.335 166.761 158.515 166.959C155.695 167.155 153.527 168.719 153.672 170.451Z" fill="#9BC04E"/>
<path d="M154.91 169.035C155.051 169.766 156.472 170.104 158.082 169.789C159.692 169.475 160.882 168.627 160.741 167.895C160.599 167.164 159.179 166.826 157.569 167.141C155.958 167.455 154.768 168.303 154.91 169.035Z" fill="#BAD950"/>
<path d="M156.304 168.078C156.358 168.355 156.897 168.483 157.507 168.364C158.117 168.245 158.568 167.923 158.515 167.647C158.461 167.369 157.923 167.241 157.312 167.36C156.702 167.48 156.251 167.801 156.304 168.078Z" fill="#E4F991"/>
<path d="M170.398 187.177C165.535 187.177 161.768 184.718 161.768 182.997C161.768 180.649 161.768 177.438 161.768 177.438C161.768 175.047 163.887 170.237 170.398 170.237C176.569 170.237 179.027 175.047 179.027 177.438C179.027 177.438 179.027 181.33 179.027 183.067C179.027 184.743 175.438 187.177 170.398 187.177Z" fill="#43761C"/>
<path d="M163.192 174.877C163.384 177.176 166.574 178.826 170.316 178.565C174.058 178.303 176.936 176.228 176.744 173.93C176.552 171.631 173.363 169.98 169.62 170.241C165.878 170.503 163 172.578 163.192 174.877Z" fill="#7BA525"/>
<path d="M164.836 172.997C165.024 173.968 166.909 174.417 169.045 173.999C171.183 173.581 172.762 172.456 172.574 171.485C172.386 170.514 170.501 170.066 168.364 170.484C166.227 170.9 164.647 172.026 164.836 172.997Z" fill="#9BBE23"/>
<path d="M166.687 171.727C166.758 172.096 167.472 172.266 168.282 172.107C169.092 171.949 169.691 171.522 169.62 171.155C169.548 170.786 168.834 170.616 168.024 170.775C167.214 170.933 166.615 171.36 166.687 171.727Z" fill="#C3DE59"/>
<path d="M180.321 190.491C177.034 190.491 174.488 188.83 174.488 187.666C174.488 186.079 174.488 183.909 174.488 183.909C174.488 182.293 175.921 179.04 180.321 179.04C184.492 179.04 186.154 182.293 186.154 183.909C186.154 183.909 186.154 186.54 186.154 187.713C186.154 188.847 183.728 190.491 180.321 190.491Z" fill="#61913D"/>
<path d="M175.45 182.178C175.58 183.731 177.736 184.847 180.265 184.671C182.795 184.493 184.74 183.09 184.61 181.536C184.48 179.983 182.324 178.867 179.795 179.045C177.265 179.221 175.32 180.624 175.45 182.178Z" fill="#9BC04E"/>
<path d="M176.561 180.907C176.688 181.563 177.962 181.866 179.407 181.583C180.851 181.302 181.919 180.54 181.792 179.885C181.665 179.229 180.391 178.925 178.946 179.207C177.502 179.49 176.434 180.251 176.561 180.907Z" fill="#BAD950"/>
<path d="M177.812 180.048C177.861 180.297 178.343 180.412 178.891 180.305C179.438 180.198 179.843 179.91 179.795 179.661C179.747 179.413 179.264 179.298 178.716 179.404C178.169 179.512 177.764 179.8 177.812 180.048Z" fill="#E4F991"/>
<path d="M227.432 198.263C222.569 198.263 218.802 195.804 218.802 194.084C218.802 191.736 218.802 188.525 218.802 188.525C218.802 186.134 220.921 181.324 227.432 181.324C233.603 181.324 236.06 186.134 236.06 188.525C236.06 188.525 236.06 192.417 236.06 194.154C236.06 195.83 232.472 198.263 227.432 198.263Z" fill="#43761C"/>
<path d="M220.225 185.964C220.418 188.263 223.607 189.913 227.349 189.652C231.091 189.39 233.969 187.315 233.777 185.016C233.585 182.718 230.396 181.067 226.654 181.328C222.911 181.59 220.033 183.665 220.225 185.964Z" fill="#7BA525"/>
<path d="M221.869 184.084C222.056 185.055 223.941 185.503 226.079 185.085C228.215 184.668 229.796 183.542 229.607 182.572C229.419 181.601 227.534 181.153 225.398 181.569C223.26 181.987 221.68 183.112 221.869 184.084Z" fill="#9BBE23"/>
<path d="M223.72 182.814C223.791 183.182 224.505 183.352 225.316 183.193C226.125 183.035 226.724 182.609 226.652 182.241C226.581 181.873 225.867 181.703 225.058 181.862C224.247 182.02 223.649 182.447 223.72 182.814Z" fill="#C3DE59"/>
<path d="M215.786 203.418C212.5 203.418 209.953 201.756 209.953 200.593C209.953 199.006 209.953 196.836 209.953 196.836C209.953 195.22 211.386 191.967 215.786 191.967C219.958 191.967 221.619 195.22 221.619 196.836C221.619 196.836 221.619 199.467 221.619 200.64C221.619 201.773 219.194 203.418 215.786 203.418Z" fill="#61913D"/>
<path d="M210.916 195.105C211.045 196.658 213.202 197.774 215.73 197.597C218.261 197.42 220.206 196.017 220.076 194.463C219.946 192.91 217.79 191.794 215.261 191.972C212.731 192.148 210.786 193.551 210.916 195.105Z" fill="#9BC04E"/>
<path d="M212.027 193.834C212.154 194.49 213.428 194.792 214.872 194.51C216.317 194.229 217.384 193.467 217.257 192.812C217.13 192.155 215.857 191.852 214.412 192.134C212.967 192.417 211.899 193.177 212.027 193.834Z" fill="#BAD950"/>
<path d="M213.278 192.975C213.326 193.224 213.809 193.339 214.356 193.232C214.904 193.125 215.308 192.837 215.26 192.588C215.212 192.339 214.729 192.225 214.182 192.331C213.635 192.439 213.23 192.727 213.278 192.975Z" fill="#E4F991"/>
<g filter="url(#filter1_d_1_960)">
<path d="M117.712 279.463L36.6822 232.93V230.941L186.61 238.002V239.991L117.712 279.463Z" fill="#244A4A"/>
</g>
<path d="M117.712 277.474L36.6822 230.941L105.581 191.469L186.61 238.002L117.712 277.474Z" fill="#3E8180"/>
<path d="M63.2753 225.079L114.349 196.56L164.934 225.17L113.86 254.207L63.2753 225.079Z" fill="#EFF3F3"/>
<path d="M59.6617 198.053C58.7186 198.053 57.9542 198.437 57.9542 198.91C57.9542 199.274 57.9542 224.609 57.9542 224.973C57.9542 225.098 58.0079 225.218 58.1044 225.325V225.263C58.2448 225.418 58.4751 225.549 58.7613 225.639V225.701C59.0224 225.783 59.3316 225.83 59.6617 225.83C60.606 225.83 61.3704 225.446 61.3704 224.973C61.3704 224.609 61.3704 199.274 61.3704 198.91C61.3704 198.437 60.606 198.053 59.6617 198.053Z" fill="#D35400"/>
<path d="M59.6507 187.479C53.7219 187.479 51.3618 192.1 51.3618 194.397V203.116V206.137C51.3618 208.433 53.3972 213.054 59.6507 213.054C65.5784 213.054 67.9385 208.433 67.9385 206.137V204.742V203.116V194.397C67.9385 192.1 65.903 187.479 59.6507 187.479Z" fill="#43761C"/>
<path d="M66.572 191.937C66.3866 194.145 63.3235 195.73 59.7285 195.479C56.1346 195.227 53.3698 193.234 53.5551 191.027C53.7394 188.819 56.8025 187.233 60.3975 187.484C63.9914 187.735 66.7562 189.729 66.572 191.937Z" fill="#7BA525"/>
<path d="M64.9928 190.131C64.8129 191.063 63.0022 191.494 60.9492 191.092C58.8962 190.692 57.3794 189.611 57.5593 188.679C57.7402 187.746 59.5509 187.315 61.6039 187.716C63.6559 188.117 65.1737 189.198 64.9928 190.131Z" fill="#9BBE23"/>
<path d="M63.2151 188.911C63.146 189.265 62.4605 189.428 61.6819 189.276C60.9043 189.124 60.3285 188.715 60.3976 188.361C60.4656 188.007 61.1521 187.844 61.9297 187.996C62.7084 188.149 63.2831 188.558 63.2151 188.911Z" fill="#C3DE59"/>
<path d="M59.6507 209.721C54.2395 209.721 51.9463 207.885 51.3848 206.565C51.6162 208.96 53.7635 213.054 59.6507 213.054C65.2593 213.054 67.6709 208.92 67.9155 206.53C67.3167 207.852 64.825 209.721 59.6507 209.721Z" fill="#396910"/>
<path d="M63.748 208.854C63.5528 208.854 63.363 208.832 63.1766 208.799V214.111C63.1766 214.391 62.9496 214.618 62.6699 214.618H60.516C60.2495 214.618 60.0356 214.41 60.0159 214.149C59.405 214.46 58.7251 214.628 58.0374 214.637C58.2798 215.785 59.2964 216.646 60.516 216.646H62.6699C64.0693 216.646 65.2044 215.511 65.2044 214.111V208.674C64.7383 208.791 64.2492 208.854 63.748 208.854Z" fill="#D35400"/>
<path d="M54.6158 207.524C54.811 207.524 55.0007 207.501 55.1872 207.469V212.781C55.1872 213.061 55.4142 213.288 55.6939 213.288H57.8478C58.1143 213.288 58.3271 213.079 58.3468 212.817C58.9577 213.13 59.6387 213.298 60.3253 213.307C60.0829 214.453 59.0663 215.315 57.8478 215.315H55.6939C54.2945 215.315 53.1594 214.18 53.1594 212.781V207.344C53.6255 207.461 54.1146 207.524 54.6158 207.524Z" fill="#D35400"/>
<path d="M64.3456 200.448C60.8767 200.448 59.4949 203.152 59.4949 204.496V209.6V211.367C59.4949 212.711 60.6859 215.415 64.3456 215.415C67.8156 215.415 69.1975 212.711 69.1975 211.367V210.55V209.6V204.496C69.1975 203.152 68.0054 200.448 64.3456 200.448Z" fill="#61913D"/>
<path d="M68.3971 203.057C68.2886 204.348 66.4965 205.276 64.3919 205.129C62.2884 204.982 60.6708 203.815 60.7783 202.524C60.8868 201.232 62.68 200.303 64.7834 200.451C66.8869 200.598 68.5046 201.765 68.3971 203.057Z" fill="#9BC04E"/>
<path d="M67.4735 201.999C67.3671 202.546 66.3077 202.797 65.1068 202.562C63.9048 202.327 63.0165 201.694 63.1228 201.149C63.2281 200.603 64.2876 200.351 65.4895 200.586C66.6904 200.82 67.5788 201.453 67.4735 201.999Z" fill="#BAD950"/>
<path d="M66.4327 201.285C66.3921 201.492 65.9907 201.588 65.5356 201.499C65.0794 201.41 64.7438 201.17 64.7832 200.964C64.8238 200.756 65.2252 200.661 65.6804 200.75C66.1355 200.839 66.4722 201.079 66.4327 201.285Z" fill="#E4F991"/>
<path d="M64.3458 213.464C61.1796 213.464 59.8373 212.391 59.5083 211.617C59.6443 213.02 60.9011 215.415 64.3458 215.415C67.6294 215.415 69.0409 212.996 69.1835 211.596C68.8336 212.371 67.375 213.464 64.3458 213.464Z" fill="#55842C"/>
<path d="M53.9521 201.324C51.0962 201.324 49.9589 203.55 49.9589 204.657V208.857V210.312C49.9589 211.418 50.9394 213.644 53.9521 213.644C56.8079 213.644 57.9452 211.418 57.9452 210.312V209.64V208.857V204.657C57.9452 203.55 56.9647 201.324 53.9521 201.324Z" fill="#61913D"/>
<path d="M57.2861 203.471C57.1973 204.535 55.7211 205.299 53.9894 205.178C52.2577 205.057 50.9263 204.096 51.0151 203.032C51.104 201.97 52.5801 201.205 54.3118 201.326C56.0436 201.447 57.375 202.408 57.2861 203.471Z" fill="#9BC04E"/>
<path d="M56.5262 202.601C56.4385 203.051 55.5666 203.258 54.5774 203.065C53.5892 202.871 52.8577 202.351 52.9443 201.902C53.0321 201.452 53.904 201.245 54.8932 201.438C55.8813 201.632 56.6128 202.152 56.5262 202.601Z" fill="#BAD950"/>
<path d="M55.6687 202.013C55.6358 202.185 55.3057 202.262 54.9306 202.19C54.5566 202.117 54.2792 201.919 54.3121 201.749C54.345 201.578 54.6751 201.5 55.0502 201.573C55.4252 201.646 55.7027 201.843 55.6687 202.013Z" fill="#E4F991"/>
<path d="M53.9524 212.038C51.3455 212.038 50.24 211.155 49.9702 210.518C50.0821 211.672 51.1163 213.644 53.9524 213.644C56.6547 213.644 57.8161 211.652 57.9334 210.501C57.645 211.138 56.4452 212.038 53.9524 212.038Z" fill="#55842C"/>
<path d="M113.86 258.887L164.934 229.848V225.17L113.86 254.207V258.887Z" fill="#AAB7B7"/>
<path d="M113.86 258.887L63.2753 229.758V225.08L113.86 254.207V258.887Z" fill="#BDC3C7"/>
<path d="M89.8508 191.395V239.5L114.035 253.356V219.214L89.8508 191.395Z" fill="#AAB7B7"/>
<path d="M65.666 166.261V225.643L89.8507 239.5V159.883L65.666 166.261Z" fill="#AAB7B7"/>
<path d="M114.036 253.356V219.214L163.099 191.104V225.246L114.036 253.356Z" fill="#DBDBDB"/>
<path d="M89.8508 194.025V159.883L138.914 131.773V165.915L89.8508 194.025Z" fill="#DBDBDB"/>
<path d="M88.4438 190.978L114.036 220.416L165.22 191.091L139.628 161.653L88.4438 190.978Z" fill="#284F54"/>
<path d="M88.4438 190.978V194.141L111.961 221.192L114.036 220.416L88.4438 190.978Z" fill="#566472"/>
<path d="M146.718 210.24L155.745 205.039L156.244 205.482L147.216 224.367L146.718 223.924V210.24Z" fill="#EFF3F3"/>
<path d="M147.215 210.683L156.243 205.482V219.166L147.215 224.367V210.683Z" fill="#BDC3C7"/>
<path d="M155.181 218.553V207.32L148.278 211.297V222.53L155.181 218.553Z" fill="#566472"/>
<path d="M155.862 210.197V211.278L147.714 215.972V214.89L155.862 210.197Z" fill="#BDC3C7"/>
<path d="M155.862 214.128V215.209L147.714 219.903V218.822L155.862 214.128Z" fill="#BDC3C7"/>
<path d="M151.266 209.011L152.288 208.421V220.616L151.266 221.205V209.011Z" fill="#BDC3C7"/>
<path d="M128.841 220.534L137.869 215.333L138.367 215.776L129.34 234.66L128.842 234.217L128.841 220.534Z" fill="#EFF3F3"/>
<path d="M129.34 220.977L138.367 215.776V229.46L129.34 234.66V220.977Z" fill="#BDC3C7"/>
<path d="M137.305 228.847V217.613L130.401 221.591V232.823L137.305 228.847Z" fill="#566472"/>
<path d="M137.985 220.49V221.572L129.838 226.266V225.184L137.985 220.49Z" fill="#BDC3C7"/>
<path d="M137.985 224.421V225.503L129.838 230.197V229.114L137.985 224.421Z" fill="#BDC3C7"/>
<path d="M133.389 219.303L134.411 218.715V230.91L133.389 231.499V219.303Z" fill="#BDC3C7"/>
<path d="M120.728 150.409L129.755 145.208L130.254 145.651L121.226 164.536L120.728 164.094V150.409Z" fill="#EFF3F3"/>
<path d="M121.225 150.852L130.253 145.651V159.335L121.225 164.536V150.852Z" fill="#BDC3C7"/>
<path d="M129.191 158.722V147.489L122.288 151.466V162.699L129.191 158.722Z" fill="#566472"/>
<path d="M129.872 150.366V151.447L121.724 156.141V155.059L129.872 150.366Z" fill="#BDC3C7"/>
<path d="M129.872 154.297V155.378L121.724 160.072V158.991L129.872 154.297Z" fill="#BDC3C7"/>
<path d="M125.276 149.179L126.298 148.591V160.785L125.276 161.374V149.179Z" fill="#BDC3C7"/>
<path d="M102.851 160.703L111.879 155.502L112.377 155.945L103.35 174.829L102.851 174.386V160.703Z" fill="#EFF3F3"/>
<path d="M103.35 161.146L112.377 155.945V169.629L103.35 174.829V161.146Z" fill="#BDC3C7"/>
<path d="M111.316 169.014V157.782L104.412 161.76V172.992L111.316 169.014Z" fill="#566472"/>
<path d="M111.996 160.659V161.741L103.848 166.435V165.353L111.996 160.659Z" fill="#BDC3C7"/>
<path d="M111.996 164.59V165.672L103.848 170.366V169.283L111.996 164.59Z" fill="#BDC3C7"/>
<path d="M107.399 159.472L108.421 158.884V171.079L107.399 171.667V159.472Z" fill="#BDC3C7"/>
<path d="M106.164 224.107L97.1373 218.906L96.6395 219.349L105.666 238.234L106.164 237.79V224.107Z" fill="#EFF3F3"/>
<path d="M105.666 224.55L96.6395 219.349V233.033L105.666 238.234V224.55Z" fill="#BDC3C7"/>
<path d="M97.7011 232.419V221.186L104.605 225.164V236.397L97.7011 232.419Z" fill="#566472"/>
<path d="M97.0201 224.063V225.144L105.169 229.838V228.757L97.0201 224.063Z" fill="#BDC3C7"/>
<path d="M97.0201 227.994V229.075L105.169 233.769V232.687L97.0201 227.994Z" fill="#BDC3C7"/>
<path d="M101.616 222.876L100.595 222.287V234.483L101.616 235.071V222.876Z" fill="#BDC3C7"/>
<path d="M81.1945 174.337L72.1664 169.135L71.6685 169.578L80.6955 188.464L81.1945 188.021V174.337Z" fill="#EFF3F3"/>
<path d="M80.6955 174.779L71.6685 169.578V183.263L80.6955 188.464V174.779Z" fill="#BDC3C7"/>
<path d="M72.7311 182.649V171.416L79.6338 175.393V186.625L72.7311 182.649Z" fill="#566472"/>
<path d="M72.0501 174.293V175.374L80.1976 180.068V178.987L72.0501 174.293Z" fill="#BDC3C7"/>
<path d="M72.0501 178.224V179.305L80.1976 183.999V182.918L72.0501 178.224Z" fill="#BDC3C7"/>
<path d="M76.6463 173.106L75.6241 172.517V184.712L76.6463 185.301V173.106Z" fill="#BDC3C7"/>
<path d="M81.1944 196.422L75.3742 193.094L74.8763 193.537L80.6954 228.784L81.1944 228.341V196.422Z" fill="#EFF3F3"/>
<path d="M80.6954 196.866L74.8763 193.537V225.455L80.6954 228.784V196.866Z" fill="#BDC3C7"/>
<path d="M75.938 224.843V195.375L79.6339 197.479V226.946L75.938 224.843Z" fill="#566472"/>
<path d="M75.396 199.152V200.233L80.3367 203.055V201.973L75.396 199.152Z" fill="#BDC3C7"/>
<path d="M75.396 203.083V204.164L80.3367 206.986V205.905L75.396 203.083Z" fill="#BDC3C7"/>
<path d="M75.396 207.242V208.323L80.3367 211.143V210.062L75.396 207.242Z" fill="#BDC3C7"/>
<path d="M75.396 211.399V212.481L80.3367 215.302V214.221L75.396 211.399Z" fill="#BDC3C7"/>
<path d="M75.396 215.558V216.639L80.3367 219.46V218.379L75.396 215.558Z" fill="#BDC3C7"/>
<path d="M75.396 219.715V220.797L80.3367 223.619V222.536L75.396 219.715Z" fill="#BDC3C7"/>
<path d="M99.2573 208.288L93.2462 204.794L92.7483 205.237L98.7594 215.125L99.2573 214.682V208.288Z" fill="#EFF3F3"/>
<path d="M98.7594 208.731L92.7483 205.237V211.631L98.7594 215.125V208.731Z" fill="#BDC3C7"/>
<path d="M93.81 211.018V207.075L97.6978 209.345V213.288L93.81 211.018Z" fill="#566472"/>
<path d="M63.4508 168.205L89.0985 161.442L141.13 131.633V130L63.4508 166.573V168.205Z" fill="#566472"/>
<path d="M63.4508 166.573L89.0985 159.81L141.13 130L115.482 136.763L63.4508 166.573Z" fill="#3D576D"/>
<path d="M92.3951 215.585L83.367 210.385L82.8691 210.828L91.8961 241.487L92.3951 241.044V215.585Z" fill="#EFF3F3"/>
<path d="M91.8972 216.028L82.8691 210.828V241.128L91.8961 246.328L91.8972 216.028Z" fill="#BDC3C7"/>
<path d="M83.9308 241.719V212.665L90.8346 216.642V245.697L83.9308 241.719Z" fill="#C1382A"/>
<path d="M72.83 244.266L82.1608 239.173L86.8569 248.631L83.478 250.492L72.83 244.266Z" fill="#EFF3F3"/>
<path d="M83.4778 252.064L92.8086 246.798V245.226L83.4778 250.492V252.064Z" fill="#AAB7B7"/>
<path d="M83.478 252.064L72.83 245.837V244.265L83.478 250.492V252.064Z" fill="#BDC3C7"/>
<path d="M75.8667 240.95L82.1607 237.574L89.8936 245.315L86.5146 247.176L75.8667 240.95Z" fill="#EFF3F3"/>
<path d="M86.5147 249.369L92.8087 245.2V243.627L86.5147 247.176V249.369Z" fill="#AAB7B7"/>
<path d="M86.5147 248.749L75.8667 242.521V240.95L86.5147 247.176V248.749Z" fill="#BDC3C7"/>
<path d="M78.7816 237.694L82.1606 236.005L92.8086 242.059L89.4296 243.92L78.7816 237.694Z" fill="#EFF3F3"/>
<path d="M89.4297 246.304L92.8087 243.631V242.059L89.4297 243.92V246.304Z" fill="#AAB7B7"/>
<path d="M89.4296 245.492L78.7816 239.266V237.694L89.4296 243.92V245.492Z" fill="#BDC3C7"/>
<path d="M62.6327 213.668C61.7542 213.668 61.0424 214.025 61.0424 214.465C61.0424 214.804 61.0424 238.385 61.0424 238.724C61.0424 238.84 61.0929 238.952 61.1828 239.052V238.993C61.3133 239.138 61.5271 239.26 61.7937 239.343V239.401C62.0371 239.477 62.3245 239.521 62.6327 239.521C63.51 239.521 64.2218 239.164 64.2218 238.724C64.2218 238.385 64.2218 214.804 64.2218 214.465C64.2218 214.025 63.51 213.668 62.6327 213.668Z" fill="#D35400"/>
<path d="M62.4551 200.26C58.6079 200.26 52.1746 219.284 52.1746 223.401C52.1746 226.25 54.6992 231.982 62.4551 231.982C69.8086 231.982 72.7368 226.25 72.7368 223.401C72.7368 219.284 65.2989 200.26 62.4551 200.26Z" fill="#43761C"/>
<path d="M62.8246 223.746C63.7031 215.715 62.4485 200.261 62.4485 200.261C58.6001 200.283 52.0747 219.289 52.1745 223.401C52.2819 227.801 62.2576 228.936 62.8246 223.746Z" fill="#7BA525"/>
<path d="M57.1051 222.733C55.1782 222.673 53.362 221.697 53.3686 220.726C53.3916 217.434 57.6074 206.655 60.6168 201.976C62.3386 199.982 60.8734 215.843 60.1298 221.116C59.9072 222.698 57.7577 222.753 57.1051 222.733Z" fill="#9BBE23"/>
<path d="M63.2304 228.531C56.5854 229.347 53.4401 227.463 53.4401 227.463C54.8779 229.802 57.6712 231.982 62.455 231.982C69.4137 231.982 72.4044 226.853 72.7071 223.888C71.9646 225.529 67.853 227.963 63.2304 228.531Z" fill="#396910"/>
<path d="M59.779 208.652C58.8479 211.365 57.6645 213.417 57.137 213.236C56.6084 213.055 56.9352 210.708 57.8663 207.996C58.7974 205.283 59.9808 203.23 60.5083 203.412C61.0358 203.593 60.709 205.938 59.779 208.652Z" fill="#C3DE59"/>
<path d="M43.3557 211.431C42.6549 211.431 42.0857 211.716 42.0857 212.068C42.0857 212.339 42.0857 231.178 42.0857 231.448C42.0857 231.541 42.1263 231.63 42.1987 231.71V231.664C42.3028 231.779 42.4728 231.877 42.6867 231.943V231.99C42.8808 232.05 43.11 232.085 43.3557 232.085C44.0576 232.085 44.6268 231.8 44.6268 231.448C44.6268 231.178 44.6268 212.339 44.6268 212.068C44.6268 211.716 44.0576 211.431 43.3557 211.431Z" fill="#D35400"/>
<path d="M43.2155 200.718C40.1414 200.718 35.0011 215.918 35.0011 219.208C35.0011 221.482 37.018 226.062 43.2155 226.062C49.0895 226.062 51.4287 221.482 51.4287 219.208C51.4287 215.918 45.4868 200.718 43.2155 200.718Z" fill="#43761C"/>
<path d="M43.5104 219.482C44.2123 213.066 43.2099 200.719 43.2099 200.719C40.1347 200.737 34.9209 215.921 35.001 219.208C35.0865 222.721 43.0563 223.628 43.5104 219.482Z" fill="#7BA525"/>
<path d="M38.9405 218.674C37.4007 218.626 35.9498 217.845 35.9553 217.069C35.9739 214.439 39.3419 205.828 41.747 202.089C43.1212 200.498 41.9521 213.168 41.3566 217.381C41.1789 218.645 39.4626 218.689 38.9405 218.674Z" fill="#9BBE23"/>
<path d="M43.8339 223.305C38.5259 223.957 36.0122 222.452 36.0122 222.452C37.1616 224.321 39.3923 226.062 43.2154 226.062C48.7735 226.062 51.1633 221.965 51.4046 219.596C50.8123 220.908 47.5277 222.851 43.8339 223.305Z" fill="#396910"/>
<path d="M41.0757 207.424C40.3321 209.591 39.3879 211.23 38.9656 211.086C38.5434 210.941 38.8044 209.067 39.5491 206.899C40.2927 204.731 41.238 203.092 41.6592 203.236C42.0814 203.381 41.8204 205.256 41.0757 207.424Z" fill="#C3DE59"/>
<path d="M122.932 247.229C122.055 247.229 121.343 247.586 121.343 248.026C121.343 248.365 121.343 271.945 121.343 272.284C121.343 272.402 121.393 272.512 121.483 272.612V272.554C121.614 272.699 121.828 272.82 122.094 272.904V272.962C122.338 273.037 122.625 273.082 122.932 273.082C123.81 273.082 124.522 272.725 124.522 272.284C124.522 271.945 124.522 248.365 124.522 248.026C124.522 247.586 123.81 247.229 122.932 247.229Z" fill="#D35400"/>
<path d="M122.755 223.011C118.908 223.011 112.475 252.846 112.475 256.962C112.475 259.81 114.999 265.542 122.755 265.542C130.109 265.542 133.037 259.81 133.037 256.962C133.037 252.846 125.599 223.011 122.755 223.011Z" fill="#43761C"/>
<path d="M123.125 257.306C124.004 249.275 122.749 223.11 122.749 223.11C118.901 223.132 112.374 252.849 112.475 256.962C112.582 261.361 122.557 262.497 123.125 257.306Z" fill="#7BA525"/>
<path d="M117.404 256.294C115.479 256.234 113.663 255.259 113.669 254.286C113.692 250.995 118.189 229.082 121.198 224.402C122.919 222.409 121.174 249.403 120.429 254.677C120.208 256.259 118.058 256.314 117.404 256.294Z" fill="#9BBE23"/>
<path d="M123.531 262.091C116.886 262.907 113.741 261.023 113.741 261.023C115.178 263.362 117.972 265.542 122.756 265.542C129.713 265.542 132.705 260.414 133.008 257.449C132.265 259.091 128.154 261.523 123.531 262.091Z" fill="#396910"/>
<path d="M120.833 233.878C119.95 238.129 118.633 241.45 117.89 241.295C117.149 241.142 117.262 237.571 118.144 233.32C119.027 229.069 120.344 225.749 121.086 225.903C121.829 226.058 121.715 229.627 120.833 233.878Z" fill="#C3DE59"/>
<path d="M169.167 211.593C168.177 211.593 167.374 211.996 167.374 212.493C167.374 212.874 167.374 239.47 167.374 239.852C167.374 239.984 167.431 240.109 167.532 240.222V240.156C167.679 240.32 167.92 240.457 168.222 240.551V240.617C168.496 240.702 168.82 240.752 169.167 240.752C170.157 240.752 170.96 240.349 170.96 239.852C170.96 239.47 170.96 212.874 170.96 212.493C170.96 211.996 170.157 211.593 169.167 211.593Z" fill="#D35400"/>
<path d="M169.155 200.493C162.932 200.493 160.454 205.344 160.454 207.755V216.908V220.079C160.454 222.489 162.59 227.34 169.155 227.34C175.378 227.34 177.856 222.489 177.856 220.079V218.614V216.908V207.755C177.856 205.344 175.719 200.493 169.155 200.493Z" fill="#43761C"/>
<path d="M176.421 205.172C176.226 207.489 173.011 209.154 169.237 208.891C165.463 208.627 162.561 206.534 162.756 204.217C162.95 201.899 166.165 200.235 169.939 200.498C173.712 200.762 176.614 202.855 176.421 205.172Z" fill="#7BA525"/>
<path d="M174.764 203.276C174.574 204.255 172.673 204.707 170.518 204.286C168.363 203.865 166.771 202.731 166.961 201.751C167.15 200.773 169.05 200.32 171.205 200.741C173.36 201.163 174.954 202.297 174.764 203.276Z" fill="#9BBE23"/>
<path d="M172.896 201.996C172.825 202.368 172.104 202.539 171.287 202.379C170.471 202.219 169.867 201.79 169.939 201.419C170.011 201.047 170.731 200.876 171.548 201.036C172.364 201.195 172.968 201.625 172.896 201.996Z" fill="#C3DE59"/>
<path d="M169.155 223.841C163.475 223.841 161.067 221.914 160.478 220.528C160.721 223.043 162.975 227.34 169.155 227.34C175.043 227.34 177.575 223 177.83 220.491C177.203 221.879 174.587 223.841 169.155 223.841Z" fill="#396910"/>
<path d="M173.457 222.931C173.252 222.931 173.053 222.908 172.857 222.873V228.45C172.857 228.744 172.619 228.982 172.325 228.982H170.063C169.784 228.982 169.56 228.763 169.539 228.488C168.898 228.816 168.184 228.992 167.462 229.002C167.716 230.206 168.784 231.11 170.063 231.11H172.325C173.794 231.11 174.985 229.919 174.985 228.45V222.742C174.496 222.865 173.982 222.931 173.457 222.931Z" fill="#D35400"/>
<path d="M174.084 214.106C170.442 214.106 168.992 216.945 168.992 218.356V223.713V225.569C168.992 226.98 170.242 229.819 174.084 229.819C177.726 229.819 179.177 226.98 179.177 225.569V224.712V223.713V218.356C179.177 216.945 177.926 214.106 174.084 214.106Z" fill="#61913D"/>
<path d="M178.337 216.844C178.223 218.201 176.341 219.176 174.132 219.021C171.924 218.867 170.226 217.641 170.34 216.286C170.453 214.929 172.335 213.955 174.543 214.109C176.752 214.263 178.45 215.489 178.337 216.844Z" fill="#9BC04E"/>
<path d="M177.366 215.736C177.255 216.308 176.143 216.572 174.882 216.327C173.621 216.08 172.689 215.415 172.799 214.843C172.91 214.27 174.023 214.005 175.285 214.252C176.546 214.498 177.478 215.162 177.366 215.736Z" fill="#BAD950"/>
<path d="M174.084 227.771C170.759 227.771 169.35 226.643 169.006 225.832C169.148 227.304 170.468 229.819 174.084 229.819C177.531 229.819 179.012 227.279 179.161 225.81C178.794 226.624 177.264 227.771 174.084 227.771Z" fill="#55842C"/>
<path d="M155.429 252.865C158.366 252.865 160.642 251.38 160.642 250.34C160.642 248.922 160.642 246.983 160.642 246.983C160.642 245.539 159.361 242.633 155.429 242.633C151.702 242.633 150.217 245.539 150.217 246.983C150.217 246.983 150.217 249.333 150.217 250.383C150.217 251.395 152.385 252.865 155.429 252.865Z" fill="#61913D"/>
<path d="M159.781 245.437C159.665 246.824 157.738 247.822 155.479 247.664C153.219 247.505 151.48 246.252 151.597 244.864C151.712 243.476 153.639 242.479 155.899 242.637C158.159 242.795 159.897 244.048 159.781 245.437Z" fill="#9BC04E"/>
<path d="M158.789 244.301C158.675 244.887 157.537 245.158 156.246 244.906C154.955 244.654 154.001 243.974 154.115 243.388C154.228 242.801 155.366 242.53 156.657 242.783C157.948 243.035 158.902 243.715 158.789 244.301Z" fill="#BAD950"/>
<path d="M157.67 243.534C157.628 243.757 157.196 243.859 156.706 243.763C156.217 243.668 155.856 243.41 155.899 243.188C155.942 242.966 156.373 242.864 156.862 242.959C157.352 243.055 157.713 243.312 157.67 243.534Z" fill="#E4F991"/>
<path d="M146.375 258.842C150.272 258.842 153.292 256.872 153.292 255.493C153.292 253.611 153.292 251.036 153.292 251.036C153.292 249.121 151.593 245.265 146.375 245.265C141.428 245.265 139.458 249.121 139.458 251.036C139.458 251.036 139.458 254.156 139.458 255.548C139.458 256.892 142.334 258.842 146.375 258.842Z" fill="#43761C"/>
<path d="M152.15 248.983C151.996 250.826 149.439 252.15 146.44 251.94C143.44 251.729 141.134 250.067 141.287 248.224C141.442 246.382 143.998 245.058 146.998 245.269C149.997 245.478 152.304 247.142 152.15 248.983Z" fill="#7BA525"/>
<path d="M150.834 247.476C150.682 248.255 149.171 248.614 147.459 248.279C145.746 247.945 144.479 247.043 144.631 246.265C144.781 245.487 146.292 245.127 148.004 245.462C149.717 245.797 150.984 246.699 150.834 247.476Z" fill="#9BBE23"/>
<path d="M149.349 246.46C149.292 246.755 148.719 246.891 148.07 246.763C147.421 246.636 146.941 246.295 146.998 246C147.055 245.705 147.628 245.569 148.277 245.695C148.926 245.823 149.406 246.165 149.349 246.46Z" fill="#C3DE59"/>
<path d="M138.421 261.499C141.055 261.499 143.096 260.167 143.096 259.234C143.096 257.962 143.096 256.223 143.096 256.223C143.096 254.928 141.948 252.321 138.421 252.321C135.077 252.321 133.746 254.928 133.746 256.223C133.746 256.223 133.746 258.332 133.746 259.273C133.746 260.181 135.69 261.499 138.421 261.499Z" fill="#61913D"/>
<path d="M142.325 254.836C142.221 256.08 140.493 256.975 138.466 256.833C136.438 256.691 134.879 255.567 134.983 254.322C135.087 253.076 136.815 252.182 138.842 252.324C140.87 252.466 142.429 253.59 142.325 254.836Z" fill="#9BC04E"/>
<path d="M141.435 253.817C141.333 254.343 140.312 254.585 139.154 254.36C137.996 254.134 137.14 253.524 137.242 252.997C137.344 252.472 138.365 252.229 139.523 252.454C140.68 252.681 141.537 253.29 141.435 253.817Z" fill="#BAD950"/>
<path d="M140.431 253.129C140.393 253.329 140.006 253.421 139.567 253.335C139.128 253.249 138.804 253.018 138.842 252.819C138.882 252.619 139.268 252.527 139.707 252.612C140.146 252.699 140.47 252.93 140.431 253.129Z" fill="#E4F991"/>
<path d="M94.3254 254.64C97.2624 254.64 99.537 253.155 99.537 252.115C99.537 250.697 99.537 248.759 99.537 248.759C99.537 247.314 98.2571 244.409 94.3254 244.409C90.5977 244.409 89.1138 247.314 89.1138 248.759C89.1138 248.759 89.1138 251.109 89.1138 252.158C89.1138 253.171 91.2809 254.64 94.3254 254.64Z" fill="#61913D"/>
<path d="M98.677 247.212C98.5618 248.599 96.6349 249.598 94.3746 249.438C92.1143 249.281 90.3771 248.027 90.4922 246.64C90.6085 245.251 92.5354 244.254 94.7946 244.412C97.0549 244.57 98.7932 245.824 98.677 247.212Z" fill="#9BC04E"/>
<path d="M97.6846 246.076C97.5717 246.663 96.4333 246.934 95.1425 246.681C93.8516 246.429 92.8975 245.749 93.0116 245.162C93.1245 244.577 94.2629 244.306 95.5537 244.558C96.8446 244.81 97.7987 245.49 97.6846 246.076Z" fill="#BAD950"/>
<path d="M96.5673 245.309C96.5235 245.532 96.0924 245.634 95.6033 245.539C95.1142 245.443 94.7523 245.186 94.7961 244.964C94.8389 244.741 95.2699 244.638 95.7591 244.734C96.2482 244.83 96.6101 245.087 96.5673 245.309Z" fill="#E4F991"/>
<path d="M160.692 237.024C162.713 237.024 164.278 236.001 164.278 235.286C164.278 234.311 164.278 232.976 164.278 232.976C164.278 231.982 163.398 229.983 160.692 229.983C158.127 229.983 157.105 231.982 157.105 232.976C157.105 232.976 157.105 234.593 157.105 235.315C157.105 236.013 158.596 237.024 160.692 237.024Z" fill="#43761C"/>
<path d="M163.687 231.912C163.607 232.867 162.281 233.553 160.726 233.444C159.171 233.336 157.974 232.472 158.054 231.517C158.133 230.562 159.459 229.877 161.015 229.985C162.57 230.093 163.766 230.956 163.687 231.912Z" fill="#7BA525"/>
<path d="M163.004 231.13C162.926 231.534 162.142 231.72 161.253 231.547C160.365 231.372 159.709 230.905 159.787 230.502C159.865 230.098 160.649 229.911 161.536 230.085C162.425 230.259 163.082 230.727 163.004 231.13Z" fill="#9BBE23"/>
<path d="M162.234 230.603C162.204 230.755 161.907 230.827 161.57 230.761C161.234 230.695 160.986 230.517 161.015 230.365C161.045 230.211 161.341 230.141 161.678 230.207C162.015 230.273 162.263 230.449 162.234 230.603Z" fill="#C3DE59"/>
<path d="M155.338 240.455C157.359 240.455 158.925 239.433 158.925 238.718C158.925 237.742 158.925 236.407 158.925 236.407C158.925 235.414 158.044 233.414 155.338 233.414C152.772 233.414 151.751 235.414 151.751 236.407C151.751 236.407 151.751 238.025 151.751 238.748C151.751 239.444 153.243 240.455 155.338 240.455Z" fill="#43761C"/>
<path d="M158.333 235.343C158.253 236.299 156.928 236.986 155.372 236.875C153.817 236.767 152.62 235.905 152.7 234.95C152.78 233.994 154.106 233.308 155.661 233.417C157.216 233.525 158.413 234.388 158.333 235.343Z" fill="#7BA525"/>
<path d="M157.65 234.562C157.572 234.965 156.789 235.152 155.9 234.978C155.012 234.804 154.355 234.337 154.433 233.933C154.512 233.53 155.295 233.343 156.183 233.516C157.072 233.691 157.729 234.158 157.65 234.562Z" fill="#9BBE23"/>
<path d="M156.881 234.034C156.851 234.188 156.554 234.258 156.217 234.192C155.881 234.127 155.632 233.949 155.661 233.796C155.691 233.643 155.988 233.573 156.325 233.638C156.662 233.704 156.911 233.882 156.881 234.034Z" fill="#C3DE59"/>
<path d="M149.985 243.887C152.006 243.887 153.571 242.865 153.571 242.15C153.571 241.174 153.571 239.839 153.571 239.839C153.571 238.845 152.69 236.846 149.985 236.846C147.42 236.846 146.397 238.845 146.397 239.839C146.397 239.839 146.397 241.457 146.397 242.18C146.397 242.876 147.889 243.887 149.985 243.887Z" fill="#43761C"/>
<path d="M152.98 238.775C152.9 239.73 151.574 240.417 150.019 240.307C148.463 240.199 147.267 239.337 147.347 238.381C147.427 237.426 148.752 236.74 150.308 236.849C151.863 236.957 153.06 237.82 152.98 238.775Z" fill="#7BA525"/>
<path d="M152.296 237.993C152.219 238.397 151.434 238.583 150.546 238.41C149.658 238.236 149.002 237.768 149.08 237.365C149.158 236.961 149.942 236.775 150.829 236.949C151.717 237.123 152.374 237.59 152.296 237.993Z" fill="#9BBE23"/>
<path d="M151.527 237.466C151.497 237.619 151.2 237.689 150.863 237.623C150.528 237.558 150.279 237.38 150.308 237.228C150.338 237.075 150.634 237.004 150.971 237.07C151.307 237.135 151.556 237.313 151.527 237.466Z" fill="#C3DE59"/>
<defs>
<filter id="filter0_d_1_960" x="123.633" y="176.47" width="168.798" height="55.2561" filterUnits="userSpaceOnUse" color-interpolation-filters="sRGB">
<feFlood flood-opacity="0" result="BackgroundImageFix"/>
<feColorMatrix in="SourceAlpha" type="matrix" values="0 0 0 0 0 0 0 0 0 0 0 0 0 0 0 0 0 0 127 0" result="hardAlpha"/>
<feOffset dy="3.36712"/>
<feGaussianBlur stdDeviation="1.68356"/>
<feComposite in2="hardAlpha" operator="out"/>
<feColorMatrix type="matrix" values="0 0 0 0 0 0 0 0 0 0 0 0 0 0 0 0 0 0 0.15 0"/>
<feBlend mode="normal" in2="BackgroundImageFix" result="effect1_dropShadow_1_960"/>
<feBlend mode="normal" in="SourceGraphic" in2="effect1_dropShadow_1_960" result="shape"/>
</filter>
<filter id="filter1_d_1_960" x="33.3151" y="230.941" width="156.662" height="55.256" filterUnits="userSpaceOnUse" color-interpolation-filters="sRGB">
<feFlood flood-opacity="0" result="BackgroundImageFix"/>
<feColorMatrix in="SourceAlpha" type="matrix" values="0 0 0 0 0 0 0 0 0 0 0 0 0 0 0 0 0 0 127 0" result="hardAlpha"/>
<feOffset dy="3.36712"/>
<feGaussianBlur stdDeviation="1.68356"/>
<feComposite in2="hardAlpha" operator="out"/>
<feColorMatrix type="matrix" values="0 0 0 0 0 0 0 0 0 0 0 0 0 0 0 0 0 0 0.15 0"/>
<feBlend mode="normal" in2="BackgroundImageFix" result="effect1_dropShadow_1_960"/>
<feBlend mode="normal" in="SourceGraphic" in2="effect1_dropShadow_1_960" result="shape"/>
</filter>
<radialGradient id="paint0_radial_1_960" cx="0" cy="0" r="1" gradientUnits="userSpaceOnUse" gradientTransform="translate(167.686 183) rotate(84.5725) scale(161.904)">
<stop stop-color="#5CCAAB" stop-opacity="0.25"/>
<stop offset="1" stop-color="#5CCAAB" stop-opacity="0"/>
</radialGradient>
</defs>
</svg>
