<svg width="420" height="420" viewBox="0 0 420 420" fill="none" xmlns="http://www.w3.org/2000/svg">
<circle cx="210" cy="210" r="210" fill="url(#paint0_radial_1_1054)"/>
<g filter="url(#filter0_d_1_1054)">
<path d="M206.271 228.117L277.729 187.032V185.424L128.935 182.249V183.857L206.271 228.117Z" fill="#244A4A"/>
</g>
<path d="M206.271 226.508L277.729 185.424L200.395 141.163L128.935 182.249L206.271 226.508Z" fill="#3E8180"/>
<path d="M260.898 157.193C261.624 157.193 262.212 157.487 262.212 157.852C262.212 158.131 262.212 177.617 262.212 177.898C262.212 177.994 262.17 178.086 262.095 178.168V178.12C261.987 178.24 261.811 178.34 261.591 178.409V178.457C261.389 178.52 261.152 178.557 260.898 178.557C260.171 178.557 259.583 178.261 259.583 177.898C259.583 177.617 259.583 158.131 259.583 157.852C259.583 157.487 260.171 157.193 260.898 157.193Z" fill="#D35400"/>
<path d="M261.043 146.111C264.223 146.111 269.539 161.833 269.539 165.236C269.539 167.589 267.453 172.326 261.043 172.326C254.967 172.326 252.547 167.589 252.547 165.236C252.547 161.833 258.694 146.111 261.043 146.111Z" fill="#43761C"/>
<path d="M260.738 165.52C260.012 158.883 261.049 146.112 261.049 146.112C264.229 146.131 269.622 161.837 269.539 165.236C269.45 168.871 261.207 169.81 260.738 165.52Z" fill="#7BA525"/>
<path d="M265.465 164.683C267.057 164.634 268.558 163.827 268.552 163.024C268.534 160.304 265.05 151.397 262.562 147.53C261.14 145.883 262.35 158.989 262.965 163.347C263.149 164.654 264.924 164.7 265.465 164.683Z" fill="#9BBE23"/>
<path d="M260.402 169.474C265.894 170.149 268.493 168.592 268.493 168.592C267.305 170.525 264.996 172.326 261.043 172.326C255.293 172.326 252.821 168.088 252.572 165.638C253.185 166.994 256.583 169.005 260.402 169.474Z" fill="#396910"/>
<path d="M263.255 153.047C264.025 155.289 265.003 156.985 265.438 156.835C265.874 156.685 265.605 154.746 264.835 152.505C264.066 150.262 263.088 148.566 262.652 148.716C262.216 148.866 262.486 150.805 263.255 153.047Z" fill="#C3DE59"/>
<path d="M183.35 162.62L184.121 162.014L194.502 167.961V183.202L193.731 183.63L183.35 162.62Z" fill="white"/>
<path d="M183.35 177.683V162.441L193.731 168.39V183.63L183.35 177.683Z" fill="#DBDBDB"/>
<path d="M192.531 168.787L184.551 164.215V177.285L192.531 181.856V168.787Z" fill="#566472"/>
<path d="M188.6 166.107V179.97L188 179.626V165.763L188.6 166.107Z" fill="#DBDBDB"/>
<path d="M218.798 154.647L175.237 179.605L218.798 204.562L262.36 179.605L218.798 154.647Z" fill="#EFF3F3"/>
<path d="M262.36 183.834L218.799 208.792V204.562L262.36 179.605V183.834Z" fill="#DBDBDB"/>
<path d="M218.798 208.792L175.237 183.834V179.605L218.798 204.562V208.792Z" fill="#AAB7B7"/>
<path d="M157.023 166.895L135.644 178.96L179.207 203.917L200.585 191.853L157.023 166.895Z" fill="#EFF3F3"/>
<path d="M198.389 193.112L179.207 203.918V208.147L198.389 197.341V193.112Z" fill="#DBDBDB"/>
<path d="M179.207 208.147L135.644 183.19V178.96L179.207 203.918V208.147Z" fill="#AAB7B7"/>
<path d="M218.798 202.341V174.727L179.117 151.992V179.606L218.798 202.341Z" fill="#AAB7B7"/>
<path d="M179.452 201.557V173.944L158.387 133.173L138.573 150.782V178.396L179.452 201.557Z" fill="#AAB7B7"/>
<path d="M198.424 163.074L179.452 173.944V201.557L198.424 190.687V163.074Z" fill="#DBDBDB"/>
<path d="M238.639 134.65L258.48 151.992V159.05L258.462 179.9L248.715 185.2L218.799 202.341V174.727L238.639 134.65Z" fill="#DBDBDB"/>
<path d="M238.059 131.735L216.986 174.303L177.304 151.569L198.377 109L238.059 131.735Z" fill="#336971"/>
<path d="M260.293 151.169V152.276L258.48 153.315V151.992L238.639 134.65L218.798 174.727V176.05L216.986 177.089V174.303L238.059 131.735L260.293 151.169Z" fill="#34495E"/>
<path d="M216.986 177.089V174.303L177.304 151.569V154.353L216.986 177.089Z" fill="#34495E"/>
<path d="M200.839 172.844L201.61 172.237L211.99 178.185V193.427L211.22 193.855L200.839 172.844Z" fill="white"/>
<path d="M200.839 187.907V172.666L211.22 178.613V193.855L200.839 187.907Z" fill="#DBDBDB"/>
<path d="M210.02 179.012L202.039 174.439V187.508L210.02 192.081V179.012Z" fill="#566472"/>
<path d="M206.088 176.33V190.193L205.488 189.85V175.987L206.088 176.33Z" fill="#DBDBDB"/>
<path d="M237.623 172.666L236.852 172.237L226.471 178.185V193.427L227.242 193.855L237.623 172.666Z" fill="white"/>
<path d="M237.623 187.907V172.666L227.242 178.613V193.855L237.623 187.907Z" fill="#EFEFEF"/>
<path d="M228.442 179.012L236.423 174.439V187.508L228.442 192.081V179.012Z" fill="#566472"/>
<path d="M232.374 176.33V190.193L232.973 189.85V175.987L232.374 176.33Z" fill="#EFEFEF"/>
<path d="M245.159 144.724L244.388 144.296L238.33 147.7V162.687L239.1 163.115L245.159 144.724Z" fill="white"/>
<path d="M245.159 159.711V144.724L239.1 148.128V163.115L245.159 159.711Z" fill="#EFEFEF"/>
<path d="M240.301 148.526L243.959 146.498V159.313L240.301 161.341V148.526Z" fill="#566472"/>
<path d="M251.088 165.718L249.274 164.709L239.208 170.256V190.655L241.111 191.768L251.088 165.718Z" fill="white"/>
<path d="M251.127 186.04V165.708L241.022 171.264L241.111 191.768L251.127 186.04Z" fill="#EFEFEF"/>
<path d="M249.981 168.03L242.187 172.069V191.16L250.006 186.732L249.981 168.03Z" fill="#566472"/>
<path d="M192.824 175.273L192.053 174.666L185.995 178.07V193.058L186.765 193.486L192.824 175.273Z" fill="white"/>
<path d="M192.824 190.082V175.094L186.765 178.499V193.486L192.824 190.082Z" fill="#EFEFEF"/>
<path d="M187.966 178.897L191.624 176.869V189.683L187.966 191.712V178.897Z" fill="#566472"/>
<path d="M260.088 194.129L251.16 189.115L246.666 198.092L249.899 199.925L260.088 194.129Z" fill="#EFF3F3"/>
<path d="M249.899 201.429L240.972 196.248V194.744L249.899 199.925V201.429Z" fill="#AAB7B7"/>
<path d="M249.9 201.429L260.088 195.632V194.129L249.9 199.925V201.429Z" fill="#BDC3C7"/>
<path d="M257.183 190.91L251.16 187.585L243.761 194.873L246.995 196.706L257.183 190.91Z" fill="#EFF3F3"/>
<path d="M246.994 198.21L240.972 194.719V193.215L246.994 196.706V198.21Z" fill="#AAB7B7"/>
<path d="M246.994 198.21L257.182 192.415V190.91L246.994 196.706V198.21Z" fill="#BDC3C7"/>
<path d="M254.394 187.75L251.16 186.084L240.972 191.714L244.205 193.546L254.394 187.75Z" fill="#EFF3F3"/>
<path d="M244.205 195.05L240.972 193.217V191.714L244.205 193.546V195.05Z" fill="#AAB7B7"/>
<path d="M244.205 195.05L254.394 189.254V187.75L244.205 193.546V195.05Z" fill="#BDC3C7"/>
<path d="M198.522 202.702C196.095 202.702 194.216 201.475 194.216 200.617C194.216 199.445 194.216 197.842 194.216 197.842C194.216 196.649 195.273 194.248 198.522 194.248C201.603 194.248 202.829 196.649 202.829 197.842C202.829 197.842 202.829 199.785 202.829 200.651C202.829 201.488 201.038 202.702 198.522 202.702Z" fill="#61913D"/>
<path d="M194.926 196.564C195.022 197.711 196.613 198.535 198.481 198.404C200.349 198.274 201.786 197.238 201.69 196.091C201.594 194.943 200.002 194.119 198.135 194.25C196.267 194.381 194.83 195.416 194.926 196.564Z" fill="#9BC04E"/>
<path d="M195.745 195.625C195.84 196.11 196.781 196.333 197.847 196.125C198.914 195.916 199.703 195.355 199.608 194.87C199.514 194.386 198.573 194.162 197.507 194.37C196.44 194.579 195.652 195.141 195.745 195.625Z" fill="#BAD950"/>
<path d="M196.67 194.992C196.705 195.176 197.062 195.26 197.466 195.181C197.871 195.102 198.17 194.889 198.133 194.706C198.098 194.522 197.741 194.438 197.338 194.517C196.933 194.596 196.634 194.809 196.67 194.992Z" fill="#E4F991"/>
<path d="M206.005 207.642C202.784 207.642 200.289 206.013 200.289 204.873C200.289 203.319 200.289 201.192 200.289 201.192C200.289 199.608 201.692 196.421 206.005 196.421C210.093 196.421 211.721 199.608 211.721 201.192C211.721 201.192 211.721 203.769 211.721 204.92C211.721 206.03 209.344 207.642 206.005 207.642Z" fill="#43761C"/>
<path d="M201.232 199.495C201.358 201.018 203.471 202.111 205.951 201.938C208.429 201.765 210.335 200.39 210.208 198.868C210.081 197.346 207.969 196.252 205.489 196.425C203.011 196.598 201.104 197.973 201.232 199.495Z" fill="#7BA525"/>
<path d="M202.32 198.25C202.445 198.893 203.693 199.19 205.109 198.914C206.525 198.637 207.571 197.891 207.446 197.249C207.322 196.606 206.073 196.308 204.658 196.585C203.242 196.861 202.196 197.607 202.32 198.25Z" fill="#9BBE23"/>
<path d="M203.547 197.409C203.594 197.653 204.067 197.765 204.604 197.661C205.14 197.556 205.537 197.273 205.49 197.03C205.443 196.786 204.969 196.673 204.433 196.778C203.897 196.883 203.499 197.165 203.547 197.409Z" fill="#C3DE59"/>
<path d="M188.388 207.235C186.21 207.235 184.524 206.134 184.524 205.364C184.524 204.313 184.524 202.875 184.524 202.875C184.524 201.804 185.473 199.651 188.388 199.651C191.151 199.651 192.251 201.804 192.251 202.875C192.251 202.875 192.251 204.617 192.251 205.395C192.251 206.146 190.644 207.235 188.388 207.235Z" fill="#61913D"/>
<path d="M185.161 201.728C185.247 202.757 186.675 203.497 188.35 203.38C190.026 203.263 191.315 202.333 191.229 201.304C191.143 200.275 189.715 199.535 188.039 199.653C186.363 199.771 185.075 200.699 185.161 201.728Z" fill="#9BC04E"/>
<path d="M185.897 200.886C185.981 201.321 186.825 201.522 187.782 201.335C188.739 201.148 189.446 200.644 189.362 200.21C189.278 199.775 188.434 199.574 187.477 199.762C186.521 199.948 185.813 200.452 185.897 200.886Z" fill="#BAD950"/>
<path d="M186.726 200.319C186.758 200.483 187.078 200.559 187.44 200.488C187.803 200.417 188.071 200.226 188.039 200.061C188.007 199.897 187.688 199.821 187.325 199.892C186.962 199.963 186.694 200.154 186.726 200.319Z" fill="#E4F991"/>
<path d="M215.86 197.455C216.585 197.455 217.173 197.751 217.173 198.114C217.173 198.395 217.173 217.881 217.173 218.16C217.173 218.257 217.132 218.349 217.057 218.432V218.384C216.95 218.503 216.773 218.604 216.553 218.673V218.721C216.351 218.784 216.114 218.819 215.86 218.819C215.134 218.819 214.546 218.525 214.546 218.16C214.546 217.881 214.546 198.395 214.546 198.114C214.546 197.751 215.134 197.455 215.86 197.455Z" fill="#D35400"/>
<path d="M216.006 177.442C219.185 177.442 224.502 202.097 224.502 205.499C224.502 207.853 222.415 212.59 216.006 212.59C209.929 212.59 207.509 207.853 207.509 205.499C207.509 202.097 213.656 177.442 216.006 177.442Z" fill="#43761C"/>
<path d="M215.701 205.784C214.974 199.147 216.011 177.524 216.011 177.524C219.191 177.543 224.584 202.1 224.502 205.499C224.413 209.134 216.169 210.072 215.701 205.784Z" fill="#7BA525"/>
<path d="M220.428 204.946C222.019 204.897 223.52 204.091 223.514 203.288C223.496 200.567 219.78 182.46 217.292 178.592C215.87 176.945 217.312 199.253 217.928 203.611C218.112 204.917 219.887 204.963 220.428 204.946Z" fill="#9BBE23"/>
<path d="M215.366 209.737C220.856 210.412 223.456 208.855 223.456 208.855C222.267 210.787 219.959 212.59 216.005 212.59C210.256 212.59 207.784 208.352 207.534 205.902C208.147 207.257 211.545 209.268 215.366 209.737Z" fill="#396910"/>
<path d="M217.595 186.423C218.324 189.935 219.412 192.68 220.026 192.553C220.639 192.425 220.546 189.474 219.816 185.962C219.087 182.45 217.999 179.705 217.385 179.832C216.771 179.96 216.865 182.91 217.595 186.423Z" fill="#C3DE59"/>
<path d="M198.377 109L158.916 131.608L179.99 174.177L198.377 163.642V109Z" fill="#284F54"/>
<path d="M136.683 151.042V152.15L138.496 153.188V151.866L158.337 134.523L178.178 174.6V175.923L179.99 176.962V174.177L158.917 131.608L136.683 151.042Z" fill="#566472"/>
<path d="M198.377 163.642L179.99 174.177V176.962L198.377 166.427V163.642Z" fill="#34495E"/>
<path d="M160.845 171.675L161.617 171.068L171.997 177.016V192.258L171.226 192.686L160.845 171.675Z" fill="white"/>
<path d="M160.845 186.738V171.497L171.226 177.444V192.686L160.845 186.738Z" fill="#DBDBDB"/>
<path d="M170.026 177.843L162.045 173.271V186.34L170.026 190.912V177.843Z" fill="#566472"/>
<path d="M166.094 175.162V189.024L165.495 188.681V174.819L166.094 175.162Z" fill="#DBDBDB"/>
<path d="M151.575 142.711L152.346 142.104L162.727 148.052V163.293L161.956 163.721L151.575 142.711Z" fill="white"/>
<path d="M151.575 157.774V142.532L161.956 148.48V163.721L151.575 157.774Z" fill="#DBDBDB"/>
<path d="M160.757 148.878L152.776 144.306V157.375L160.757 161.947V148.878Z" fill="#566472"/>
<path d="M156.825 146.197V160.061L156.225 159.716V145.854L156.825 146.197Z" fill="#DBDBDB"/>
<path d="M143.309 161.824L144.08 161.217L154.461 167.165V182.406L153.69 182.835L143.309 161.824Z" fill="white"/>
<path d="M143.309 176.886V161.645L153.69 167.593V182.835L143.309 176.886Z" fill="#DBDBDB"/>
<path d="M152.49 167.991L144.509 163.419V176.488L152.49 181.061V167.991Z" fill="#566472"/>
<path d="M148.559 165.31V179.173L147.959 178.83V164.967L148.559 165.31Z" fill="#DBDBDB"/>
<path d="M108.403 165.947C108.369 166.123 108.027 166.204 107.641 166.129C107.255 166.053 106.969 165.849 107.003 165.673C107.036 165.498 107.378 165.417 107.765 165.492C108.151 165.568 108.437 165.772 108.403 165.947Z" fill="#E4F991"/>
<path d="M351.24 192.771L324.097 223.994L269.812 192.891L296.954 161.671L351.24 192.771Z" fill="#DBDBDB"/>
<g filter="url(#filter1_d_1_1054)">
<path d="M301.074 280.135L387.012 230.783V228.673L228 236.163V238.272L301.074 280.135Z" fill="#244A4A"/>
</g>
<path d="M301.074 278.026L387.012 228.674L313.94 186.811L228 236.163L301.074 278.026Z" fill="#3E8180"/>
<path d="M368.612 221.269L314.444 191.02L260.795 221.364L314.963 252.161L368.612 221.269Z" fill="#EFF3F3"/>
<path d="M314.963 257.123L260.795 226.326V221.364L314.963 252.161V257.123Z" fill="#AAB7B7"/>
<path d="M314.963 257.123L368.612 226.231V221.269L314.963 252.161V257.123Z" fill="#BDC3C7"/>
<path d="M351.149 194.706V211.427L325.498 226.123V189.914L351.149 194.706Z" fill="#C1382A"/>
<path d="M334.809 189.653L351.5 192.772V195.2L334.809 192.082V189.653Z" fill="#566472"/>
<path d="M338.226 200.051L345.852 195.657L346.273 196.031L338.647 218.64L338.226 218.266V200.051Z" fill="#EFF3F3"/>
<path d="M338.647 200.425L346.273 196.031V214.247L338.647 218.64V200.425Z" fill="#BDC3C7"/>
<path d="M345.376 214.756V197.583L339.544 200.943V218.116L345.376 214.756Z" fill="#566472"/>
<path d="M340.427 185.544V236.563L314.776 251.258V215.048L340.427 185.544Z" fill="#D35400"/>
<path d="M314.776 251.258V215.048L262.741 185.235V221.446L314.776 251.258Z" fill="#C1382A"/>
<path d="M341.919 185.102L314.776 216.323L260.491 185.221L287.633 154L341.919 185.102Z" fill="#DBDBDB"/>
<path d="M341.919 185.102V188.455L316.977 217.146L314.776 216.323L341.919 185.102Z" fill="#566472"/>
<path d="M280.115 205.53L270.54 200.015L270.012 200.485L279.586 220.513L280.115 220.043V205.53Z" fill="#EFF3F3"/>
<path d="M279.586 206L270.012 200.485V214.997L279.586 220.513V206Z" fill="#BDC3C7"/>
<path d="M271.139 214.347V202.434L278.46 206.651V218.564L271.139 214.347Z" fill="#566472"/>
<path d="M270.417 205.485V206.632L279.058 211.61V210.462L270.417 205.485Z" fill="#BDC3C7"/>
<path d="M270.417 209.653V210.8L279.058 215.779V214.632L270.417 209.653Z" fill="#BDC3C7"/>
<path d="M275.291 204.226L274.207 203.602V216.535L275.291 217.159V204.226Z" fill="#BDC3C7"/>
<path d="M299.073 216.448L289.499 210.932L288.971 211.402L298.545 231.43L299.073 230.96V216.448Z" fill="#EFF3F3"/>
<path d="M298.545 216.918L288.971 211.402V225.915L298.545 231.43V216.918Z" fill="#BDC3C7"/>
<path d="M290.097 225.263V213.35L297.419 217.569V229.482L290.097 225.263Z" fill="#566472"/>
<path d="M289.376 216.401V217.549L298.017 222.527V221.379L289.376 216.401Z" fill="#BDC3C7"/>
<path d="M289.376 220.571V221.718L298.017 226.696V225.548L289.376 220.571Z" fill="#BDC3C7"/>
<path d="M294.25 215.142L293.167 214.519V227.452L294.25 228.075V215.142Z" fill="#BDC3C7"/>
<path d="M323.124 220.237L332.699 214.721L333.227 215.191L323.653 235.22L323.125 234.75L323.124 220.237Z" fill="#EFF3F3"/>
<path d="M323.653 220.707L333.227 215.191V229.704L323.653 235.22V220.707Z" fill="#BDC3C7"/>
<path d="M332.101 229.052V217.139L324.779 221.357V233.271L332.101 229.052Z" fill="#566472"/>
<path d="M332.822 220.19V221.337L324.181 226.315V225.169L332.822 220.19Z" fill="#BDC3C7"/>
<path d="M332.822 224.359V225.506L324.181 230.484V229.337L332.822 224.359Z" fill="#BDC3C7"/>
<path d="M327.947 218.932L329.031 218.307V231.24L327.947 231.865V218.932Z" fill="#BDC3C7"/>
<path d="M330.45 203.46L336.826 199.754L337.354 200.224L330.979 210.711L330.451 210.241L330.45 203.46Z" fill="#EFF3F3"/>
<path d="M330.979 203.93L337.354 200.224V207.005L330.979 210.711V203.93Z" fill="#BDC3C7"/>
<path d="M336.228 206.355V202.172L332.105 204.581V208.762L336.228 206.355Z" fill="#566472"/>
<path d="M372.933 226.86L367.974 224.305L343.04 238.408L347.998 241.218L372.933 226.86Z" fill="#EFF3F3"/>
<path d="M347.998 243.525L343.04 240.714V238.408L347.998 241.218V243.525Z" fill="#AAB7B7"/>
<path d="M347.997 243.525L372.932 229.167V226.86L347.997 241.218V243.525Z" fill="#BDC3C7"/>
<path d="M378.768 201.699C379.719 201.699 380.49 202.085 380.49 202.563C380.49 202.929 380.49 228.483 380.49 228.849C380.49 228.976 380.436 229.096 380.338 229.204V229.141C380.197 229.298 379.965 229.431 379.676 229.52V229.583C379.412 229.666 379.1 229.713 378.768 229.713C377.816 229.713 377.045 229.326 377.045 228.849C377.045 228.483 377.045 202.929 377.045 202.563C377.045 202.085 377.816 201.699 378.768 201.699Z" fill="#D35400"/>
<path d="M378.958 187.169C383.128 187.169 390.1 207.784 390.1 212.246C390.1 215.332 387.363 221.543 378.958 221.543C370.991 221.543 367.818 215.332 367.818 212.246C367.818 207.784 375.878 187.169 378.958 187.169Z" fill="#43761C"/>
<path d="M378.559 212.618C377.607 203.917 378.967 187.17 378.967 187.17C383.137 187.193 390.209 207.789 390.101 212.246C389.984 217.013 379.174 218.243 378.559 212.618Z" fill="#7BA525"/>
<path d="M384.757 211.521C386.844 211.456 388.812 210.399 388.805 209.345C388.781 205.779 384.212 194.099 380.951 189.028C379.086 186.868 380.673 204.054 381.479 209.769C381.721 211.483 384.049 211.544 384.757 211.521Z" fill="#9BBE23"/>
<path d="M378.12 217.804C385.32 218.688 388.729 216.646 388.729 216.646C387.171 219.181 384.144 221.543 378.959 221.543C371.419 221.543 368.179 215.987 367.851 212.773C368.655 214.552 373.111 217.188 378.12 217.804Z" fill="#396910"/>
<path d="M381.86 196.262C382.869 199.203 384.151 201.427 384.723 201.23C385.294 201.034 384.941 198.492 383.932 195.552C382.923 192.611 381.641 190.387 381.069 190.584C380.498 190.78 380.851 193.323 381.86 196.262Z" fill="#C3DE59"/>
<path d="M239.911 209.784C240.862 209.784 241.633 210.171 241.633 210.648C241.633 211.014 241.633 236.568 241.633 236.934C241.633 237.061 241.579 237.182 241.481 237.29V237.227C241.34 237.383 241.108 237.516 240.819 237.605V237.669C240.555 237.751 240.245 237.798 239.911 237.798C238.959 237.798 238.188 237.412 238.188 236.934C238.188 236.568 238.188 211.014 238.188 210.648C238.188 210.171 238.959 209.784 239.911 209.784Z" fill="#D35400"/>
<path d="M240.101 195.254C244.271 195.254 251.243 215.871 251.243 220.331C251.243 223.417 248.506 229.63 240.101 229.63C232.134 229.63 228.961 223.417 228.961 220.331C228.961 215.871 237.021 195.254 240.101 195.254Z" fill="#43761C"/>
<path d="M239.701 220.704C238.75 212.002 240.109 195.255 240.109 195.255C244.279 195.278 251.351 215.874 251.243 220.331C251.127 225.098 240.316 226.329 239.701 220.704Z" fill="#7BA525"/>
<path d="M245.9 219.607C247.988 219.542 249.956 218.485 249.949 217.432C249.924 213.864 245.355 202.185 242.094 197.114C240.229 194.954 241.816 212.14 242.622 217.854C242.864 219.568 245.192 219.629 245.9 219.607Z" fill="#9BBE23"/>
<path d="M239.263 225.889C246.463 226.773 249.872 224.732 249.872 224.732C248.313 227.266 245.287 229.63 240.102 229.63C232.562 229.63 229.321 224.072 228.993 220.859C229.797 222.637 234.253 225.274 239.263 225.889Z" fill="#396910"/>
<path d="M243.002 204.348C244.012 207.288 245.294 209.512 245.866 209.315C246.438 209.12 246.084 206.577 245.075 203.637C244.065 200.697 242.784 198.472 242.211 198.669C241.64 198.865 241.994 201.408 243.002 204.348Z" fill="#C3DE59"/>
<path d="M317.25 239.056C318.203 239.056 318.974 239.443 318.974 239.92C318.974 240.287 318.974 265.84 318.974 266.207C318.974 266.334 318.919 266.454 318.821 266.562V266.499C318.68 266.656 318.448 266.787 318.16 266.878V266.941C317.896 267.024 317.584 267.071 317.25 267.071C316.299 267.071 315.527 266.684 315.527 266.207C315.527 265.84 315.527 240.287 315.527 239.92C315.527 239.443 316.299 239.056 317.25 239.056Z" fill="#D35400"/>
<path d="M317.442 212.813C321.612 212.813 328.583 245.142 328.583 249.603C328.583 252.69 325.847 258.901 317.442 258.901C309.474 258.901 306.301 252.69 306.301 249.603C306.301 245.142 314.361 212.813 317.442 212.813Z" fill="#43761C"/>
<path d="M317.042 249.977C316.09 241.274 317.45 212.92 317.45 212.92C321.62 212.944 328.692 245.146 328.582 249.603C328.466 254.371 317.657 255.6 317.042 249.977Z" fill="#7BA525"/>
<path d="M323.24 248.879C325.328 248.814 327.296 247.757 327.289 246.704C327.263 243.137 322.391 219.392 319.129 214.32C317.265 212.161 319.155 241.412 319.962 247.127C320.203 248.841 322.531 248.901 323.24 248.879Z" fill="#9BBE23"/>
<path d="M316.602 255.162C323.803 256.046 327.211 254.003 327.211 254.003C325.654 256.539 322.626 258.901 317.442 258.901C309.902 258.901 306.661 253.344 306.334 250.131C307.138 251.91 311.592 254.547 316.602 255.162Z" fill="#396910"/>
<path d="M319.526 224.589C320.481 229.195 321.91 232.793 322.713 232.627C323.518 232.459 323.395 228.591 322.439 223.985C321.483 219.378 320.056 215.78 319.252 215.946C318.447 216.114 318.57 219.983 319.526 224.589Z" fill="#C3DE59"/>
<path d="M290.979 237.307C292.001 237.307 292.83 237.724 292.83 238.236C292.83 238.63 292.83 266.084 292.83 266.478C292.83 266.614 292.771 266.743 292.666 266.86V266.792C292.515 266.961 292.265 267.103 291.955 267.199V267.268C291.672 267.355 291.337 267.407 290.979 267.407C289.956 267.407 289.128 266.991 289.128 266.478C289.128 266.084 289.128 238.63 289.128 238.236C289.128 237.724 289.956 237.307 290.979 237.307Z" fill="#D35400"/>
<path d="M290.992 225.849C297.416 225.849 299.974 230.857 299.974 233.345V242.794V246.067C299.974 248.555 297.768 253.562 290.992 253.562C284.568 253.562 282.01 248.555 282.01 246.067V244.556V242.794V233.345C282.01 230.857 284.215 225.849 290.992 225.849Z" fill="#43761C"/>
<path d="M283.492 230.68C283.692 233.071 287.011 234.79 290.907 234.518C294.802 234.245 297.797 232.085 297.597 229.692C297.397 227.301 294.077 225.582 290.182 225.854C286.287 226.127 283.291 228.287 283.492 230.68Z" fill="#7BA525"/>
<path d="M285.203 228.722C285.398 229.733 287.36 230.199 289.584 229.764C291.808 229.331 293.453 228.159 293.257 227.148C293.061 226.138 291.1 225.671 288.875 226.106C286.651 226.54 285.006 227.711 285.203 228.722Z" fill="#9BBE23"/>
<path d="M287.129 227.401C287.203 227.783 287.948 227.96 288.79 227.796C289.633 227.631 290.256 227.188 290.182 226.804C290.108 226.421 289.364 226.245 288.521 226.41C287.678 226.574 287.056 227.018 287.129 227.401Z" fill="#C3DE59"/>
<path d="M290.991 249.951C296.855 249.951 299.341 247.962 299.949 246.53C299.698 249.126 297.37 253.562 290.991 253.562C284.913 253.562 282.299 249.082 282.035 246.492C282.684 247.926 285.384 249.951 290.991 249.951Z" fill="#396910"/>
<path d="M286.551 249.011C286.764 249.011 286.968 248.987 287.171 248.952V254.708C287.171 255.012 287.416 255.257 287.72 255.257H290.054C290.343 255.257 290.574 255.031 290.595 254.748C291.257 255.086 291.994 255.268 292.739 255.279C292.477 256.522 291.375 257.454 290.054 257.454H287.72C286.203 257.454 284.973 256.225 284.973 254.708V248.817C285.478 248.944 286.009 249.011 286.551 249.011Z" fill="#D35400"/>
<path d="M296.448 247.57C296.236 247.57 296.03 247.546 295.829 247.51V253.267C295.829 253.57 295.582 253.816 295.279 253.816H292.946C292.656 253.816 292.426 253.591 292.403 253.307C291.742 253.644 291.004 253.827 290.26 253.837C290.523 255.079 291.624 256.013 292.946 256.013H295.279C296.796 256.013 298.025 254.784 298.025 253.267V247.375C297.52 247.501 296.99 247.57 296.448 247.57Z" fill="#D35400"/>
<path d="M285.903 239.901C289.663 239.901 291.16 242.833 291.16 244.289V249.818V251.734C291.16 253.192 289.869 256.122 285.903 256.122C282.143 256.122 280.646 253.192 280.646 251.734V250.85V249.818V244.289C280.646 242.833 281.937 239.901 285.903 239.901Z" fill="#61913D"/>
<path d="M281.513 242.729C281.631 244.129 283.574 245.134 285.853 244.975C288.133 244.816 289.887 243.551 289.769 242.151C289.652 240.752 287.709 239.746 285.429 239.905C283.15 240.064 281.397 241.329 281.513 242.729Z" fill="#9BC04E"/>
<path d="M282.515 241.583C282.63 242.174 283.778 242.447 285.08 242.194C286.381 241.939 287.344 241.254 287.229 240.662C287.115 240.071 285.967 239.798 284.664 240.053C283.363 240.306 282.401 240.992 282.515 241.583Z" fill="#BAD950"/>
<path d="M283.643 240.81C283.686 241.034 284.121 241.138 284.615 241.041C285.108 240.945 285.473 240.685 285.43 240.461C285.386 240.236 284.951 240.133 284.457 240.229C283.964 240.326 283.6 240.586 283.643 240.81Z" fill="#E4F991"/>
<path d="M285.903 254.008C289.335 254.008 290.789 252.844 291.145 252.006C290.999 253.525 289.636 256.122 285.903 256.122C282.346 256.122 280.816 253.5 280.662 251.983C281.041 252.823 282.622 254.008 285.903 254.008Z" fill="#55842C"/>
<path d="M297.167 240.852C300.262 240.852 301.494 243.264 301.494 244.463V249.015V250.592C301.494 251.79 300.431 254.202 297.167 254.202C294.072 254.202 292.84 251.79 292.84 250.592V249.864V249.015V244.463C292.84 243.264 293.902 240.852 297.167 240.852Z" fill="#61913D"/>
<path d="M293.554 243.179C293.649 244.331 295.249 245.159 297.126 245.027C299.002 244.897 300.446 243.856 300.349 242.703C300.252 241.551 298.653 240.722 296.777 240.854C294.9 240.985 293.457 242.026 293.554 243.179Z" fill="#9BC04E"/>
<path d="M294.378 242.236C294.472 242.723 295.418 242.948 296.489 242.738C297.56 242.529 298.352 241.965 298.258 241.477C298.164 240.991 297.219 240.766 296.147 240.975C295.076 241.184 294.284 241.75 294.378 242.236Z" fill="#BAD950"/>
<path d="M295.306 241.599C295.342 241.783 295.7 241.869 296.106 241.789C296.512 241.71 296.812 241.496 296.777 241.312C296.741 241.127 296.383 241.042 295.977 241.121C295.571 241.2 295.271 241.414 295.306 241.599Z" fill="#E4F991"/>
<path d="M297.167 252.462C299.991 252.462 301.189 251.504 301.482 250.815C301.361 252.066 300.24 254.202 297.167 254.202C294.238 254.202 292.98 252.045 292.853 250.797C293.165 251.488 294.465 252.462 297.167 252.462Z" fill="#55842C"/>
<path d="M262.848 208.055C263.921 208.055 264.791 208.491 264.791 209.03C264.791 209.444 264.791 238.264 264.791 238.678C264.791 238.82 264.729 238.956 264.62 239.078V239.007C264.46 239.184 264.199 239.332 263.873 239.434V239.505C263.575 239.598 263.224 239.652 262.848 239.652C261.775 239.652 260.905 239.215 260.905 238.678C260.905 238.264 260.905 209.444 260.905 209.03C260.905 208.491 261.775 208.055 262.848 208.055Z" fill="#D35400"/>
<path d="M262.861 196.026C269.605 196.026 272.291 201.284 272.291 203.895V213.814V217.25C272.291 219.863 269.975 225.119 262.861 225.119C256.118 225.119 253.432 219.863 253.432 217.25V215.664V213.814V203.895C253.432 201.284 255.748 196.026 262.861 196.026Z" fill="#43761C"/>
<path d="M254.988 201.096C255.198 203.608 258.683 205.413 262.771 205.126C266.861 204.84 270.005 202.572 269.796 200.061C269.585 197.55 266.1 195.746 262.012 196.032C257.922 196.318 254.778 198.585 254.988 201.096Z" fill="#7BA525"/>
<path d="M256.783 199.042C256.989 200.103 259.048 200.593 261.384 200.136C263.718 199.68 265.446 198.451 265.24 197.39C265.034 196.329 262.975 195.84 260.639 196.296C258.305 196.752 256.578 197.981 256.783 199.042Z" fill="#9BBE23"/>
<path d="M258.806 197.656C258.884 198.057 259.665 198.243 260.55 198.07C261.435 197.898 262.09 197.431 262.012 197.029C261.934 196.628 261.154 196.441 260.268 196.615C259.383 196.788 258.728 197.253 258.806 197.656Z" fill="#C3DE59"/>
<path d="M262.861 221.327C269.016 221.327 271.625 219.239 272.264 217.736C272 220.463 269.557 225.119 262.861 225.119C256.48 225.119 253.737 220.416 253.46 217.697C254.14 219.202 256.974 221.327 262.861 221.327Z" fill="#396910"/>
<path d="M258.2 220.342C258.422 220.342 258.637 220.315 258.849 220.279V226.321C258.849 226.64 259.108 226.898 259.426 226.898H261.877C262.18 226.898 262.422 226.661 262.444 226.363C263.14 226.718 263.913 226.909 264.695 226.92C264.419 228.224 263.263 229.205 261.877 229.205H259.426C257.834 229.205 256.544 227.914 256.544 226.321V220.137C257.073 220.269 257.63 220.342 258.2 220.342Z" fill="#D35400"/>
<path d="M257.52 210.778C261.466 210.778 263.038 213.855 263.038 215.383V221.188V223.2C263.038 224.728 261.682 227.806 257.52 227.806C253.573 227.806 252 224.728 252 223.2V222.271V221.188V215.383C252 213.855 253.357 210.778 257.52 210.778Z" fill="#61913D"/>
<path d="M252.911 213.745C253.034 215.216 255.073 216.272 257.467 216.104C259.86 215.937 261.701 214.61 261.578 213.139C261.454 211.67 259.415 210.614 257.022 210.782C254.629 210.949 252.788 212.276 252.911 213.745Z" fill="#9BC04E"/>
<path d="M253.963 212.543C254.083 213.164 255.288 213.451 256.654 213.184C258.021 212.917 259.032 212.197 258.911 211.576C258.791 210.955 257.586 210.669 256.219 210.936C254.853 211.203 253.842 211.923 253.963 212.543Z" fill="#BAD950"/>
<path d="M255.147 211.732C255.192 211.967 255.649 212.075 256.167 211.974C256.684 211.873 257.067 211.6 257.022 211.365C256.976 211.129 256.519 211.021 256.002 211.122C255.484 211.224 255.1 211.496 255.147 211.732Z" fill="#E4F991"/>
<path d="M257.52 225.586C261.122 225.586 262.649 224.364 263.023 223.485C262.868 225.079 261.438 227.806 257.52 227.806C253.785 227.806 252.18 225.052 252.017 223.461C252.416 224.342 254.074 225.586 257.52 225.586Z" fill="#55842C"/>
<path d="M251.112 243.663C247.93 243.663 245.465 242.054 245.465 240.929C245.465 239.392 245.465 237.29 245.465 237.29C245.465 235.726 246.851 232.577 251.112 232.577C255.152 232.577 256.76 235.726 256.76 237.29C256.76 237.29 256.76 239.837 256.76 240.974C256.76 242.072 254.412 243.663 251.112 243.663Z" fill="#61913D"/>
<path d="M246.396 235.614C246.522 237.118 248.609 238.198 251.058 238.027C253.508 237.856 255.391 236.498 255.265 234.994C255.14 233.49 253.052 232.409 250.604 232.58C248.154 232.751 246.271 234.11 246.396 235.614Z" fill="#9BC04E"/>
<path d="M247.471 234.383C247.595 235.019 248.829 235.313 250.227 235.039C251.626 234.766 252.66 234.03 252.537 233.394C252.413 232.759 251.179 232.465 249.781 232.739C248.383 233.012 247.349 233.748 247.471 234.383Z" fill="#BAD950"/>
<path d="M248.683 233.553C248.73 233.794 249.197 233.905 249.728 233.802C250.258 233.698 250.65 233.419 250.602 233.178C250.556 232.937 250.088 232.826 249.559 232.929C249.029 233.033 248.637 233.312 248.683 233.553Z" fill="#E4F991"/>
<path d="M260.924 250.141C256.701 250.141 253.429 248.006 253.429 246.512C253.429 244.473 253.429 241.683 253.429 241.683C253.429 239.607 255.269 235.428 260.924 235.428C266.285 235.428 268.42 239.607 268.42 241.683C268.42 241.683 268.42 245.063 268.42 246.572C268.42 248.028 265.302 250.141 260.924 250.141Z" fill="#43761C"/>
<path d="M254.665 239.458C254.833 241.455 257.602 242.889 260.853 242.661C264.103 242.435 266.603 240.632 266.436 238.636C266.269 236.639 263.499 235.204 260.248 235.432C256.998 235.659 254.498 237.462 254.665 239.458Z" fill="#7BA525"/>
<path d="M256.093 237.825C256.257 238.669 257.893 239.058 259.749 238.695C261.606 238.332 262.978 237.355 262.814 236.512C262.652 235.669 261.014 235.279 259.157 235.642C257.302 236.005 255.93 236.982 256.093 237.825Z" fill="#9BBE23"/>
<path d="M257.701 236.723C257.763 237.042 258.383 237.19 259.086 237.053C259.79 236.916 260.31 236.545 260.248 236.225C260.187 235.906 259.566 235.758 258.863 235.896C258.159 236.033 257.639 236.404 257.701 236.723Z" fill="#C3DE59"/>
<path d="M269.543 253.019C266.688 253.019 264.477 251.577 264.477 250.566C264.477 249.188 264.477 247.302 264.477 247.302C264.477 245.9 265.721 243.074 269.543 243.074C273.167 243.074 274.609 245.9 274.609 247.302C274.609 247.302 274.609 249.588 274.609 250.607C274.609 251.592 272.502 253.019 269.543 253.019Z" fill="#61913D"/>
<path d="M265.313 245.8C265.426 247.149 267.297 248.118 269.494 247.964C271.692 247.811 273.382 246.592 273.269 245.243C273.156 243.893 271.283 242.925 269.086 243.078C266.889 243.232 265.2 244.451 265.313 245.8Z" fill="#9BC04E"/>
<path d="M266.277 244.696C266.388 245.266 267.494 245.529 268.749 245.283C270.004 245.038 270.931 244.377 270.821 243.807C270.71 243.237 269.604 242.974 268.349 243.22C267.095 243.465 266.167 244.126 266.277 244.696Z" fill="#BAD950"/>
<path d="M267.364 243.95C267.406 244.166 267.825 244.265 268.301 244.173C268.776 244.08 269.128 243.829 269.086 243.614C269.044 243.398 268.624 243.298 268.15 243.391C267.674 243.484 267.323 243.734 267.364 243.95Z" fill="#E4F991"/>
<path d="M337.941 251.397C334.76 251.397 332.294 249.788 332.294 248.662C332.294 247.126 332.294 245.024 332.294 245.024C332.294 243.459 333.68 240.311 337.941 240.311C341.981 240.311 343.589 243.459 343.589 245.024C343.589 245.024 343.589 247.571 343.589 248.708C343.589 249.806 341.241 251.397 337.941 251.397Z" fill="#61913D"/>
<path d="M333.226 243.348C333.352 244.852 335.439 245.932 337.888 245.761C340.337 245.59 342.221 244.232 342.095 242.728C341.969 241.224 339.882 240.143 337.433 240.314C334.983 240.485 333.1 241.844 333.226 243.348Z" fill="#9BC04E"/>
<path d="M334.302 242.117C334.425 242.752 335.658 243.046 337.057 242.773C338.455 242.5 339.489 241.763 339.366 241.128C339.243 240.492 338.01 240.199 336.61 240.472C335.212 240.746 334.178 241.482 334.302 242.117Z" fill="#BAD950"/>
<path d="M335.513 241.287C335.56 241.527 336.028 241.639 336.557 241.536C337.088 241.432 337.48 241.153 337.433 240.912C337.387 240.671 336.919 240.56 336.389 240.663C335.858 240.767 335.466 241.046 335.513 241.287Z" fill="#E4F991"/>
<path d="M351.487 216.002C349.298 216.002 347.601 214.895 347.601 214.12C347.601 213.063 347.601 211.617 347.601 211.617C347.601 210.54 348.556 208.373 351.487 208.373C354.267 208.373 355.375 210.54 355.375 211.617C355.375 211.617 355.375 213.37 355.375 214.152C355.375 214.906 353.758 216.002 351.487 216.002Z" fill="#43761C"/>
<path d="M348.242 210.463C348.329 211.498 349.765 212.241 351.451 212.124C353.136 212.005 354.432 211.071 354.346 210.036C354.259 209.001 352.822 208.258 351.137 208.375C349.451 208.493 348.156 209.428 348.242 210.463Z" fill="#7BA525"/>
<path d="M348.983 209.616C349.067 210.054 349.916 210.255 350.879 210.067C351.841 209.879 352.553 209.372 352.468 208.935C352.383 208.497 351.535 208.296 350.572 208.485C349.609 208.672 348.898 209.179 348.983 209.616Z" fill="#9BBE23"/>
<path d="M349.816 209.044C349.849 209.21 350.171 209.287 350.535 209.215C350.9 209.144 351.17 208.952 351.137 208.786C351.106 208.62 350.784 208.544 350.419 208.615C350.054 208.687 349.785 208.879 349.816 209.044Z" fill="#C3DE59"/>
<path d="M357.289 219.72C355.099 219.72 353.402 218.614 353.402 217.838C353.402 216.781 353.402 215.335 353.402 215.335C353.402 214.258 354.357 212.091 357.289 212.091C360.069 212.091 361.176 214.258 361.176 215.335C361.176 215.335 361.176 217.088 361.176 217.87C361.176 218.625 359.559 219.72 357.289 219.72Z" fill="#43761C"/>
<path d="M354.044 214.182C354.13 215.217 355.567 215.96 357.252 215.843C358.937 215.725 360.234 214.79 360.147 213.755C360.061 212.72 358.625 211.976 356.939 212.094C355.254 212.211 353.957 213.147 354.044 214.182Z" fill="#7BA525"/>
<path d="M354.784 213.335C354.869 213.772 355.718 213.973 356.68 213.786C357.643 213.598 358.355 213.091 358.27 212.653C358.185 212.217 357.336 212.015 356.374 212.203C355.411 212.39 354.699 212.898 354.784 213.335Z" fill="#9BBE23"/>
<path d="M355.617 212.763C355.65 212.929 355.971 213.006 356.336 212.934C356.701 212.863 356.97 212.671 356.939 212.504C356.906 212.339 356.585 212.262 356.22 212.335C355.855 212.406 355.585 212.597 355.617 212.763Z" fill="#C3DE59"/>
<path d="M363.091 223.44C360.901 223.44 359.204 222.333 359.204 221.557C359.204 220.5 359.204 219.054 359.204 219.054C359.204 217.977 360.159 215.81 363.091 215.81C365.87 215.81 366.977 217.977 366.977 219.054C366.977 219.054 366.977 220.807 366.977 221.589C366.977 222.345 365.362 223.44 363.091 223.44Z" fill="#43761C"/>
<path d="M359.845 217.9C359.932 218.935 361.368 219.679 363.054 219.561C364.739 219.444 366.035 218.509 365.949 217.473C365.863 216.438 364.425 215.695 362.74 215.812C361.054 215.93 359.759 216.865 359.845 217.9Z" fill="#7BA525"/>
<path d="M360.586 217.054C360.669 217.491 361.518 217.693 362.481 217.505C363.443 217.317 364.155 216.809 364.07 216.373C363.985 215.936 363.138 215.733 362.174 215.922C361.213 216.109 360.501 216.616 360.586 217.054Z" fill="#9BBE23"/>
<path d="M361.419 216.482C361.451 216.647 361.773 216.724 362.138 216.653C362.502 216.581 362.772 216.389 362.739 216.224C362.708 216.058 362.386 215.981 362.022 216.053C361.657 216.124 361.387 216.316 361.419 216.482Z" fill="#C3DE59"/>
<g filter="url(#filter2_d_1_1054)">
<path d="M108.034 285.42L189.063 238.888V236.898H26.9998V238.888L108.034 285.42Z" fill="#244A4A"/>
</g>
<path d="M108.034 283.432L189.063 236.898L108.03 190.365L26.9998 236.898L108.034 283.432Z" fill="#3E8180"/>
<path d="M156.496 199.881C157.393 199.881 158.12 200.245 158.12 200.696C158.12 201.041 158.12 225.134 158.12 225.48C158.12 225.6 158.069 225.713 157.976 225.815V225.755C157.843 225.904 157.624 226.029 157.352 226.113V226.172C157.103 226.25 156.81 226.295 156.496 226.295C155.599 226.295 154.871 225.93 154.871 225.48C154.871 225.134 154.871 201.041 154.871 200.696C154.871 200.245 155.599 199.881 156.496 199.881Z" fill="#D35400"/>
<path d="M156.676 186.181C160.608 186.181 167.181 205.619 167.181 209.826C167.181 212.735 164.601 218.592 156.676 218.592C149.163 218.592 146.172 212.735 146.172 209.826C146.172 205.619 153.772 186.181 156.676 186.181Z" fill="#43761C"/>
<path d="M156.299 210.177C155.401 201.971 156.684 186.181 156.684 186.181C160.615 186.204 167.283 205.623 167.181 209.826C167.072 214.32 156.879 215.481 156.299 210.177Z" fill="#7BA525"/>
<path d="M162.143 209.142C164.112 209.081 165.967 208.084 165.961 207.091C165.938 203.728 161.63 192.715 158.554 187.934C156.796 185.898 158.292 202.102 159.052 207.49C159.279 209.107 161.475 209.163 162.143 209.142Z" fill="#9BBE23"/>
<path d="M155.884 215.066C162.674 215.899 165.887 213.975 165.887 213.975C164.419 216.364 161.565 218.592 156.676 218.592C149.567 218.592 146.511 213.352 146.202 210.323C146.96 211.999 151.162 214.486 155.884 215.066Z" fill="#396910"/>
<path d="M159.411 194.755C160.363 197.527 161.572 199.624 162.111 199.439C162.65 199.253 162.316 196.856 161.364 194.085C160.414 191.312 159.205 189.215 158.665 189.401C158.126 189.586 158.46 191.983 159.411 194.755Z" fill="#C3DE59"/>
<path d="M61.7663 209.296L62.7195 208.546L75.5544 215.9V234.743L74.6008 235.273L61.7663 209.296Z" fill="white"/>
<path d="M61.7663 227.919V209.076L74.6008 216.429V235.273L61.7663 227.919Z" fill="#DBDBDB"/>
<path d="M73.1172 216.922L63.2497 211.268V227.427L73.1172 233.08V216.922Z" fill="#566472"/>
<path d="M68.2569 213.606V230.747L67.5154 230.322V213.182L68.2569 213.606Z" fill="#DBDBDB"/>
<path d="M105.594 199.438L51.7344 230.296L105.594 261.153L159.454 230.296L105.594 199.438Z" fill="#C1382A"/>
<path d="M159.454 235.525L105.594 266.382V261.153L159.454 230.296V235.525Z" fill="#DBDBDB"/>
<path d="M105.594 266.382L51.7344 235.525V230.296L105.594 261.153V266.382Z" fill="#AAB7B7"/>
<path d="M144.997 215.186V226.439L144.156 226.92V214.747C144.44 214.882 144.721 215.027 144.997 215.186Z" fill="#DBDBDB"/>
<path d="M150.133 217.892V229.145L149.292 229.628V217.453C149.576 217.588 149.857 217.734 150.133 217.892Z" fill="#DBDBDB"/>
<path d="M147.612 216.586V227.839L146.77 228.322V216.147C147.055 216.282 147.335 216.428 147.612 216.586Z" fill="#DBDBDB"/>
<path d="M153.313 228.534L152.132 229.217L122.601 212.085L123.782 211.402L153.313 228.534Z" fill="#DBDBDB"/>
<path d="M152.157 231.664L122.588 214.511L122.601 212.085L152.133 229.217L152.157 231.664Z" fill="#AAB7B7"/>
<path d="M153.501 218.822L152.32 219.505L122.788 202.374L123.969 201.69L153.501 218.822Z" fill="#DBDBDB"/>
<path d="M152.343 221.952L122.774 204.798L122.788 202.374L152.32 219.505L152.343 221.952Z" fill="#AAB7B7"/>
<path d="M151.345 197.047L152.529 197.725V231.867L151.345 231.188V197.047Z" fill="#AAB7B7"/>
<path d="M154.634 196.478V230.661L152.529 231.867V197.725L154.634 196.478Z" fill="#DBDBDB"/>
<path d="M149.292 218.467V229.628L148.818 229.357V218.311C148.976 218.359 149.134 218.411 149.292 218.467Z" fill="#AAB7B7"/>
<path d="M146.77 217.16V228.322L146.297 228.05V217.004C146.456 217.053 146.612 217.105 146.77 217.16Z" fill="#AAB7B7"/>
<path d="M144.156 215.759V226.92L143.682 226.65V215.603C143.841 215.653 143.998 215.703 144.156 215.759Z" fill="#AAB7B7"/>
<path d="M105.594 258.407V224.265L56.5315 196.155V230.297L105.594 258.407Z" fill="#AAB7B7"/>
<path d="M130.126 174.714L154.657 196.155V204.882L142.583 211.8V237.214L105.594 258.407V224.265L130.126 174.714Z" fill="#DBDBDB"/>
<path d="M129.408 171.11L103.353 223.741L54.2902 195.632L80.3456 143L129.408 171.11Z" fill="#C86C34"/>
<path d="M156.897 195.138V196.507L154.657 197.791V196.155L130.126 174.714L105.594 224.265V225.9L103.353 227.185V223.741L129.408 171.11L156.897 195.138Z" fill="#7E421D"/>
<path d="M103.353 227.185V223.741L54.2902 195.632V199.075L103.353 227.185Z" fill="#7E421D"/>
<path d="M83.3891 221.937L84.3423 221.186L97.1773 228.54V247.385L96.224 247.915L83.3891 221.937Z" fill="white"/>
<path d="M83.3891 240.561V221.716L96.2241 229.07V247.915L83.3891 240.561Z" fill="#DBDBDB"/>
<path d="M94.7399 229.562L84.8729 223.909V240.068L94.7399 245.721V229.562Z" fill="#566472"/>
<path d="M89.8797 226.247V243.387L89.1385 242.963V225.823L89.8797 226.247Z" fill="#DBDBDB"/>
<path d="M60.9509 209.075L61.9041 208.325L74.7391 215.678V234.523L73.7859 235.052L60.9509 209.075Z" fill="white"/>
<path d="M60.9509 227.699V208.854L73.7859 216.208V235.052L60.9509 227.699Z" fill="#DBDBDB"/>
<path d="M72.302 216.7L62.4351 211.047V227.206L72.302 232.859V216.7Z" fill="#566472"/>
<path d="M67.4411 213.385V230.525L66.6995 230.101V212.96L67.4411 213.385Z" fill="#DBDBDB"/>
<path d="M128.869 221.937L127.916 221.186L115.081 228.54V247.385L116.034 247.915L128.869 221.937Z" fill="white"/>
<path d="M128.869 240.561V221.716L116.034 229.07V247.915L128.869 240.561Z" fill="#EFEFEF"/>
<path d="M117.518 229.562L127.385 223.909V240.068L117.518 245.721V229.562Z" fill="#566472"/>
<path d="M122.379 226.247V243.387L123.12 242.963V225.823L122.379 226.247Z" fill="#EFEFEF"/>
<path d="M138.187 187.389L137.233 186.639L129.743 190.848V209.378L130.696 209.908L138.187 187.389Z" fill="white"/>
<path d="M138.187 205.699V187.169L130.696 191.378V209.908L138.187 205.699Z" fill="#EFEFEF"/>
<path d="M132.18 191.871L136.703 189.362V205.207L132.18 207.715V191.871Z" fill="#566472"/>
<path d="M162.075 237.182L157.4 234.772L142.666 242.913L147.342 245.563L162.075 237.182Z" fill="#EFF3F3"/>
<path d="M147.342 247.738L142.666 245.088V242.913L147.342 245.563V247.738Z" fill="#AAB7B7"/>
<path d="M147.342 247.738L162.075 239.356V237.182L147.342 245.563V247.738Z" fill="#BDC3C7"/>
<path d="M84.0754 260.869C81.0748 260.869 78.7503 259.352 78.7503 258.29C78.7503 256.841 78.7503 254.859 78.7503 254.859C78.7503 253.384 80.0582 250.415 84.0754 250.415C87.8838 250.415 89.4004 253.384 89.4004 254.859C89.4004 254.859 89.4004 257.26 89.4004 258.332C89.4004 259.367 87.186 260.869 84.0754 260.869Z" fill="#61913D"/>
<path d="M79.6289 253.279C79.7476 254.698 81.7157 255.717 84.0248 255.554C86.3342 255.393 88.11 254.112 87.9914 252.694C87.8731 251.276 85.9045 250.257 83.5955 250.419C81.2864 250.58 79.5103 251.861 79.6289 253.279Z" fill="#9BC04E"/>
<path d="M80.6434 252.119C80.7596 252.718 81.9226 252.995 83.2412 252.737C84.5603 252.479 85.5349 251.785 85.4188 251.186C85.3027 250.586 84.1396 250.31 82.8209 250.568C81.5024 250.825 80.5273 251.52 80.6434 252.119Z" fill="#BAD950"/>
<path d="M81.7856 251.336C81.8297 251.563 82.2706 251.668 82.77 251.57C83.27 251.473 83.6397 251.209 83.5956 250.982C83.5514 250.755 83.1107 250.65 82.6107 250.748C82.1112 250.845 81.7415 251.108 81.7856 251.336Z" fill="#E4F991"/>
<path d="M93.3266 266.977C89.3451 266.977 86.2597 264.963 86.2597 263.554C86.2597 261.631 86.2597 259.001 86.2597 259.001C86.2597 257.044 87.9956 253.103 93.3266 253.103C98.3814 253.103 100.394 257.044 100.394 259.001C100.394 259.001 100.394 262.189 100.394 263.611C100.394 264.984 97.4552 266.977 93.3266 266.977Z" fill="#43761C"/>
<path d="M87.4259 256.903C87.5831 258.786 90.1951 260.139 93.2599 259.924C96.3246 259.71 98.6812 258.01 98.5241 256.128C98.3668 254.245 95.7549 252.894 92.6901 253.108C89.6252 253.321 87.2682 255.021 87.4259 256.903Z" fill="#7BA525"/>
<path d="M88.7716 255.364C88.9258 256.159 90.4694 256.526 92.2199 256.184C93.9699 255.843 95.2636 254.92 95.1094 254.125C94.9556 253.33 93.4121 252.964 91.6616 253.305C89.9116 253.647 88.6178 254.569 88.7716 255.364Z" fill="#9BBE23"/>
<path d="M90.2876 254.325C90.3462 254.625 90.9311 254.765 91.5946 254.635C92.2578 254.506 92.7484 254.156 92.6901 253.856C92.6313 253.554 92.0466 253.415 91.3831 253.544C90.7199 253.674 90.2293 254.023 90.2876 254.325Z" fill="#C3DE59"/>
<path d="M101.454 269.691C98.7619 269.691 96.6764 268.33 96.6764 267.377C96.6764 266.077 96.6764 264.3 96.6764 264.3C96.6764 262.977 97.8497 260.313 101.454 260.313C104.87 260.313 106.23 262.977 106.23 264.3C106.23 264.3 106.23 266.455 106.23 267.416C106.23 268.344 104.244 269.691 101.454 269.691Z" fill="#61913D"/>
<path d="M97.4648 262.883C97.571 264.155 99.3365 265.068 101.408 264.924C103.48 264.779 105.073 263.631 104.966 262.358C104.86 261.085 103.094 260.172 101.023 260.317C98.9513 260.461 97.3581 261.61 97.4648 262.883Z" fill="#9BC04E"/>
<path d="M98.3745 261.842C98.4786 262.379 99.5222 262.627 100.705 262.395C101.888 262.165 102.763 261.542 102.658 261.005C102.554 260.467 101.511 260.219 100.328 260.45C99.1452 260.681 98.2703 261.304 98.3745 261.842Z" fill="#BAD950"/>
<path d="M99.3993 261.139C99.4388 261.343 99.8341 261.437 100.282 261.349C100.731 261.261 101.062 261.026 101.023 260.822C100.983 260.618 100.588 260.523 100.14 260.611C99.6911 260.699 99.3599 260.935 99.3993 261.139Z" fill="#E4F991"/>
<path d="M52.2559 242.722C49.2554 242.722 46.9308 241.205 46.9308 240.142C46.9308 238.694 46.9308 236.712 46.9308 236.712C46.9308 235.237 48.2383 232.268 52.2559 232.268C56.0644 232.268 57.581 235.237 57.581 236.712C57.581 236.712 57.581 239.113 57.581 240.185C57.581 241.22 55.3665 242.722 52.2559 242.722Z" fill="#61913D"/>
<path d="M47.809 235.131C47.9276 236.55 49.8958 237.569 52.2052 237.407C54.5144 237.246 56.29 235.965 56.1718 234.547C56.0532 233.129 54.0851 232.11 51.7755 232.271C49.4664 232.432 47.6907 233.713 47.809 235.131Z" fill="#9BC04E"/>
<path d="M48.8235 233.972C48.9396 234.571 50.1027 234.847 51.4214 234.589C52.7399 234.332 53.715 233.638 53.5989 233.039C53.4828 232.44 52.3197 232.163 51.0011 232.42C49.682 232.678 48.7074 233.372 48.8235 233.972Z" fill="#BAD950"/>
<path d="M49.9661 233.188C50.0098 233.415 50.4506 233.52 50.9506 233.423C51.4505 233.325 51.8198 233.062 51.7756 232.835C51.732 232.608 51.2911 232.502 50.7912 232.6C50.2912 232.698 49.922 232.961 49.9661 233.188Z" fill="#E4F991"/>
<path d="M61.5072 248.829C57.5252 248.829 54.4402 246.816 54.4402 245.406C54.4402 243.484 54.4402 240.854 54.4402 240.854C54.4402 238.896 56.1757 234.956 61.5072 234.956C66.5614 234.956 68.5745 238.896 68.5745 240.854C68.5745 240.854 68.5745 244.041 68.5745 245.464C68.5745 246.837 65.6352 248.829 61.5072 248.829Z" fill="#43761C"/>
<path d="M55.6059 238.756C55.7632 240.639 58.3755 241.991 61.4403 241.776C64.5047 241.563 66.8618 239.863 66.7041 237.981C66.5469 236.097 63.9349 234.746 60.8701 234.96C57.8054 235.174 55.4486 236.874 55.6059 238.756Z" fill="#7BA525"/>
<path d="M56.9517 237.216C57.1056 238.011 58.6495 238.379 60.3995 238.037C62.1496 237.696 63.4434 236.773 63.2895 235.978C63.1353 235.183 61.5918 234.817 59.8418 235.158C58.0917 235.5 56.7975 236.421 56.9517 237.216Z" fill="#9BBE23"/>
<path d="M58.468 236.178C58.5267 236.478 59.1115 236.618 59.7747 236.488C60.4382 236.359 60.9283 236.009 60.87 235.708C60.8118 235.407 60.2266 235.267 59.5634 235.397C58.8998 235.526 58.4097 235.876 58.468 236.178Z" fill="#C3DE59"/>
<path d="M69.6335 251.543C66.9418 251.543 64.8568 250.182 64.8568 249.23C64.8568 247.93 64.8568 246.153 64.8568 246.153C64.8568 244.829 66.0298 242.166 69.6335 242.166C73.05 242.166 74.4106 244.829 74.4106 246.153C74.4106 246.153 74.4106 248.307 74.4106 249.269C74.4106 250.197 72.4242 251.543 69.6335 251.543Z" fill="#61913D"/>
<path d="M65.6449 244.735C65.7516 246.007 67.5169 246.921 69.5883 246.776C71.6601 246.631 73.2529 245.483 73.1466 244.211C73.0404 242.938 71.2745 242.024 69.2031 242.169C67.1319 242.314 65.5386 243.463 65.6449 244.735Z" fill="#9BC04E"/>
<path d="M66.5545 243.694C66.6586 244.232 67.7018 244.48 68.8851 244.248C70.0679 244.018 70.9423 243.395 70.8382 242.858C70.734 242.32 69.6909 242.072 68.5077 242.303C67.3248 242.534 66.4505 243.157 66.5545 243.694Z" fill="#BAD950"/>
<path d="M67.5794 242.991C67.6187 243.195 68.0142 243.29 68.4626 243.202C68.9108 243.114 69.2424 242.879 69.2029 242.674C69.1636 242.47 68.7682 242.376 68.3196 242.464C67.8715 242.552 67.5399 242.787 67.5794 242.991Z" fill="#E4F991"/>
<path d="M43.3514 216.991C44.2484 216.991 44.9758 217.357 44.9758 217.807C44.9758 218.152 44.9758 242.246 44.9758 242.591C44.9758 242.711 44.9241 242.825 44.8319 242.927V242.868C44.6987 243.014 44.4802 243.14 44.2077 243.224V243.284C43.9593 243.361 43.6658 243.406 43.3514 243.406C42.4538 243.406 41.7264 243.042 41.7264 242.591C41.7264 242.246 41.7264 218.152 41.7264 217.807C41.7264 217.357 42.4538 216.991 43.3514 216.991Z" fill="#D35400"/>
<path d="M43.5318 203.292C47.4633 203.292 54.0363 222.731 54.0363 226.937C54.0363 229.846 51.4569 235.704 43.5318 235.704C36.0189 235.704 33.0274 229.846 33.0274 226.937C33.0274 222.731 40.6273 203.292 43.5318 203.292Z" fill="#43761C"/>
<path d="M43.1543 227.288C42.2567 219.083 43.5386 203.293 43.5386 203.293C47.4708 203.315 54.1389 222.734 54.0361 226.937C53.9264 231.431 43.7343 232.591 43.1543 227.288Z" fill="#7BA525"/>
<path d="M48.9991 226.254C50.9672 226.192 52.8231 225.196 52.8161 224.202C52.7931 220.839 48.4854 209.826 45.4099 205.045C43.6518 203.009 45.1478 219.214 45.9082 224.601C46.1356 226.217 48.3312 226.274 48.9991 226.254Z" fill="#9BBE23"/>
<path d="M42.7398 232.177C49.5287 233.011 52.743 231.086 52.743 231.086C51.2736 233.475 48.4199 235.704 43.5315 235.704C36.4226 235.704 33.3659 230.464 33.0574 227.435C33.8153 229.11 38.0167 231.597 42.7398 232.177Z" fill="#396910"/>
<path d="M46.2671 211.866C47.2181 214.638 48.4266 216.735 48.966 216.55C49.5058 216.366 49.1716 213.968 48.2201 211.196C47.2691 208.424 46.0606 206.326 45.5212 206.512C44.9819 206.697 45.3156 209.094 46.2671 211.866Z" fill="#C3DE59"/>
<path d="M108.659 252.75C109.557 252.75 110.284 253.115 110.284 253.565C110.284 253.911 110.284 278.004 110.284 278.35C110.284 278.469 110.232 278.583 110.14 278.685V278.626C110.007 278.773 109.788 278.898 109.516 278.983V279.043C109.267 279.119 108.973 279.165 108.659 279.165C107.762 279.165 107.035 278.8 107.035 278.35C107.035 278.004 107.035 253.911 107.035 253.565C107.035 253.115 107.762 252.75 108.659 252.75Z" fill="#D35400"/>
<path d="M108.839 228.006C112.771 228.006 119.344 258.489 119.344 262.695C119.344 265.606 116.764 271.462 108.839 271.462C101.326 271.462 98.3344 265.606 98.3344 262.695C98.3344 258.489 105.934 228.006 108.839 228.006Z" fill="#43761C"/>
<path d="M108.462 263.046C107.565 254.841 108.846 228.107 108.846 228.107C112.779 228.13 119.447 258.492 119.344 262.695C119.234 267.189 109.042 268.35 108.462 263.046Z" fill="#7BA525"/>
<path d="M114.306 262.012C116.275 261.95 118.131 260.955 118.124 259.961C118.1 256.597 113.506 234.209 110.43 229.427C108.672 227.391 110.455 254.972 111.216 260.36C111.443 261.976 113.639 262.033 114.306 262.012Z" fill="#9BBE23"/>
<path d="M108.048 267.935C114.836 268.77 118.051 266.844 118.051 266.844C116.581 269.234 113.728 271.462 108.84 271.462C101.731 271.462 98.6741 266.222 98.3657 263.193C99.1235 264.869 103.324 267.355 108.048 267.935Z" fill="#396910"/>
<path d="M110.805 239.109C111.706 243.452 113.052 246.845 113.81 246.689C114.569 246.53 114.453 242.882 113.551 238.539C112.65 234.196 111.304 230.804 110.546 230.961C109.787 231.119 109.903 234.766 110.805 239.109Z" fill="#C3DE59"/>
<g filter="url(#filter3_d_1_1054)">
<path d="M108.034 285.42L189.063 238.888V236.898H26.9998V238.888L108.034 285.42Z" fill="#244A4A"/>
</g>
<path d="M108.034 283.432L189.063 236.898L108.03 190.365L26.9998 236.898L108.034 283.432Z" fill="#3E8180"/>
<path d="M156.496 199.881C157.393 199.881 158.12 200.245 158.12 200.696C158.12 201.041 158.12 225.134 158.12 225.48C158.12 225.6 158.069 225.713 157.976 225.815V225.755C157.843 225.904 157.624 226.029 157.352 226.113V226.172C157.103 226.25 156.81 226.295 156.496 226.295C155.599 226.295 154.871 225.93 154.871 225.48C154.871 225.134 154.871 201.041 154.871 200.696C154.871 200.245 155.599 199.881 156.496 199.881Z" fill="#D35400"/>
<path d="M156.676 186.181C160.608 186.181 167.181 205.619 167.181 209.826C167.181 212.735 164.601 218.592 156.676 218.592C149.163 218.592 146.172 212.735 146.172 209.826C146.172 205.619 153.772 186.181 156.676 186.181Z" fill="#43761C"/>
<path d="M156.299 210.177C155.401 201.971 156.684 186.181 156.684 186.181C160.615 186.204 167.283 205.623 167.181 209.826C167.072 214.32 156.879 215.481 156.299 210.177Z" fill="#7BA525"/>
<path d="M162.143 209.142C164.112 209.081 165.967 208.084 165.961 207.091C165.938 203.728 161.63 192.715 158.554 187.934C156.796 185.898 158.292 202.102 159.052 207.49C159.279 209.107 161.475 209.163 162.143 209.142Z" fill="#9BBE23"/>
<path d="M155.884 215.066C162.674 215.899 165.887 213.975 165.887 213.975C164.419 216.364 161.565 218.592 156.676 218.592C149.567 218.592 146.511 213.352 146.202 210.323C146.96 211.999 151.162 214.486 155.884 215.066Z" fill="#396910"/>
<path d="M159.411 194.755C160.363 197.527 161.572 199.624 162.111 199.439C162.65 199.253 162.316 196.856 161.364 194.085C160.414 191.312 159.205 189.215 158.665 189.401C158.126 189.586 158.46 191.983 159.411 194.755Z" fill="#C3DE59"/>
<path d="M61.7663 209.296L62.7195 208.546L75.5544 215.9V234.743L74.6008 235.273L61.7663 209.296Z" fill="white"/>
<path d="M61.7663 227.919V209.076L74.6008 216.429V235.273L61.7663 227.919Z" fill="#DBDBDB"/>
<path d="M73.1172 216.922L63.2497 211.268V227.427L73.1172 233.08V216.922Z" fill="#566472"/>
<path d="M68.2569 213.606V230.747L67.5154 230.322V213.182L68.2569 213.606Z" fill="#DBDBDB"/>
<path d="M105.594 199.438L51.7344 230.296L105.594 261.153L159.454 230.296L105.594 199.438Z" fill="#C1382A"/>
<path d="M159.454 235.525L105.594 266.382V261.153L159.454 230.296V235.525Z" fill="#DBDBDB"/>
<path d="M105.594 266.382L51.7344 235.525V230.296L105.594 261.153V266.382Z" fill="#AAB7B7"/>
<path d="M144.997 215.186V226.439L144.156 226.92V214.747C144.44 214.882 144.721 215.027 144.997 215.186Z" fill="#DBDBDB"/>
<path d="M150.133 217.892V229.145L149.292 229.628V217.453C149.576 217.588 149.857 217.734 150.133 217.892Z" fill="#DBDBDB"/>
<path d="M147.612 216.586V227.839L146.77 228.322V216.147C147.055 216.282 147.335 216.428 147.612 216.586Z" fill="#DBDBDB"/>
<path d="M153.313 228.534L152.132 229.217L122.601 212.085L123.782 211.402L153.313 228.534Z" fill="#DBDBDB"/>
<path d="M152.157 231.664L122.588 214.511L122.601 212.085L152.133 229.217L152.157 231.664Z" fill="#AAB7B7"/>
<path d="M153.501 218.822L152.32 219.505L122.788 202.374L123.969 201.69L153.501 218.822Z" fill="#DBDBDB"/>
<path d="M152.343 221.952L122.774 204.798L122.788 202.374L152.32 219.505L152.343 221.952Z" fill="#AAB7B7"/>
<path d="M151.345 197.047L152.529 197.725V231.867L151.345 231.188V197.047Z" fill="#AAB7B7"/>
<path d="M154.634 196.478V230.661L152.529 231.867V197.725L154.634 196.478Z" fill="#DBDBDB"/>
<path d="M149.292 218.467V229.628L148.818 229.357V218.311C148.976 218.359 149.134 218.411 149.292 218.467Z" fill="#AAB7B7"/>
<path d="M146.77 217.16V228.322L146.297 228.05V217.004C146.456 217.053 146.612 217.105 146.77 217.16Z" fill="#AAB7B7"/>
<path d="M144.156 215.759V226.92L143.682 226.65V215.603C143.841 215.653 143.998 215.703 144.156 215.759Z" fill="#AAB7B7"/>
<path d="M105.594 258.407V224.265L56.5315 196.155V230.297L105.594 258.407Z" fill="#AAB7B7"/>
<path d="M130.126 174.714L154.657 196.155V204.882L142.583 211.8V237.214L105.594 258.407V224.265L130.126 174.714Z" fill="#DBDBDB"/>
<path d="M129.408 171.11L103.353 223.741L54.2902 195.632L80.3456 143L129.408 171.11Z" fill="#C86C34"/>
<path d="M156.897 195.138V196.507L154.657 197.791V196.155L130.126 174.714L105.594 224.265V225.9L103.353 227.185V223.741L129.408 171.11L156.897 195.138Z" fill="#7E421D"/>
<path d="M103.353 227.185V223.741L54.2902 195.632V199.075L103.353 227.185Z" fill="#7E421D"/>
<path d="M83.3891 221.937L84.3423 221.186L97.1773 228.54V247.385L96.224 247.915L83.3891 221.937Z" fill="white"/>
<path d="M83.3891 240.561V221.716L96.2241 229.07V247.915L83.3891 240.561Z" fill="#DBDBDB"/>
<path d="M94.7399 229.562L84.8729 223.909V240.068L94.7399 245.721V229.562Z" fill="#566472"/>
<path d="M89.8797 226.247V243.387L89.1385 242.963V225.823L89.8797 226.247Z" fill="#DBDBDB"/>
<path d="M60.9509 209.075L61.9041 208.325L74.7391 215.678V234.523L73.7859 235.052L60.9509 209.075Z" fill="white"/>
<path d="M60.9509 227.699V208.854L73.7859 216.208V235.052L60.9509 227.699Z" fill="#DBDBDB"/>
<path d="M72.302 216.7L62.4351 211.047V227.206L72.302 232.859V216.7Z" fill="#566472"/>
<path d="M67.4411 213.385V230.525L66.6995 230.101V212.96L67.4411 213.385Z" fill="#DBDBDB"/>
<path d="M128.869 221.937L127.916 221.186L115.081 228.54V247.385L116.034 247.915L128.869 221.937Z" fill="white"/>
<path d="M128.869 240.561V221.716L116.034 229.07V247.915L128.869 240.561Z" fill="#EFEFEF"/>
<path d="M117.518 229.562L127.385 223.909V240.068L117.518 245.721V229.562Z" fill="#566472"/>
<path d="M122.379 226.247V243.387L123.12 242.963V225.823L122.379 226.247Z" fill="#EFEFEF"/>
<path d="M138.187 187.389L137.233 186.639L129.743 190.848V209.378L130.696 209.908L138.187 187.389Z" fill="white"/>
<path d="M138.187 205.699V187.169L130.696 191.378V209.908L138.187 205.699Z" fill="#EFEFEF"/>
<path d="M132.18 191.871L136.703 189.362V205.207L132.18 207.715V191.871Z" fill="#566472"/>
<path d="M162.075 237.182L157.4 234.772L142.666 242.913L147.342 245.563L162.075 237.182Z" fill="#EFF3F3"/>
<path d="M147.342 247.738L142.666 245.088V242.913L147.342 245.563V247.738Z" fill="#AAB7B7"/>
<path d="M147.342 247.738L162.075 239.356V237.182L147.342 245.563V247.738Z" fill="#BDC3C7"/>
<path d="M84.0754 260.869C81.0748 260.869 78.7503 259.352 78.7503 258.29C78.7503 256.841 78.7503 254.859 78.7503 254.859C78.7503 253.384 80.0582 250.415 84.0754 250.415C87.8838 250.415 89.4004 253.384 89.4004 254.859C89.4004 254.859 89.4004 257.26 89.4004 258.332C89.4004 259.367 87.186 260.869 84.0754 260.869Z" fill="#61913D"/>
<path d="M79.6289 253.279C79.7476 254.698 81.7157 255.717 84.0248 255.554C86.3342 255.393 88.11 254.112 87.9914 252.694C87.8731 251.276 85.9045 250.257 83.5955 250.419C81.2864 250.58 79.5103 251.861 79.6289 253.279Z" fill="#9BC04E"/>
<path d="M80.6434 252.119C80.7596 252.718 81.9226 252.995 83.2412 252.737C84.5603 252.479 85.5349 251.785 85.4188 251.186C85.3027 250.586 84.1396 250.31 82.8209 250.568C81.5024 250.825 80.5273 251.52 80.6434 252.119Z" fill="#BAD950"/>
<path d="M81.7856 251.336C81.8297 251.563 82.2706 251.668 82.77 251.57C83.27 251.473 83.6397 251.209 83.5956 250.982C83.5514 250.755 83.1107 250.65 82.6107 250.748C82.1112 250.845 81.7415 251.108 81.7856 251.336Z" fill="#E4F991"/>
<path d="M93.3266 266.977C89.3451 266.977 86.2597 264.963 86.2597 263.554C86.2597 261.631 86.2597 259.001 86.2597 259.001C86.2597 257.044 87.9956 253.103 93.3266 253.103C98.3814 253.103 100.394 257.044 100.394 259.001C100.394 259.001 100.394 262.189 100.394 263.611C100.394 264.984 97.4552 266.977 93.3266 266.977Z" fill="#43761C"/>
<path d="M87.4259 256.903C87.5831 258.786 90.1951 260.139 93.2599 259.924C96.3246 259.71 98.6812 258.01 98.5241 256.128C98.3668 254.245 95.7549 252.894 92.6901 253.108C89.6252 253.321 87.2682 255.021 87.4259 256.903Z" fill="#7BA525"/>
<path d="M88.7716 255.364C88.9258 256.159 90.4694 256.526 92.2199 256.184C93.9699 255.843 95.2636 254.92 95.1094 254.125C94.9556 253.33 93.4121 252.964 91.6616 253.305C89.9116 253.647 88.6178 254.569 88.7716 255.364Z" fill="#9BBE23"/>
<path d="M90.2876 254.325C90.3462 254.625 90.9311 254.765 91.5946 254.635C92.2578 254.506 92.7484 254.156 92.6901 253.856C92.6313 253.554 92.0466 253.415 91.3831 253.544C90.7199 253.674 90.2293 254.023 90.2876 254.325Z" fill="#C3DE59"/>
<path d="M101.454 269.691C98.7619 269.691 96.6764 268.33 96.6764 267.377C96.6764 266.077 96.6764 264.3 96.6764 264.3C96.6764 262.977 97.8497 260.313 101.454 260.313C104.87 260.313 106.23 262.977 106.23 264.3C106.23 264.3 106.23 266.455 106.23 267.416C106.23 268.344 104.244 269.691 101.454 269.691Z" fill="#61913D"/>
<path d="M97.4648 262.883C97.571 264.155 99.3365 265.068 101.408 264.924C103.48 264.779 105.073 263.631 104.966 262.358C104.86 261.085 103.094 260.172 101.023 260.317C98.9513 260.461 97.3581 261.61 97.4648 262.883Z" fill="#9BC04E"/>
<path d="M98.3745 261.842C98.4786 262.379 99.5222 262.627 100.705 262.395C101.888 262.165 102.763 261.542 102.658 261.005C102.554 260.467 101.511 260.219 100.328 260.45C99.1452 260.681 98.2703 261.304 98.3745 261.842Z" fill="#BAD950"/>
<path d="M99.3993 261.139C99.4388 261.343 99.8341 261.437 100.282 261.349C100.731 261.261 101.062 261.026 101.023 260.822C100.983 260.618 100.588 260.523 100.14 260.611C99.6911 260.699 99.3599 260.935 99.3993 261.139Z" fill="#E4F991"/>
<path d="M52.2559 242.722C49.2554 242.722 46.9308 241.205 46.9308 240.142C46.9308 238.694 46.9308 236.712 46.9308 236.712C46.9308 235.237 48.2383 232.268 52.2559 232.268C56.0644 232.268 57.581 235.237 57.581 236.712C57.581 236.712 57.581 239.113 57.581 240.185C57.581 241.22 55.3665 242.722 52.2559 242.722Z" fill="#61913D"/>
<path d="M47.809 235.131C47.9276 236.55 49.8958 237.569 52.2052 237.407C54.5144 237.246 56.29 235.965 56.1718 234.547C56.0532 233.129 54.0851 232.11 51.7755 232.271C49.4664 232.432 47.6907 233.713 47.809 235.131Z" fill="#9BC04E"/>
<path d="M48.8235 233.972C48.9396 234.571 50.1027 234.847 51.4214 234.589C52.7399 234.332 53.715 233.638 53.5989 233.039C53.4828 232.44 52.3197 232.163 51.0011 232.42C49.682 232.678 48.7074 233.372 48.8235 233.972Z" fill="#BAD950"/>
<path d="M49.9661 233.188C50.0098 233.415 50.4506 233.52 50.9506 233.423C51.4505 233.325 51.8198 233.062 51.7756 232.835C51.732 232.608 51.2911 232.502 50.7912 232.6C50.2912 232.698 49.922 232.961 49.9661 233.188Z" fill="#E4F991"/>
<path d="M61.5072 248.829C57.5252 248.829 54.4402 246.816 54.4402 245.406C54.4402 243.484 54.4402 240.854 54.4402 240.854C54.4402 238.896 56.1757 234.956 61.5072 234.956C66.5614 234.956 68.5745 238.896 68.5745 240.854C68.5745 240.854 68.5745 244.041 68.5745 245.464C68.5745 246.837 65.6352 248.829 61.5072 248.829Z" fill="#43761C"/>
<path d="M55.6059 238.756C55.7632 240.639 58.3755 241.991 61.4403 241.776C64.5047 241.563 66.8618 239.863 66.7041 237.981C66.5469 236.097 63.9349 234.746 60.8701 234.96C57.8054 235.174 55.4486 236.874 55.6059 238.756Z" fill="#7BA525"/>
<path d="M56.9517 237.216C57.1056 238.011 58.6495 238.379 60.3995 238.037C62.1496 237.696 63.4434 236.773 63.2895 235.978C63.1353 235.183 61.5918 234.817 59.8418 235.158C58.0917 235.5 56.7975 236.421 56.9517 237.216Z" fill="#9BBE23"/>
<path d="M58.468 236.178C58.5267 236.478 59.1115 236.618 59.7747 236.488C60.4382 236.359 60.9283 236.009 60.87 235.708C60.8118 235.407 60.2266 235.267 59.5634 235.397C58.8998 235.526 58.4097 235.876 58.468 236.178Z" fill="#C3DE59"/>
<path d="M69.6335 251.543C66.9418 251.543 64.8568 250.182 64.8568 249.23C64.8568 247.93 64.8568 246.153 64.8568 246.153C64.8568 244.829 66.0298 242.166 69.6335 242.166C73.05 242.166 74.4106 244.829 74.4106 246.153C74.4106 246.153 74.4106 248.307 74.4106 249.269C74.4106 250.197 72.4242 251.543 69.6335 251.543Z" fill="#61913D"/>
<path d="M65.6449 244.735C65.7516 246.007 67.5169 246.921 69.5883 246.776C71.6601 246.631 73.2529 245.483 73.1466 244.211C73.0404 242.938 71.2745 242.024 69.2031 242.169C67.1319 242.314 65.5386 243.463 65.6449 244.735Z" fill="#9BC04E"/>
<path d="M66.5545 243.694C66.6586 244.232 67.7018 244.48 68.8851 244.248C70.0679 244.018 70.9423 243.395 70.8382 242.858C70.734 242.32 69.6909 242.072 68.5077 242.303C67.3248 242.534 66.4505 243.157 66.5545 243.694Z" fill="#BAD950"/>
<path d="M67.5794 242.991C67.6187 243.195 68.0142 243.29 68.4626 243.202C68.9108 243.114 69.2424 242.879 69.2029 242.674C69.1636 242.47 68.7682 242.376 68.3196 242.464C67.8715 242.552 67.5399 242.787 67.5794 242.991Z" fill="#E4F991"/>
<path d="M43.3514 216.991C44.2484 216.991 44.9758 217.357 44.9758 217.807C44.9758 218.152 44.9758 242.246 44.9758 242.591C44.9758 242.711 44.9241 242.825 44.8319 242.927V242.868C44.6987 243.014 44.4802 243.14 44.2077 243.224V243.284C43.9593 243.361 43.6658 243.406 43.3514 243.406C42.4538 243.406 41.7264 243.042 41.7264 242.591C41.7264 242.246 41.7264 218.152 41.7264 217.807C41.7264 217.357 42.4538 216.991 43.3514 216.991Z" fill="#D35400"/>
<path d="M43.5318 203.292C47.4633 203.292 54.0363 222.731 54.0363 226.937C54.0363 229.846 51.4569 235.704 43.5318 235.704C36.0189 235.704 33.0274 229.846 33.0274 226.937C33.0274 222.731 40.6273 203.292 43.5318 203.292Z" fill="#43761C"/>
<path d="M43.1543 227.288C42.2567 219.083 43.5386 203.293 43.5386 203.293C47.4708 203.315 54.1389 222.734 54.0361 226.937C53.9264 231.431 43.7343 232.591 43.1543 227.288Z" fill="#7BA525"/>
<path d="M48.9991 226.254C50.9672 226.192 52.8231 225.196 52.8161 224.202C52.7931 220.839 48.4854 209.826 45.4099 205.045C43.6518 203.009 45.1478 219.214 45.9082 224.601C46.1356 226.217 48.3312 226.274 48.9991 226.254Z" fill="#9BBE23"/>
<path d="M42.7398 232.177C49.5287 233.011 52.743 231.086 52.743 231.086C51.2736 233.475 48.4199 235.704 43.5315 235.704C36.4226 235.704 33.3659 230.464 33.0574 227.435C33.8153 229.11 38.0167 231.597 42.7398 232.177Z" fill="#396910"/>
<path d="M46.2671 211.866C47.2181 214.638 48.4266 216.735 48.966 216.55C49.5058 216.366 49.1716 213.968 48.2201 211.196C47.2691 208.424 46.0606 206.326 45.5212 206.512C44.9819 206.697 45.3156 209.094 46.2671 211.866Z" fill="#C3DE59"/>
<path d="M108.659 252.75C109.557 252.75 110.284 253.115 110.284 253.565C110.284 253.911 110.284 278.004 110.284 278.35C110.284 278.469 110.232 278.583 110.14 278.685V278.626C110.007 278.773 109.788 278.898 109.516 278.983V279.043C109.267 279.119 108.973 279.165 108.659 279.165C107.762 279.165 107.035 278.8 107.035 278.35C107.035 278.004 107.035 253.911 107.035 253.565C107.035 253.115 107.762 252.75 108.659 252.75Z" fill="#D35400"/>
<path d="M108.839 228.006C112.771 228.006 119.344 258.489 119.344 262.695C119.344 265.606 116.764 271.462 108.839 271.462C101.326 271.462 98.3344 265.606 98.3344 262.695C98.3344 258.489 105.934 228.006 108.839 228.006Z" fill="#43761C"/>
<path d="M108.462 263.046C107.565 254.841 108.846 228.107 108.846 228.107C112.779 228.13 119.447 258.492 119.344 262.695C119.234 267.189 109.042 268.35 108.462 263.046Z" fill="#7BA525"/>
<path d="M114.306 262.012C116.275 261.95 118.131 260.955 118.124 259.961C118.1 256.597 113.506 234.209 110.43 229.427C108.672 227.391 110.455 254.972 111.216 260.36C111.443 261.976 113.639 262.033 114.306 262.012Z" fill="#9BBE23"/>
<path d="M108.048 267.935C114.836 268.77 118.051 266.844 118.051 266.844C116.581 269.234 113.728 271.462 108.84 271.462C101.731 271.462 98.6741 266.222 98.3657 263.193C99.1235 264.869 103.324 267.355 108.048 267.935Z" fill="#396910"/>
<path d="M110.805 239.109C111.706 243.452 113.052 246.845 113.81 246.689C114.569 246.53 114.453 242.882 113.551 238.539C112.65 234.196 111.304 230.804 110.546 230.961C109.787 231.119 109.903 234.766 110.805 239.109Z" fill="#C3DE59"/>
<defs>
<filter id="filter0_d_1_1054" x="125.568" y="182.249" width="155.527" height="52.6022" filterUnits="userSpaceOnUse" color-interpolation-filters="sRGB">
<feFlood flood-opacity="0" result="BackgroundImageFix"/>
<feColorMatrix in="SourceAlpha" type="matrix" values="0 0 0 0 0 0 0 0 0 0 0 0 0 0 0 0 0 0 127 0" result="hardAlpha"/>
<feOffset dy="3.36712"/>
<feGaussianBlur stdDeviation="1.68356"/>
<feComposite in2="hardAlpha" operator="out"/>
<feColorMatrix type="matrix" values="0 0 0 0 0 0 0 0 0 0 0 0 0 0 0 0 0 0 0.15 0"/>
<feBlend mode="normal" in2="BackgroundImageFix" result="effect1_dropShadow_1_1054"/>
<feBlend mode="normal" in="SourceGraphic" in2="effect1_dropShadow_1_1054" result="shape"/>
</filter>
<filter id="filter1_d_1_1054" x="224.633" y="228.673" width="165.747" height="58.1957" filterUnits="userSpaceOnUse" color-interpolation-filters="sRGB">
<feFlood flood-opacity="0" result="BackgroundImageFix"/>
<feColorMatrix in="SourceAlpha" type="matrix" values="0 0 0 0 0 0 0 0 0 0 0 0 0 0 0 0 0 0 127 0" result="hardAlpha"/>
<feOffset dy="3.36712"/>
<feGaussianBlur stdDeviation="1.68356"/>
<feComposite in2="hardAlpha" operator="out"/>
<feColorMatrix type="matrix" values="0 0 0 0 0 0 0 0 0 0 0 0 0 0 0 0 0 0 0.15 0"/>
<feBlend mode="normal" in2="BackgroundImageFix" result="effect1_dropShadow_1_1054"/>
<feBlend mode="normal" in="SourceGraphic" in2="effect1_dropShadow_1_1054" result="shape"/>
</filter>
<filter id="filter2_d_1_1054" x="23.8709" y="236.898" width="168.321" height="54.7793" filterUnits="userSpaceOnUse" color-interpolation-filters="sRGB">
<feFlood flood-opacity="0" result="BackgroundImageFix"/>
<feColorMatrix in="SourceAlpha" type="matrix" values="0 0 0 0 0 0 0 0 0 0 0 0 0 0 0 0 0 0 127 0" result="hardAlpha"/>
<feOffset dy="3.12881"/>
<feGaussianBlur stdDeviation="1.5644"/>
<feComposite in2="hardAlpha" operator="out"/>
<feColorMatrix type="matrix" values="0 0 0 0 0 0 0 0 0 0 0 0 0 0 0 0 0 0 0.25 0"/>
<feBlend mode="normal" in2="BackgroundImageFix" result="effect1_dropShadow_1_1054"/>
<feBlend mode="normal" in="SourceGraphic" in2="effect1_dropShadow_1_1054" result="shape"/>
</filter>
<filter id="filter3_d_1_1054" x="23.8709" y="236.898" width="168.321" height="54.7793" filterUnits="userSpaceOnUse" color-interpolation-filters="sRGB">
<feFlood flood-opacity="0" result="BackgroundImageFix"/>
<feColorMatrix in="SourceAlpha" type="matrix" values="0 0 0 0 0 0 0 0 0 0 0 0 0 0 0 0 0 0 127 0" result="hardAlpha"/>
<feOffset dy="3.12881"/>
<feGaussianBlur stdDeviation="1.5644"/>
<feComposite in2="hardAlpha" operator="out"/>
<feColorMatrix type="matrix" values="0 0 0 0 0 0 0 0 0 0 0 0 0 0 0 0 0 0 0.25 0"/>
<feBlend mode="normal" in2="BackgroundImageFix" result="effect1_dropShadow_1_1054"/>
<feBlend mode="normal" in="SourceGraphic" in2="effect1_dropShadow_1_1054" result="shape"/>
</filter>
<radialGradient id="paint0_radial_1_1054" cx="0" cy="0" r="1" gradientUnits="userSpaceOnUse" gradientTransform="translate(192.427 210) rotate(84.5725) scale(185.791)">
<stop stop-color="#5CCAAB" stop-opacity="0.25"/>
<stop offset="1" stop-color="#5CCAAB" stop-opacity="0"/>
</radialGradient>
</defs>
</svg>
