<svg width="39" height="47" viewBox="0 0 39 47" fill="none" xmlns="http://www.w3.org/2000/svg">
<path d="M39 28.4941L38.0435 29.3612L35.1023 32.0345L25.5612 40.7028L22.1013 43.8457L19.9321 45.8162L19.5 46.2108L19.0679 45.8162L16.7402 43.7046L0.956396 29.3612L0 28.4941L0.532944 27.6241L1.1235 26.6677L7.49576 16.3113L8.36579 14.8968H30.6342L30.6688 14.9544L31.484 16.2824L38.4671 27.6241L39 28.4941Z" fill="#E87FA4"/>
<path d="M25.5612 40.7028L22.1013 43.8457L19.9321 45.8162L19.5 46.2108L19.0679 45.8162L16.7402 43.7046L0.956396 29.3612L0 28.4941L0.532944 27.6241L1.1235 26.6677C3.47422 29.2834 13.073 39.3661 25.5612 40.7028Z" fill="#C8708F"/>
<path d="M39 28.4941L38.0435 29.3612H0.956396L0 28.4941L0.532944 27.6241H38.4671L39 28.4941Z" fill="#322C4E"/>
<path d="M19.4942 44.8569L9.92141 29.3612L9.42881 28.5661L9.23289 28.2492V16.7607H29.77L29.3551 26.0915L29.2946 27.6241L29.2716 28.2434L29.0815 28.5632L28.609 29.3612L19.4942 44.8569ZM30.6688 14.9544L30.6342 14.8968H8.36579L7.49576 16.3113V28.4941C7.49576 28.5171 7.49867 28.543 7.50155 28.5661C7.50155 28.5834 7.50154 28.6007 7.50442 28.6122C7.5073 28.6295 7.51021 28.6496 7.51309 28.664C7.51885 28.6842 7.52173 28.6957 7.52749 28.7159C7.53037 28.7361 7.53612 28.7591 7.54477 28.7793C7.55053 28.8023 7.55914 28.8225 7.56778 28.8455C7.58506 28.8801 7.60236 28.9118 7.62252 28.9464C7.62252 28.9492 7.62251 28.9521 7.62539 28.9521L7.88179 29.3612L16.7402 43.7046L19.0679 45.8162L19.5 46.2108L19.9321 45.8162L22.1013 43.8457L30.6284 29.3612L30.8675 28.9521L30.8791 28.9348C30.8877 28.9204 30.8992 28.9031 30.905 28.8887C30.9165 28.8657 30.928 28.8369 30.9396 28.8109C30.9453 28.7937 30.9511 28.7735 30.9568 28.7533C30.9799 28.6871 30.9914 28.6237 30.9972 28.5574C31.0001 28.5488 31 28.5373 31 28.5286L31.0346 27.6241L31.484 16.2824L30.6688 14.9544Z" fill="#322C4E"/>
<path d="M30.9972 28.5574C30.9914 28.6237 30.9799 28.6871 30.9568 28.7533C30.9511 28.7735 30.9453 28.7937 30.9396 28.811C30.928 28.8369 30.9165 28.8657 30.905 28.8887C30.8935 28.9118 30.8791 28.932 30.8675 28.9521C30.8157 29.0357 30.7466 29.1163 30.663 29.1768C30.5075 29.3036 30.3173 29.3612 30.1301 29.3612C29.8708 29.3612 29.6173 29.2488 29.4444 29.0299L29.0815 28.5632L28.3469 27.6241L19.4856 16.2882L10.2008 27.6241L9.42881 28.5661L9.03697 29.0443C8.87565 29.2431 8.64521 29.3497 8.41187 29.3612C8.37442 29.3641 8.33123 29.3641 8.2909 29.3612C8.12093 29.3468 7.95673 29.2834 7.81557 29.1682C7.73779 29.1048 7.67437 29.0328 7.62539 28.9521C7.62251 28.9521 7.62252 28.9492 7.62252 28.9464C7.60236 28.9118 7.58506 28.8801 7.56778 28.8455C7.55914 28.8225 7.55053 28.8023 7.54477 28.7793C7.53612 28.7591 7.53037 28.7361 7.52749 28.7159C7.52173 28.6957 7.51885 28.6842 7.51309 28.664C7.51021 28.6496 7.5073 28.6295 7.50442 28.6122C7.50154 28.6007 7.50155 28.5834 7.50155 28.5661C7.49867 28.543 7.49576 28.5171 7.49576 28.4941C7.49576 28.3011 7.55916 28.1052 7.69167 27.9438L7.95668 27.6241L9.23289 26.0627L17.6649 15.7668L18.3765 14.8968H20.6004L21.2803 15.7668L29.3551 26.0915L30.5564 27.6241L30.8157 27.9583C30.9539 28.134 31.0116 28.35 30.9972 28.5574Z" fill="#322C4E"/>
<path d="M20.3554 -8.65367e-06V9.70563" stroke="#322C4E" stroke-width="2.27354" stroke-miterlimit="10"/>
<path d="M35.6294 2.84361L28.7674 9.70563" stroke="#322C4E" stroke-width="2.27354" stroke-miterlimit="10"/>
<path d="M5.10771 2.84361L11.9697 9.70563" stroke="#322C4E" stroke-width="2.27354" stroke-miterlimit="10"/>
</svg>
