<svg width="122" height="25" viewBox="0 0 122 25" fill="none" xmlns="http://www.w3.org/2000/svg">
<path d="M11.2253 3.83395C11.5922 3.0911 12.6515 3.0911 13.0184 3.83395L15.0106 7.86717C15.1562 8.16193 15.4374 8.36629 15.7627 8.41381L20.2183 9.06461C21.0384 9.1844 21.3652 10.1926 20.7712 10.7707L17.5496 13.9064C17.3136 14.1362 17.2058 14.4675 17.2615 14.7921L18.0217 19.2215C18.1619 20.0384 17.3046 20.6614 16.5709 20.2759L12.587 18.1822C12.2958 18.0292 11.9479 18.0292 11.6566 18.1822L7.67274 20.2759C6.93907 20.6614 6.08175 20.0384 6.22195 19.2215L6.98215 14.7921C7.03788 14.4675 6.93012 14.1362 6.69405 13.9064L3.47247 10.7707C2.87853 10.1926 3.2053 9.1844 4.02543 9.06461L8.481 8.41381C8.8063 8.36629 9.08746 8.16193 9.23305 7.86717L11.2253 3.83395Z" fill="#5CCAAB"/>
<path d="M35.4657 3.83395C35.8326 3.0911 36.8919 3.0911 37.2589 3.83395L39.2511 7.86717C39.3967 8.16193 39.6778 8.36629 40.0031 8.41381L44.4587 9.06461C45.2788 9.1844 45.6056 10.1926 45.0117 10.7707L41.7901 13.9064C41.554 14.1362 41.4463 14.4675 41.502 14.7921L42.2622 19.2215C42.4024 20.0384 41.5451 20.6614 40.8114 20.2759L36.8275 18.1822C36.5362 18.0292 36.1883 18.0292 35.8971 18.1822L31.9132 20.2759C31.1795 20.6614 30.3222 20.0384 30.4624 19.2215L31.2226 14.7921C31.2783 14.4675 31.1706 14.1362 30.9345 13.9064L27.7129 10.7707C27.119 10.1926 27.4457 9.1844 28.2659 9.06461L32.7214 8.41381C33.0467 8.36629 33.3279 8.16193 33.4735 7.86717L35.4657 3.83395Z" fill="#5CCAAB"/>
<path d="M59.7087 3.83395C60.0756 3.0911 61.1349 3.0911 61.5019 3.83395L63.4941 7.86717C63.6397 8.16193 63.9208 8.36629 64.2461 8.41381L68.7017 9.06461C69.5218 9.1844 69.8486 10.1926 69.2546 10.7707L66.0331 13.9064C65.797 14.1362 65.6892 14.4675 65.745 14.7921L66.5052 19.2215C66.6454 20.0384 65.788 20.6614 65.0544 20.2759L61.0705 18.1822C60.7792 18.0292 60.4313 18.0292 60.1401 18.1822L56.1562 20.2759C55.4225 20.6614 54.5652 20.0384 54.7054 19.2215L55.4656 14.7921C55.5213 14.4675 55.4135 14.1362 55.1775 13.9064L51.9559 10.7707C51.362 10.1926 51.6887 9.1844 52.5089 9.06461L56.9644 8.41381C57.2897 8.36629 57.5709 8.16193 57.7165 7.86717L59.7087 3.83395Z" fill="#5CCAAB"/>
<path d="M83.9535 3.83395C84.3204 3.0911 85.3797 3.0911 85.7466 3.83395L87.7388 7.86717C87.8844 8.16193 88.1656 8.36629 88.4909 8.41381L92.9465 9.06461C93.7666 9.1844 94.0934 10.1926 93.4994 10.7707L90.2778 13.9064C90.0418 14.1362 89.934 14.4675 89.9897 14.7921L90.75 19.2215C90.8902 20.0384 90.0328 20.6614 89.2992 20.2759L85.3153 18.1822C85.024 18.0292 84.6761 18.0292 84.3849 18.1822L80.4009 20.2759C79.6673 20.6614 78.81 20.0384 78.9502 19.2215L79.7104 14.7921C79.7661 14.4675 79.6583 14.1362 79.4223 13.9064L76.2007 10.7707C75.6067 10.1926 75.9335 9.1844 76.7536 9.06461L81.2092 8.41381C81.5345 8.36629 81.8157 8.16193 81.9613 7.86717L83.9535 3.83395Z" fill="#5CCAAB"/>
<path d="M108.199 3.83395C108.566 3.0911 109.625 3.0911 109.992 3.83395L111.984 7.86717C112.13 8.16193 112.411 8.36629 112.736 8.41381L117.192 9.06461C118.012 9.1844 118.339 10.1926 117.745 10.7707L114.523 13.9064C114.287 14.1362 114.179 14.4675 114.235 14.7921L114.995 19.2215C115.136 20.0384 114.278 20.6614 113.545 20.2759L109.561 18.1822C109.269 18.0292 108.922 18.0292 108.63 18.1822L104.646 20.2759C103.913 20.6614 103.055 20.0384 103.196 19.2215L103.956 14.7921C104.012 14.4675 103.904 14.1362 103.668 13.9064L100.446 10.7707C99.8522 10.1926 100.179 9.1844 100.999 9.06461L105.455 8.41381C105.78 8.36629 106.061 8.16193 106.207 7.86717L108.199 3.83395Z" fill="#5CCAAB"/>
</svg>
