<svg width="25" height="25" viewBox="0 0 25 25" fill="none" xmlns="http://www.w3.org/2000/svg">
<path d="M24.1396 11.2072H16.3806V9.48417H23.7083C23.9467 9.48417 24.1396 9.67708 24.1396 9.91332V11.2072ZM24.1396 13.7928H16.3806V12.0698H24.1396V13.7928ZM24.1396 16.3806H16.3806V14.6554H24.1396V16.3806ZM24.1396 18.9662H16.3806V17.2432H24.1396V18.9662ZM24.1396 21.5518H16.3806V19.8288H24.1396V21.5518ZM24.1396 24.1396H16.3806V22.4144H24.1396V24.1396ZM2.15648 3.44819H0.862588V0.862587H17.2432V3.44819H15.9493H2.15648ZM15.518 9.05289V24.1396H12.0698V17.5596C12.0698 16.9094 11.5409 16.3806 10.8886 16.3806H7.21499C6.56479 16.3806 6.03598 16.9094 6.03598 17.5596V24.1396H2.58776V4.3108H15.518V9.05289ZM11.2072 24.1396H6.89639V17.5596C6.89639 17.3841 7.03943 17.2432 7.21499 17.2432H10.8886C11.0641 17.2432 11.2072 17.3841 11.2072 17.5596V24.1396ZM23.7083 8.62158H16.3806V4.3108H17.2432C17.7178 4.3108 18.1036 3.92283 18.1036 3.44819V0.862587C18.1036 0.385778 17.7178 0 17.2432 0H0.862588C0.387946 0 0 0.385778 0 0.862587V3.44819C0 3.92283 0.387946 4.3108 0.862588 4.3108H1.72518V24.5709C1.72518 24.8071 1.91808 25 2.15648 25H6.46726H11.6385H15.9493H24.5709C24.8093 25 25.0022 24.8071 25.0022 24.5709V21.9831V19.3975V16.8119V14.2241V11.6385V9.91332C25.0022 9.20027 24.4213 8.62158 23.7083 8.62158Z" fill="#3E8180"/>
<path d="M4.31066 6.46519H6.03586V8.19039H4.31066V6.46519ZM4.2023 9.05298H6.14205C6.55817 9.05298 6.89627 8.71488 6.89627 8.29876V6.35901C6.89627 5.94288 6.55817 5.60476 6.14205 5.60476H4.2023C3.78617 5.60476 3.44807 5.94288 3.44807 6.35901V8.29876C3.44807 8.71488 3.78617 9.05298 4.2023 9.05298Z" fill="#3E8180"/>
<path d="M12.0697 6.46519H13.7949V8.19039H12.0697V6.46519ZM11.9613 9.05298H13.901C14.3172 9.05298 14.6553 8.71488 14.6553 8.29876V6.35901C14.6553 5.94288 14.3172 5.60476 13.901 5.60476H11.9613C11.5452 5.60476 11.2071 5.94288 11.2071 6.35901V8.29876C11.2071 8.71488 11.5452 9.05298 11.9613 9.05298Z" fill="#3E8180"/>
<path d="M8.19027 6.46519H9.91547V8.19039H8.19027V6.46519ZM8.0819 9.05298H10.0217C10.4378 9.05298 10.7759 8.71488 10.7759 8.29876V6.35901C10.7759 5.94288 10.4378 5.60476 10.0217 5.60476H8.0819C7.66578 5.60476 7.32768 5.94288 7.32768 6.35901V8.29876C7.32768 8.71488 7.66578 9.05298 8.0819 9.05298Z" fill="#3E8180"/>
<path d="M4.31066 11.6384H6.03586V13.3636H4.31066V11.6384ZM4.2023 14.224H6.14205C6.55817 14.224 6.89627 13.8859 6.89627 13.4698V11.53C6.89627 11.1139 6.55817 10.7758 6.14205 10.7758H4.2023C3.78617 10.7758 3.44807 11.1139 3.44807 11.53V13.4698C3.44807 13.8859 3.78617 14.224 4.2023 14.224Z" fill="#3E8180"/>
<path d="M12.0697 11.6384H13.7949V13.3636H12.0697V11.6384ZM11.9613 14.224H13.901C14.3172 14.224 14.6553 13.8859 14.6553 13.4698V11.53C14.6553 11.1139 14.3172 10.7758 13.901 10.7758H11.9613C11.5452 10.7758 11.2071 11.1139 11.2071 11.53V13.4698C11.2071 13.8859 11.5452 14.224 11.9613 14.224Z" fill="#3E8180"/>
<path d="M8.19027 11.6384H9.91547V13.3636H8.19027V11.6384ZM8.0819 14.224H10.0217C10.4378 14.224 10.7759 13.8859 10.7759 13.4698V11.53C10.7759 11.1139 10.4378 10.7758 10.0217 10.7758H8.0819C7.66578 10.7758 7.32768 11.1139 7.32768 11.53V13.4698C7.32768 13.8859 7.66578 14.224 8.0819 14.224Z" fill="#3E8180"/>
</svg>
